<?xml version="1.0" standalone="no"?><!DOCTYPE svg PUBLIC "-//W3C//DTD SVG 1.1//EN" "http://www.w3.org/Graphics/SVG/1.1/DTD/svg11.dtd"><svg t="1513156422098" class="icon" style="" viewBox="0 0 1024 1024" version="1.1" xmlns="http://www.w3.org/2000/svg" p-id="7141" xmlns:xlink="http://www.w3.org/1999/xlink" width="200" height="200"><defs><style type="text/css"></style></defs><path d="M694.857143 438.857143H512V256c0-21.942857-14.628571-36.571429-36.571429-36.571429s-36.571429 14.628571-36.571428 36.571429v219.428571c0 21.942857 14.628571 36.571429 36.571428 36.571429h219.428572c21.942857 0 36.571429-14.628571 36.571428-36.571429S716.8 438.857143 694.857143 438.857143zM950.857143 694.857143c0 21.942857-14.628571 36.571429-36.571429 36.571428h-804.571428c-21.942857 0-36.571429-14.628571-36.571429-36.571428v-585.142857c0-21.942857 14.628571-36.571429 36.571429-36.571429h804.571428c21.942857 0 36.571429 14.628571 36.571429 36.571429v585.142857zM914.285714 0h-804.571428C51.2 0 0 51.2 0 109.714286v585.142857c0 58.514286 51.2 109.714286 109.714286 109.714286h804.571428c58.514286 0 109.714286-51.2 109.714286-109.714286v-585.142857c0-58.514286-51.2-109.714286-109.714286-109.714286z m-219.428571 950.857143h-365.714286c-21.942857 0-36.571429 14.628571-36.571428 36.571428s14.628571 36.571429 36.571428 36.571429h365.714286c21.942857 0 36.571429-14.628571 36.571428-36.571429s-14.628571-36.571429-36.571428-36.571428z" p-id="7142" fill="#cdcdcd"></path></svg>