<?xml version="1.0" standalone="no"?><!DOCTYPE svg PUBLIC "-//W3C//DTD SVG 1.1//EN" "http://www.w3.org/Graphics/SVG/1.1/DTD/svg11.dtd"><svg t="1513156686858" class="icon" style="" viewBox="0 0 1024 1024" version="1.1" xmlns="http://www.w3.org/2000/svg" p-id="9703" xmlns:xlink="http://www.w3.org/1999/xlink" width="200" height="200"><defs><style type="text/css"></style></defs><path d="M106.154667 555.70963c0 248.301037 201.272889 449.554963 449.554963 449.554963 248.301037 0 449.554963-201.253926 449.554963-449.554963 0-248.282074-201.253926-449.554963-449.554963-449.554963-248.282074 0-449.554963 201.272889-449.554963 449.554963z" fill="#E3EFFF" p-id="9704"></path><path d="M493.264593 18.735407C231.025778 18.735407 18.735407 231.025778 18.735407 493.264593c0 262.257778 212.29037 474.548148 474.529186 474.548148a478.245926 478.245926 0 0 0 253.515851-72.438519c6.238815-3.735704 7.49037-11.226074 3.735704-17.483852-3.735704-6.238815-11.245037-7.49037-17.483852-3.735703-71.186963 44.961185-154.851556 68.683852-239.767703 68.683852-248.50963 0-449.573926-201.064296-449.573926-449.573926S244.754963 43.70963 493.264593 43.70963 942.838519 244.754963 942.838519 493.264593c0 84.916148-23.722667 168.580741-68.683852 239.767703-3.735704 6.238815-2.503111 13.748148 3.735703 17.483852 6.257778 3.735704 13.748148 2.503111 17.483852-3.735704 47.464296-76.193185 73.690074-163.593481 73.690074-253.515851C967.812741 231.025778 755.52237 18.735407 493.264593 18.735407z" fill="#58AEFF" p-id="9705"></path><path d="M765.496889 524.47763H528.213333v-285.961482c0-7.49037-4.987259-12.496593-12.477629-12.496592-7.509333 0-12.496593 5.006222-12.496593 12.496592v298.439111c0 7.509333 4.987259 12.496593 12.496593 12.496593h248.509629c7.49037 0 12.47763-4.987259 12.47763-12.496593 0.018963-7.471407-4.987259-12.47763-11.226074-12.477629z" fill="#58AEFF" p-id="9706"></path></svg>