<?xml version="1.0" standalone="no"?><!DOCTYPE svg PUBLIC "-//W3C//DTD SVG 1.1//EN" "http://www.w3.org/Graphics/SVG/1.1/DTD/svg11.dtd"><svg t="1511331060605" class="icon" style="" viewBox="0 0 1024 1024" version="1.1" xmlns="http://www.w3.org/2000/svg" p-id="3231" xmlns:xlink="http://www.w3.org/1999/xlink" width="16" height="16"><defs><style type="text/css"></style></defs><path d="M512 65.290005c-197.187011 0-357.037672 159.850661-357.037672 357.037672 0 197.192128 279.800567 498.970242 279.800567 498.970242 42.656519 49.793056 112.468514 50.057069 154.708548-0.265036 0 0 279.56623-301.514101 279.56623-498.705206C869.037672 225.140667 709.191104 65.290005 512 65.290005L512 65.290005 512 65.290005zM512 576.086597c-91.231841 0-165.166737-73.943083-165.166737-165.166737 0-91.222631 73.935919-165.166737 165.166737-165.166737 91.223654 0 165.162644 73.944106 165.162644 165.166737C677.162644 502.143515 603.223654 576.086597 512 576.086597L512 576.086597 512 576.086597zM512 576.086597" p-id="3232" fill="#17abe3"></path></svg>