<?xml version="1.0" standalone="no"?><!DOCTYPE svg PUBLIC "-//W3C//DTD SVG 1.1//EN" "http://www.w3.org/Graphics/SVG/1.1/DTD/svg11.dtd"><svg t="1513136916015" class="icon" style="" viewBox="0 0 1097 1024" version="1.1" xmlns="http://www.w3.org/2000/svg" p-id="3775" xmlns:xlink="http://www.w3.org/1999/xlink" width="34.28125" height="32"><defs><style type="text/css"></style></defs><path d="M78.336 720.018286v193.170285c0 20.406857 17.554286 36.937143 39.204571 36.937143h862.061715c21.650286 0 39.204571-16.530286 39.204571-36.937143v-738.742857c0-20.48-17.554286-36.937143-39.204571-36.937143H117.540571c-21.650286 0-39.204571 16.530286-39.204571 36.937143V648.777143h935.204571v71.241143H78.336zM117.540571 63.634286h862.061715C1044.48 63.634286 1097.142857 113.225143 1097.142857 174.445714v738.742857c0 61.220571-52.662857 110.811429-117.540571 110.811429H117.540571C52.662857 1024 0 974.409143 0 913.188571v-738.742857C0 113.225143 52.662857 63.634286 117.540571 63.634286z m290.304 274.578285L365.129143 446.902857a39.131429 39.131429 0 0 1-36.571429 24.137143l-132.461714 0.512c-21.650286 0.146286-39.277714-16.384-39.350857-36.717714-0.073143-20.48 17.334857-37.010286 38.985143-37.156572l105.325714-0.438857 69.924571-178.176c12.653714-32.182857 60.854857-32.182857 73.508572 0l104.594286 265.362286 114.834285-174.006857a40.521143 40.521143 0 0 1 65.170286-1.974857l67.364571 88.722285h91.282286c21.650286 0 39.204571 16.530286 39.204572 36.937143s-17.554286 36.937143-39.204572 36.937143h-111.396571a39.936 39.936 0 0 1-31.890286-15.433143l-44.909714-59.245714L573.44 587.483429c-17.188571 26.112-58.660571 22.162286-69.997714-6.582858L407.844571 338.212571zM235.081143 876.251429c-21.650286 0-39.131429-16.530286-39.131429-36.937143s17.554286-36.937143 39.131429-36.937143h117.540571c21.650286 0 39.204571 16.530286 39.204572 36.937143s-17.554286 36.937143-39.204572 36.937143H235.081143z m274.285714 0c-21.650286 0-39.131429-16.530286-39.131428-36.937143s17.554286-36.937143 39.131428-36.937143h117.540572c21.650286 0 39.204571 16.530286 39.204571 36.937143s-17.554286 36.937143-39.204571 36.937143H509.366857z m324.973714-10.825143a35.474286 35.474286 0 0 1 0-52.224 40.886857 40.886857 0 0 1 55.442286 0c15.286857 14.409143 15.286857 37.814857 0 52.224a40.886857 40.886857 0 0 1-55.442286 0z" fill="#1296db" p-id="3776"></path></svg>