<?xml version="1.0" standalone="no"?><!DOCTYPE svg PUBLIC "-//W3C//DTD SVG 1.1//EN" "http://www.w3.org/Graphics/SVG/1.1/DTD/svg11.dtd"><svg t="1510654422333" class="icon" style="" viewBox="0 0 1024 1024" version="1.1" xmlns="http://www.w3.org/2000/svg" p-id="11809" xmlns:xlink="http://www.w3.org/1999/xlink" width="200" height="200"><defs><style type="text/css"></style></defs><path d="M783.616 666.464A310.784 310.784 0 0 0 824.384 512c0-172.544-139.84-312.384-312.384-312.384S199.616 339.456 199.616 512a312.512 312.512 0 0 0 253.12 306.784s14.304 5.568 11.776 21.696c-2.56 16.096-19.232 17.216-19.232 17.216C282.784 826.496 160 683.616 160 512 160 317.6 317.6 160 512 160s352 157.6 352 352a350.4 350.4 0 0 1-46.4 174.848l43.04 25.888-109.44 36.896-18.784-113.952 51.2 30.784zM336 396.8V313.088l134.24-0.192c5.152-7.296 10.88-12.672 17.088-16.096 6.24-3.456 13.984-5.024 23.264-4.8 9.28 0.256 17.056 1.792 23.296 4.48 6.208 2.72 10.656 5.76 13.312 9.056l5.952 7.36 134.848 0.192v58.24l-65.6 20.128V354.24h-220.576v16.48l-65.824 26.08z m284.576 50.88h-77.152v49.952h69.824l-18.112 43.328h-51.712v55.68l77.152 0.224v-149.184z m-140.192 93.312h-76.8v55.68h76.8v-55.68z m0-93.312h-76.8v49.952h76.8v-49.92z m-139.616-45.12h139.616v-29.44h63.04v29.44h140.192v191.744l-63.04 43.904-77.152 0.416v57.824l-63.04 22.88v-80.64h-139.616v-236.096z" fill="#08af7d" p-id="11810"></path></svg>