<?xml version="1.0" standalone="no"?><!DOCTYPE svg PUBLIC "-//W3C//DTD SVG 1.1//EN" "http://www.w3.org/Graphics/SVG/1.1/DTD/svg11.dtd"><svg t="1510653602795" class="icon" style="" viewBox="0 0 1024 1024" version="1.1" xmlns="http://www.w3.org/2000/svg" p-id="6977" xmlns:xlink="http://www.w3.org/1999/xlink" width="200" height="200"><defs><style type="text/css"></style></defs><path d="M984.0384 550.5792c-1.1264-44.1344-19.26144-64.64-63.104-64-26.0864 0.37888-30.12608-14.04928-40.83712-32.26112-23.808-40.47872-48.50688-83.22048-82.69824-114.14528-48.81408-44.14976-52.66944-40.00768-33.70496-103.0912 3.83488-12.7488 10.22464-24.96512 12.33408-37.92384 1.93024-11.96032 4.3776-30.4384-1.8688-35.44064-7.69024-6.15424-27.36128-6.1952-36.3008-0.36864-39.4496 25.69728-79.17568 51.92704-114.0224 83.25632-15.28832 13.73184-24.38144 20.28032-46.11072 18.02752-184.34048-19.21536-345.54368 16.97792-446.18752 196.48-56.42752-30.33088-65.44896-68.6848-28.99456-108.07296 7.60832-8.22784 7.81312-23.3216 11.43296-35.2512-13.07136 1.8944-29.21472-0.47104-38.68672 6.37952-54.84032 39.64416-45.5936 124.8512 19.2 164.03968 11.92448 7.21408 18.85696 14.592 22.35392 23.3984 5.12-1.58208 10.60352-2.69824 16.83968-2.69824 2.85696 0 5.20192 0.73728 7.81312 1.10592 6.95808-3.53792 15.10912-5.74464 24.72448-5.74464 0.13312 0 0.256 0.04096 0.39424 0.04096 18.17088-63.15008 58.90048-119.54688 116.07552-150.25152 95.31904-51.19488 194.14528-63.58016 298.13248-46.72512 32.52224 5.2736 53.67296 3.67104 71.808-29.76256 14.1312-26.05056 41.71776-44.80512 63.32416-66.79552 2.3552 2.14016 4.72576 4.29568 7.07584 6.44608-4.1216 28.64128-8.27392 57.27232-12.35968 85.90848-3.39968 23.89504 3.64032 39.32672 28.5184 49.44896 56.93952 23.15264 92.88192 67.28704 106.46528 126.67392 8.21248 35.87584 28.34432 49.86368 62.36672 46.78144 29.35808-2.6624 38.03136 11.392 35.67616 37.90848-1.06496 11.91936-1.41312 24.16128 0.05632 35.99872 4.65408 37.44768-5.10464 57.31328-48.95232 55.05024-15.44192-0.79872-34.36032 15.96928-47.41632 28.99456-33.44384 33.39264-62.27968 71.6544-97.29536 103.15264-22.784 20.50048-29.2096 39.78752-18.37568 66.4576 21.1968 52.17792-28.544 42.27072-49.82272 55.97184-26.4448 17.01888-38.81984 0.51712-44.95872-23.75168-10.34752-40.78592-36.62848-48.22016-75.8784-44.6208-43.33056 3.98336-87.87968 2.36544-131.12832-2.98496-37.87264-4.6848-63.60064 2.5344-72.2176 42.17856-9.4464 43.41248-33.41824 34.92352-64.9728 23.92576-33.78688-11.776-46.90944-25.9072-28.82048-60.35968 18.13504-34.5344 10.0608-62.2848-21.632-86.97856-45.81888-35.72224-71.48032-82.88256-81.33632-132.73088-6.8096-1.75104-12.76928-4.5824-17.72544-8.42752-3.06176 0.53248-6.11328 1.1008-9.54368 1.1008-1.6896 0-3.1744-0.2816-4.75136-0.43008a55.43424 55.43424 0 0 1-9.28256 21.72928c11.17696 52.41856 39.87456 98.60096 84.0448 138.112 25.41568 22.72256 29.25568 40.93952 16.29696 71.23968-18.8672 44.12928-5.65248 68.70016 40.03328 87.11168 11.10528 4.48 22.36416 8.63232 33.59744 12.81024 56.02816 20.84864 75.904 13.17376 97.9456-43.85792 8.72448-22.58432 20.02432-25.25696 41.96864-23.10144 40.9088 4.02944 82.54976 6.5024 123.38176 3.32288 25.97888-2.0224 37.32992 2.56 46.47936 27.97568 16.39936 45.57824 42.0608 54.89152 88.28928 38.2976 15.04256-5.4016 30.11072-10.79808 44.84096-16.9984 38.79936-16.31232 51.85024-38.85056 38.1696-79.1296-8.02816-23.67488 1.61792-31.01696 17.11104-44.73856 28.57472-25.32864 55.99232-53.32992 77.69088-84.5312 14.42816-20.76672 26.09664-32.26112 52.93056-31.90784 41.09312 0.54272 60.14976-20.7872 61.55264-62.21312 0.89088-26.6496 0.7424-53.376 0.06144-80.03072z" p-id="6978" fill="#f66f12"></path><path d="M269.94688 244.92544c-13.08672-64.67584 23.35744-122.28096 81.77664-134.93248 63.74912-13.80864 120.36096 20.32128 135.7824 86.33856 6.5024 27.8272 18.78528 27.27424 38.75328 19.60448 5.73952-56.40704-28.17024-111.01184-84.11648-136.49408-59.44832-27.0848-132.09088-12.48256-176.41472 35.47136-44.17024 47.78496-53.36064 112.03584-23.28576 165.22752 21.33504-2.16576 32.96768-8.22272 27.50464-35.21536zM749.52192 563.46112c15.37024-2.89792 27.97056-20.52096 52.46464-40.01792-26.00448-17.06496-42.0352-35.83488-55.10656-33.95584-14.21824 2.04288-33.83296 21.78048-36.49536 36.44928-4.25472 23.45472 15.08352 42.05568 39.13728 37.52448zM609.7664 452.608c3.56864-7.13728 5.35552-11.8784 5.35552-14.27968-1.19808-9.50784-6.5536-14.86336-16.06656-16.06144-9.53344 0-16.67584 4.18304-21.41696 12.4928l-82.09408 123.14624-82.09408-123.14624c-4.77184-8.30976-11.90912-12.4928-21.41696-12.4928-9.53856 1.19808-14.88896 6.5536-16.06144 16.06144a67.328 67.328 0 0 0 5.35552 14.27968c1.17248 1.19808 1.78688 2.39616 1.78688 3.56864l73.17504 112.43008h-42.83392c-13.1072 0-19.63008 5.35552-19.63008 16.06656 1.17248 8.33536 7.72608 13.1072 19.63008 14.27456h62.464v32.12288h-62.464c-13.1072 0-19.63008 5.35552-19.63008 16.06656 1.17248 8.33536 7.72608 13.1072 19.63008 14.27456h62.464v71.38816c0 11.904 6.52288 17.8432 19.63008 17.8432 13.0816 0 19.63008-5.9392 19.63008-17.8432v-71.38816h62.464c11.8784-1.17248 18.43712-5.9392 19.63008-14.27456 0-10.71104-6.54848-16.06656-19.63008-16.06656h-62.464v-32.12288h62.464c11.8784-1.17248 18.43712-5.9392 19.63008-14.27456 0-10.71104-6.54848-16.06656-19.63008-16.06656h-42.8288l73.16992-112.43008c-0.00512-1.17248 0.57856-2.37056 1.78176-3.56864z" p-id="6979" fill="#f66f12"></path></svg>