<?xml version="1.0" standalone="no"?><!DOCTYPE svg PUBLIC "-//W3C//DTD SVG 1.1//EN" "http://www.w3.org/Graphics/SVG/1.1/DTD/svg11.dtd"><svg t="1530518754706" class="icon" style="" viewBox="0 0 1024 1024" version="1.1" xmlns="http://www.w3.org/2000/svg" p-id="1054" xmlns:xlink="http://www.w3.org/1999/xlink" width="200" height="200"><defs><style type="text/css"></style></defs><path d="M574 624.2H411c-21 0-38 17-38 38s17 38 38 38h192.8c7.4 0 14.3-2.1 20.1-5.8l0.5 0.6 240.2-162c27.8-18.8 65.6-11.4 84.3 16.4 18.8 27.8 11.4 65.6-16.4 84.3L588.4 865.8c-7 4.7-14.7 7.5-22.5 8.4-9 2.7-18.3 4.2-27.8 4.4l-24.9 0.5c-14.3 0.3-28.5-2.4-41.7-7.9L95.3 713.3c-19-8-31.4-26.6-31.4-47.2V548.6c0-14.1 11.5-25.6 25.6-25.6h490.6c28 0 50.6 22.7 50.6 50.6s-22.7 50.6-50.6 50.6H574zM372.4 244.6c-28.1 0-50.9-22.7-50.9-50.6s22.8-50.6 50.9-50.6h387.8c28.1 0 50.9 22.7 50.9 50.6s-22.8 50.6-50.9 50.6H372.4z m0 177.2c-28.1 0-50.9-22.7-50.9-50.6 0-28 22.8-50.6 50.9-50.6h387.8c28.1 0 50.9 22.7 50.9 50.6 0 28-22.8 50.6-50.9 50.6H372.4z" p-id="1055" fill="#2c2c2c"></path></svg>