<?xml version="1.0" standalone="no"?><!DOCTYPE svg PUBLIC "-//W3C//DTD SVG 1.1//EN" "http://www.w3.org/Graphics/SVG/1.1/DTD/svg11.dtd"><svg t="1513136711584" class="icon" style="" viewBox="0 0 1024 1024" version="1.1" xmlns="http://www.w3.org/2000/svg" p-id="2955" xmlns:xlink="http://www.w3.org/1999/xlink" width="32" height="32"><defs><style type="text/css"></style></defs><path d="M657.714 938.89H175.143c-61.409 0-111.362-49.954-111.362-111.363V196.473c0-61.409 49.953-111.363 111.362-111.363h482.57c61.41 0 111.363 49.954 111.363 111.363V398.08c0 20.5-16.603 37.12-37.12 37.12-20.519 0-37.12-16.62-37.12-37.12V196.473c0-20.463-16.64-37.12-37.121-37.12H175.143c-20.463 0-37.12 16.657-37.12 37.12v631.053c0 20.482 16.657 37.12 37.12 37.12h482.57c20.482 0 37.121-16.638 37.121-37.12v-71.559c0-20.518 16.603-37.12 37.12-37.12 20.519 0 37.121 16.603 37.121 37.12v71.56c0.001 61.409-49.953 111.363-111.361 111.363z" p-id="2956" fill="#1296db"></path><path d="M881.475 341.263L618.993 603.75l-18.525 106.02 100.49-30.615L960.219 420.01zM249.366 734.725c-3.08 0-6.216-0.762-9.099-2.393-8.935-5.039-12.09-16.35-7.05-25.303 79.48-140.87 110.201-136.05 120.497-134.382 7.485 1.16 20.7 6.416 25.212 28.42 3.879 18.924 4.985 37.992 5.873 53.325 0.2 3.335 0.416 7.069 0.67 10.695l13.413-14.682c27.623-30.559 44.443-48.903 65.541-43.935 18.18 4.241 23.727 23.961 25.557 30.414 3.046 10.84 3.063 20.954 2.067 29.508 2.773-1.196 5.908-2.61 9.48-4.241 9.298-4.278 20.318-0.146 24.596 9.207 4.241 9.317 0.145 20.338-9.208 24.578-29.544 13.45-45.55 20.047-58.165 9.643-11.147-9.135-7.974-22.548-5.891-31.466 1.94-8.157 4.115-17.436 1.377-27.151-0.035-0.146-0.072-0.29-0.108-0.435-7.323 6.235-18.38 18.451-27.714 28.783l-14.935 16.35c-7.92 8.555-24.343 26.39-42.704 19.684-18.234-6.525-19.412-26.789-21.026-54.811-0.78-13.196-1.631-27.95-4.15-42.486-17.093 14.972-49.755 61.082-78.048 111.254-3.407 6.016-9.714 9.424-16.185 9.424zM212.262 307.838h408.33v37.119h-408.33v-37.119zM212.262 382.078h408.33v37.121h-408.33v-37.121zM212.262 456.32H546.35v37.12H212.262v-37.12z" p-id="2957" fill="#1296db"></path></svg>