<?xml version="1.0" standalone="no"?><!DOCTYPE svg PUBLIC "-//W3C//DTD SVG 1.1//EN" "http://www.w3.org/Graphics/SVG/1.1/DTD/svg11.dtd"><svg t="1511331776370" class="icon" style="" viewBox="0 0 1024 1024" version="1.1" xmlns="http://www.w3.org/2000/svg" p-id="7000" xmlns:xlink="http://www.w3.org/1999/xlink" width="16" height="16"><defs><style type="text/css"></style></defs><path d="M430.4 568c65.6-27.2 112-96 112-176 0-102.4-78.4-187.2-176-187.2s-176 83.2-176 187.2c0 80 46.4 150.4 112 177.6C193.6 598.4 112 704 112 832h35.2c0-128 97.6-233.6 219.2-233.6S585.6 704 585.6 832h35.2c0-128-81.6-233.6-190.4-264zM225.6 390.4c0-83.2 64-150.4 140.8-150.4 76.8 0 140.8 67.2 140.8 150.4s-62.4 150.4-140.8 150.4c-76.8 0-140.8-67.2-140.8-150.4z m345.6 80h249.6V432H571.2v38.4zM819.2 560H636.8v38.4h184V560z m0-249.6H571.2v38.4h249.6v-38.4z m46.4-112H496v33.6h369.6c8 0 14.4 6.4 14.4 14.4v534.4c0 8-6.4 14.4-14.4 14.4h-156.8v33.6h156.8c25.6 0 46.4-22.4 46.4-49.6V248c0-27.2-20.8-49.6-46.4-49.6z" fill="#f86f09" p-id="7001"></path></svg>