<?xml version="1.0" standalone="no"?><!DOCTYPE svg PUBLIC "-//W3C//DTD SVG 1.1//EN" "http://www.w3.org/Graphics/SVG/1.1/DTD/svg11.dtd"><svg t="1510729092253" class="icon" style="" viewBox="0 0 1024 1024" version="1.1" xmlns="http://www.w3.org/2000/svg" p-id="16953" xmlns:xlink="http://www.w3.org/1999/xlink" width="200" height="200"><defs><style type="text/css"></style></defs><path d="M934.470941 873.511567l-62.278415 0c-13.757329 0-24.911366-10.80202-24.911366-24.559349s11.154038-24.559349 24.911366-24.559349l38.071084 0 0-199.544709L685.35728 624.848161c-13.757329 0-24.911366-11.313673-24.911366-25.071002s11.154038-25.071002 24.911366-25.071002l249.112638 0c13.757329 0 24.912389 9.899464 24.912389 23.656793l0 249.112638C959.382307 861.233939 948.227246 873.511567 934.470941 873.511567z" p-id="16954" fill="#bfbfbf"></path><path d="M722.724329 873.511567l-62.278415 0c-13.757329 0-24.911366-10.80202-24.911366-24.559349s11.154038-24.559349 24.911366-24.559349l62.278415 0c13.757329 0 24.911366 10.80202 24.911366 24.559349S736.481657 873.511567 722.724329 873.511567z" p-id="16955" fill="#bfbfbf"></path><path d="M959.381283 581.638033 909.559575 581.638033c0-112.36516-91.416036-203.78222-203.77915-203.78222L705.780425 328.034105C845.614194 328.034105 959.381283 441.801195 959.381283 581.638033z" p-id="16956" fill="#bfbfbf"></path><path d="M685.35728 872.387977 341.082282 872.387977c-13.757329 0-24.911366-11.154038-24.911366-24.911366s11.154038-24.911366 24.911366-24.911366l319.327816 0-0.86367-572.959374L113.955378 249.605871l0 572.959374 73.176626 0c13.757329 0 24.911366 11.154038 24.911366 24.911366s-11.154038 24.911366-24.911366 24.911366l-98.087992 0c-13.757329 0-24.911366-11.154038-24.911366-24.911366L64.132646 224.694505c0-13.757329 11.154038-24.911366 24.911366-24.911366l595.376942 0c13.745049 0 24.892947 11.129478 24.911366 24.874527l0.936325 622.782106c0.01228 6.610558-2.609431 12.957103-7.28594 17.637706C698.312336 869.757057 691.968861 872.387977 685.35728 872.387977z" p-id="16957" fill="#bfbfbf"></path><path d="M264.937045 937.368944c-55.722092 0-101.050464-45.331441-101.050464-101.053534 0-55.719023 45.328371-101.050464 101.050464-101.050464s101.056604 45.331441 101.056604 101.050464C365.993648 892.038526 320.659137 937.368944 264.937045 937.368944zM264.937045 785.088702c-28.244274 0-51.227732 22.980387-51.227732 51.227732 0 28.247344 22.983457 51.230802 51.227732 51.230802 28.250414 0 51.233871-22.983457 51.233871-51.230802C316.170916 808.069089 293.187459 785.088702 264.937045 785.088702z" p-id="16958" fill="#bfbfbf"></path><path d="M797.927101 937.368944c-55.722092 0-101.050464-45.331441-101.050464-101.053534 0-55.719023 45.328371-101.050464 101.050464-101.050464s101.050464 45.331441 101.050464 101.050464C898.976542 892.038526 853.648171 937.368944 797.927101 937.368944zM797.927101 785.088702c-28.244274 0-51.227732 22.980387-51.227732 51.227732 0 28.247344 22.983457 51.230802 51.227732 51.230802 28.244274 0 51.227732-22.983457 51.227732-51.230802C849.15381 808.069089 826.170353 785.088702 797.927101 785.088702z" p-id="16959" fill="#bfbfbf"></path></svg>