<?xml version="1.0" standalone="no"?><!DOCTYPE svg PUBLIC "-//W3C//DTD SVG 1.1//EN" "http://www.w3.org/Graphics/SVG/1.1/DTD/svg11.dtd"><svg t="1513134469660" class="icon" style="" viewBox="0 0 1024 1024" version="1.1" xmlns="http://www.w3.org/2000/svg" p-id="1009" xmlns:xlink="http://www.w3.org/1999/xlink" width="32" height="32"><defs><style type="text/css"></style></defs><path d="M306.594817 934.901753c-4.942569 0-9.853415-1.430582-14.100136-4.235464-7.170307-4.735861-11.484565-12.754488-11.484565-21.347191L281.010115 764.476245c0-9.998725-8.134261-18.131963-18.131963-18.131963l-22.063505 0c-9.998725 0-18.131963 8.133238-18.131963 18.131963l0 144.843876c0 8.592702-4.314259 16.61133-11.484565 21.347191-7.170307 4.734838-16.237823 5.554506-24.14184 2.181689-60.965513-26.024723-100.357685-85.665055-100.357685-151.941528 0-60.46 32.784684-115.399263 84.818781-144.333246L171.517375 356.175025c-52.03512-28.933983-84.818781-83.873246-84.818781-144.332223 0-66.277496 39.393195-125.917828 100.357685-151.942551 7.904017-3.373841 16.97051-2.554172 24.14184 2.180666 7.170307 4.735861 11.484565 12.754488 11.484565 21.347191l0 144.842853c0 9.998725 8.134261 18.131963 18.131963 18.131963l22.063505 0c9.997702 0 18.131963-8.134261 18.131963-18.131963L281.010115 83.428108c0-8.592702 4.314259-16.61133 11.484565-21.347191 7.169283-4.735861 16.236799-5.556553 24.14184-2.180666 60.965513 26.024723 100.357685 85.665055 100.357685 151.942551 0 60.46-32.784684 115.399263-84.818781 144.332223l0 280.399201c52.036143 28.932959 84.819804 83.873246 84.818781 144.333246 0 66.277496-39.393195 125.917828-100.357685 151.941528C313.414129 934.223301 309.99731 934.901753 306.594817 934.901753zM240.814648 695.178973l22.063505 0c38.210253 0 69.297272 31.087019 69.297272 69.297272l0 97.351212c21.158902-21.001313 33.653471-49.907667 33.653471-80.919984 0.001023-45.749974-27.193339-86.919628-69.279876-104.884792-9.42465-4.02364-15.538905-13.281491-15.538905-23.528879L281.010115 340.255451c0-10.247388 6.114255-19.506263 15.538905-23.528879 42.085514-17.965164 69.279876-59.134819 69.279876-104.884792 0-31.012318-12.494569-59.918671-33.653471-80.921008l0 97.349165c0 38.211277-31.085996 69.297272-69.297272 69.297272l-22.063505 0c-38.210253 0-69.297272-31.085996-69.297272-69.297272L171.517375 130.921795c-21.158902 21.002336-33.653471 49.90869-33.653471 80.921008 0 45.749974 27.194362 86.918605 69.279876 104.884792 9.42465 4.022617 15.538905 13.281491 15.538905 23.528879l0 312.237327c0 10.247388-6.114255 19.506263-15.538905 23.528879-42.085514 17.965164-69.279876 59.134819-69.279876 104.884792 0 31.012318 12.494569 59.918671 33.653471 80.919984l0-97.351212C171.517375 726.265992 202.604394 695.178973 240.814648 695.178973z" p-id="1010" fill="#1296db"></path><path d="M735.186152 943.023734 647.600351 943.023734c-20.829398 0-36.537148-19.500123-36.537148-45.357024L611.063203 287.384289l-45.016263 0c-24.106024 0-42.98807-17.069771-42.98807-38.861076L523.05887 90.534969c0-14.128789 11.452843-25.582655 25.582655-25.582655 67.332525 0 130.905422 8.655124 188.95042 25.724895 46.794769 13.760398 90.1236 32.991392 128.787178 57.157791 66.837244 41.777499 96.971565 84.23652 98.221022 86.023212 3.006474 4.298909 4.620227 9.41851 4.620227 14.663978 0 21.791305-18.882046 38.861076-42.987047 38.861076L771.722276 287.383266l0 610.282421C771.722276 923.523611 756.014526 943.023734 735.186152 943.023734zM662.228513 891.858424l58.328453 0L720.556966 261.801634c0-14.128789 11.452843-25.582655 25.582655-25.582655l151.773705 0c-14.018272-13.280468-34.20094-29.958312-61.119009-46.524616-51.132564-31.469736-137.179312-68.604494-262.571161-73.120344l0 119.644961 62.421678 0c14.129812 0 25.582655 11.453866 25.582655 25.582655L662.22749 891.858424z" p-id="1011" fill="#1296db"></path></svg>