<?xml version="1.0" standalone="no"?><!DOCTYPE svg PUBLIC "-//W3C//DTD SVG 1.1//EN" "http://www.w3.org/Graphics/SVG/1.1/DTD/svg11.dtd"><svg t="1511331564001" class="icon" style="" viewBox="0 0 1024 1024" version="1.1" xmlns="http://www.w3.org/2000/svg" p-id="4058" xmlns:xlink="http://www.w3.org/1999/xlink" width="16" height="16"><defs><style type="text/css"></style></defs><path d="M1024 384c0-51.2-43.52-94.72-94.72-94.72h-156.16V128c0-51.2-43.52-94.72-94.72-94.72h-332.8c-51.2 0-94.72 40.96-94.72 94.72v161.28H94.72C43.52 289.28 0 332.8 0 384v512c0 51.2 43.52 94.72 94.72 94.72H332.8c28.16 0 48.64-23.04 48.64-48.64v-58.88h261.12v58.88c0 28.16 23.04 48.64 48.64 48.64h235.52c51.2 0 94.72-43.52 94.72-94.72V384h2.56z m-46.08 512c0 25.6-20.48 48.64-48.64 48.64h-240.64v-66.56c0-23.04-17.92-40.96-40.96-40.96H376.32c-23.04 0-40.96 17.92-40.96 40.96v66.56H94.72c-25.6 0-48.64-23.04-48.64-48.64V384c0-25.6 20.48-48.64 48.64-48.64h204.8V128c0-25.6 20.48-48.64 48.64-48.64h330.24c25.6 0 48.64 20.48 48.64 48.64v207.36h204.8c25.6 0 48.64 23.04 48.64 48.64v512h-2.56z" fill="#d81e06" p-id="4059"></path><path d="M542.72 238.08V158.72h-64v79.36c0 2.56-2.56 7.68-7.68 7.68h-79.36v64h81.92c2.56 0 7.68 2.56 7.68 7.68v79.36h64v-79.36c0-2.56 2.56-7.68 7.68-7.68h76.8V245.76h-79.36c-2.56-2.56-7.68-5.12-7.68-7.68zM294.4 488.96H171.52c-7.68 0-15.36 7.68-15.36 15.36v56.32c0 7.68 7.68 15.36 15.36 15.36h122.88c7.68 0 15.36-7.68 15.36-15.36v-56.32c-2.56-7.68-7.68-15.36-15.36-15.36zM576 488.96h-122.88c-7.68 0-15.36 7.68-15.36 15.36v56.32c0 7.68 7.68 15.36 15.36 15.36h122.88c7.68 0 15.36-7.68 15.36-15.36v-56.32c0-7.68-7.68-15.36-15.36-15.36zM857.6 488.96h-122.88c-7.68 0-15.36 7.68-15.36 15.36v56.32c0 7.68 7.68 15.36 15.36 15.36h122.88c7.68 0 15.36-7.68 15.36-15.36v-56.32c0-7.68-7.68-15.36-15.36-15.36zM294.4 647.68H171.52c-7.68 0-15.36 7.68-15.36 15.36v56.32c0 7.68 7.68 15.36 15.36 15.36h122.88c7.68 0 15.36-7.68 15.36-15.36v-56.32c-2.56-10.24-7.68-15.36-15.36-15.36zM576 647.68h-122.88c-7.68 0-15.36 7.68-15.36 15.36v56.32c0 7.68 7.68 15.36 15.36 15.36h122.88c7.68 0 15.36-7.68 15.36-15.36v-56.32c0-10.24-7.68-15.36-15.36-15.36zM857.6 647.68h-122.88c-7.68 0-15.36 7.68-15.36 15.36v56.32c0 7.68 7.68 15.36 15.36 15.36h122.88c7.68 0 15.36-7.68 15.36-15.36v-56.32c0-10.24-7.68-15.36-15.36-15.36z" fill="#d81e06" p-id="4060"></path></svg>