<?xml version="1.0" standalone="no"?><!DOCTYPE svg PUBLIC "-//W3C//DTD SVG 1.1//EN" "http://www.w3.org/Graphics/SVG/1.1/DTD/svg11.dtd"><svg t="1510653657020" class="icon" style="" viewBox="0 0 1024 1024" version="1.1" xmlns="http://www.w3.org/2000/svg" p-id="8368" xmlns:xlink="http://www.w3.org/1999/xlink" width="200" height="200"><defs><style type="text/css"></style></defs><path d="M604.4 382.4h78.3V429h-78.3zM343.3 382.4h78.3V429h-78.3zM475.9 297h74.7v38.8h-74.7z" p-id="8369" fill="#1296db"></path><path d="M845 98H181c-45.8 0-83 37.2-83 83v664c0 45.8 37.2 83 83 83h664c45.8 0 83-37.2 83-83V181c0-45.8-37.2-83-83-83zM253.6 729c57-21.9 105-47.6 144-77.1l37.1 33.5c-39.8 33.5-88.8 62.7-147 87.8L253.6 729z m293.5-9.5c0 39-20.3 58.6-61 58.6h-53.8L421 727.8c18.7 2 34.5 3 47.2 3 15.9 0 23.9-8 23.9-23.9v-68.1H255.4v-48.4h515.1v48.4H547.1v80.7z m-231.9-162v-46.6H715v46.6H315.2z m421.9 215.8c-31.1-26.3-75.9-55.2-134.5-86.7l37.6-35.9c52.2 26.7 97.6 54.4 136.3 83.1l-39.4 39.5z m43-476.3H604.4v38.8h132.7v139.8H288.9V335.8h132.7V297H245.9v-49h534.3v49z" p-id="8370" fill="#1296db"></path><path d="M475.9 382.4h74.7V429h-74.7z" p-id="8371" fill="#1296db"></path></svg>