<?xml version="1.0" standalone="no"?><!DOCTYPE svg PUBLIC "-//W3C//DTD SVG 1.1//EN" "http://www.w3.org/Graphics/SVG/1.1/DTD/svg11.dtd"><svg t="1510653773209" class="icon" style="" viewBox="0 0 1024 1024" version="1.1" xmlns="http://www.w3.org/2000/svg" p-id="11106" xmlns:xlink="http://www.w3.org/1999/xlink" width="200" height="200"><defs><style type="text/css"></style></defs><path d="M929.714286 91.428571c-36.571429-36.571429-85.714286-58.285714-140.571429-58.285714-56 0-105.142857 21.714286-141.714286 58.285714-35.428571 35.428571-58.285714 85.714286-58.285714 140.571429s22.857143 105.142857 58.285714 140.571429c36.571429 36.571429 85.714286 59.428571 141.714286 59.428571 54.857143 0 104-22.857143 140.571429-59.428571 35.428571-35.428571 58.285714-85.714286 58.285714-140.571429s-22.857143-105.142857-58.285714-140.571429z" fill="#ffcf1c" p-id="11107"></path><path d="M789.142857 3.428571c62.857143 0 120 25.142857 161.142857 66.285715 42.285714 42.285714 67.428571 99.428571 67.428572 162.285714s-25.142857 121.142857-67.428572 162.285714c-41.142857 41.142857-98.285714 67.428571-161.142857 67.428572-64 0-121.142857-26.285714-162.285714-67.428572s-67.428571-99.428571-67.428572-162.285714 26.285714-120 67.428572-162.285714c41.142857-41.142857 98.285714-66.285714 162.285714-66.285715zM207.428571 0h228.571429c8 0 14.857143 3.428571 19.428571 8 5.714286 5.714286 8 12.571429 8 19.428571v409.142858c0 6.857143-2.285714 14.857143-8 19.428571-4.571429 4.571429-11.428571 8-19.428571 8H33.714286c-6.857143 0-13.714286-3.428571-19.428572-8-4.571429-4.571429-8-12.571429-8-19.428571V201.142857c0-56 22.857143-105.142857 59.428572-141.714286S151.428571 0 207.428571 0z m226.285715 29.714286H207.428571c-46.857143 0-90.285714 19.428571-121.142857 50.285714s-50.285714 74.285714-50.285714 121.142857v233.142857h397.714286V29.714286zM207.428571 994.285714h226.285715V589.714286H36v233.142857c0 48 19.428571 90.285714 50.285714 121.142857s74.285714 50.285714 121.142857 50.285714z m228.571429 29.714286H207.428571c-56 0-105.142857-22.857143-141.714285-58.285714-36.571429-36.571429-59.428571-86.857143-59.428572-142.857143V588.571429c0-8 3.428571-14.857143 8-20.571429 5.714286-4.571429 12.571429-8 19.428572-8h402.285714c8 0 14.857143 3.428571 19.428571 8 5.714286 5.714286 8 12.571429 8 20.571429v408c0 8-2.285714 14.857143-8 19.428571-4.571429 5.714286-11.428571 8-19.428571 8z m380.571429 0H588c-8 0-14.857143-2.285714-20.571429-8-4.571429-4.571429-8-11.428571-8-19.428571V588.571429c0-8 3.428571-14.857143 8-20.571429 5.714286-4.571429 12.571429-8 20.571429-8h401.142857c8 0 14.857143 3.428571 20.571429 8 4.571429 5.714286 8 12.571429 8 20.571429v234.285714c0 56-22.857143 106.285714-59.428572 142.857143-36.571429 35.428571-86.857143 58.285714-141.714285 58.285714z m-227.428572-29.714286h227.428572c46.857143 0 90.285714-19.428571 121.142857-50.285714s50.285714-73.142857 50.285714-121.142857V589.714286H589.142857v404.571428zM929.714286 91.428571c-36.571429-36.571429-85.714286-58.285714-140.571429-58.285714-56 0-105.142857 21.714286-141.714286 58.285714-35.428571 35.428571-58.285714 85.714286-58.285714 140.571429s22.857143 105.142857 58.285714 140.571429c36.571429 36.571429 85.714286 59.428571 141.714286 59.428571 54.857143 0 104-22.857143 140.571429-59.428571 35.428571-35.428571 58.285714-85.714286 58.285714-140.571429s-22.857143-105.142857-58.285714-140.571429z" fill="#2a2a2a" p-id="11108"></path></svg>