<?xml version="1.0" standalone="no"?><!DOCTYPE svg PUBLIC "-//W3C//DTD SVG 1.1//EN" "http://www.w3.org/Graphics/SVG/1.1/DTD/svg11.dtd"><svg t="1510729026105" class="icon" style="" viewBox="0 0 1024 1024" version="1.1" xmlns="http://www.w3.org/2000/svg" p-id="14930" xmlns:xlink="http://www.w3.org/1999/xlink" width="200" height="200"><defs><style type="text/css"></style></defs><path d="M680.997995 505.947144 305.296241 505.947144c-10.247388 0-18.554588-8.3072-18.554588-18.554588s8.3072-18.554588 18.554588-18.554588l375.702778 0c10.247388 0 18.554588 8.3072 18.554588 18.554588S691.245384 505.947144 680.997995 505.947144z" p-id="14931" fill="#bfbfbf"></path><path d="M680.997995 635.878378 305.296241 635.878378c-10.247388 0-18.554588-8.3072-18.554588-18.554588s8.3072-18.554588 18.554588-18.554588l375.702778 0c10.247388 0 18.554588 8.3072 18.554588 18.554588S691.245384 635.878378 680.997995 635.878378z" p-id="14932" fill="#bfbfbf"></path><path d="M493.146607 766.03781 305.296241 766.03781c-10.375302 0-18.784832-8.410554-18.784832-18.784832s8.410554-18.784832 18.784832-18.784832l187.851389 0c10.374278 0 18.784832 8.410554 18.784832 18.784832S503.521908 766.03781 493.146607 766.03781z" p-id="14933" fill="#bfbfbf"></path><path d="M511.933485 177.277566c10.132778 0 18.377556 8.243755 18.377556 18.376533 0 10.133801-8.243755 18.378579-18.377556 18.378579s-18.377556-8.244778-18.377556-18.378579C493.556952 185.521321 501.800707 177.277566 511.933485 177.277566M511.933485 140.52143c-30.448476 0-55.132668 24.683169-55.132668 55.132668 0 30.448476 24.683169 55.134715 55.132668 55.134715s55.132668-24.685215 55.132668-55.134715C567.066153 165.205623 542.382984 140.52143 511.933485 140.52143L511.933485 140.52143z" p-id="14934" fill="#bfbfbf"></path><path d="M723.685213 344.162434 300.18278 344.162434c-5.26184 0-10.282181-2.211365-13.834076-6.093788-3.551896-3.882424-5.308913-9.078773-4.841262-14.320147l11.248182-126.155235c0.862647-9.671267 8.965186-17.083074 18.675338-17.083074l63.158459 0c3.869121-30.693046 17.245779-58.594513 38.623669-79.972403 25.660426-25.660426 60.71992-39.792285 98.721419-39.792285 38.002522 0 73.062016 14.131859 98.722442 39.792285 21.378913 21.37789 34.754548 49.28038 38.622646 79.972403l65.033156 0c9.815553 0 17.97028 7.570419 18.696828 17.359366l9.373485 126.155235c0.38681 5.199419-1.410116 10.32516-4.957919 14.146185S728.898959 344.162434 723.685213 344.162434zM320.677557 306.665425l382.814756 0-6.588045-88.657202-65.206094 0c-10.354835 0-18.749016-8.394181-18.749016-18.749016 0-57.588603-43.427068-101.015671-101.015671-101.015671-57.58758 0-101.015671 43.427068-101.015671 101.015671 0 10.354835-8.394181 18.749016-18.749016 18.749016l-63.587224 0L320.677557 306.665425z" p-id="14935" fill="#bfbfbf"></path><path d="M741.332129 958.602547 282.535865 958.602547c-49.257867 0-89.332585-40.075741-89.332585-89.334631L193.20328 304.5963c0-49.25889 40.074717-89.333608 89.332585-89.333608l8.134261 0c10.354835 0 18.749016 8.394181 18.749016 18.749016s-8.394181 18.749016-18.749016 18.749016l-8.134261 0c-28.581965 0-51.834552 23.25361-51.834552 51.836599l0 564.671617c0 28.582989 23.25361 51.835575 51.834552 51.835575l458.796264 0c28.581965 0 51.833529-23.25361 51.833529-51.835575L793.165658 304.5963c0-28.582989-23.252587-51.836599-51.833529-51.836599l-17.648962 0c-10.354835 0-18.749016-8.394181-18.749016-18.749016s8.394181-18.749016 18.749016-18.749016l17.648962 0c49.257867 0 89.332585 40.074717 89.332585 89.333608l0 564.671617C830.664713 918.526807 790.589996 958.602547 741.332129 958.602547z" p-id="14936" fill="#bfbfbf"></path></svg>