<?xml version="1.0" standalone="no"?><!DOCTYPE svg PUBLIC "-//W3C//DTD SVG 1.1//EN" "http://www.w3.org/Graphics/SVG/1.1/DTD/svg11.dtd"><svg t="1513157338070" class="icon" style="" viewBox="0 0 1024 1024" version="1.1" xmlns="http://www.w3.org/2000/svg" p-id="11113" xmlns:xlink="http://www.w3.org/1999/xlink" width="200" height="200"><defs><style type="text/css"></style></defs><path d="M857.0481 671.350513c-13.209882-10.248271-59.733333-6.600684-83.962599-6.391486-0.01946-52.119498-18.4374-89.392018-40.382517-119.972634l-16.268795-19.172026c-7.324363-9.122007-15.882022-18.515241-24.985785-25.8542l-38.640821-36.60114-2.033599-2.324287c10.557203-6.466895 18.735386-19.298518 25.856632-29.340023 26.373546-37.187381 46.457773-99.354466 28.471608-160.350285-19.358115-65.648043-63.65458-108.835272-124.925275-132.753174-11.896313-4.64371-25.199848-7.734246-39.222197-10.457469l-18.593083-1.742911-18.88377-0.581376c-18.273204 2.714709-34.319422 2.736602-49.679666 7.262334-66.596731 19.622045-112.553402 62.631699-136.547928 124.91068-23.827898 61.849639-5.074268 132.163284 24.113721 173.421513 5.270087 7.449639 17.936298 25.559863 25.565944 29.340023-1.549525 4.462486-9.210794 9.607298-12.782972 12.491068l-33.41087 31.953782c-37.174002 37.164272-77.111365 84.918586-75.826986 159.768909H195.809636c-7.252604 0-16.394071-1.0168-22.660281 0.581376-6.376891 1.627366-12.720943 5.326036-16.268796 9.877309-2.200228 2.820525-4.371266 6.436488-5.520638 10.165564-5.878221 19.082022 8.98092 32.701786 22.37081 36.020981 7.432611 1.842645 18.273204 0.689624 26.728696 0.581376v70.588521c-0.001216 11.537514-1.32938 25.890688 2.613759 33.696693 4.612087 9.130521 12.744052 14.347092 24.695097 16.267579 9.349449 1.50209 16.83436-3.631775 21.498746-7.262334 10.946408-8.518738 10.461117-22.605549 10.458684-42.41125v-70.879209h499.123376v68.84561c0 11.302775-1.379247 25.705815 2.033599 33.987381 4.165716 10.107184 12.825542 15.742151 25.276473 17.718586 10.240973 1.62615 17.678449-4.357887 22.660281-8.423869 9.688788-7.909388 9.299582-21.621589 9.298366-39.506804V722.1832c16.088788 0.152033 29.850855 0.383124 38.639604-6.39027 13.721931-10.576663 14.170734-33.6748 0.290688-44.442417zM366.640499 302.71927c1.783048-8.997948 3.302166-17.955758 6.391486-25.852983 16.125276-41.216876 44.753782-69.026834 85.996199-85.113189 8.473736-3.304599 17.939947-5.015887 27.599544-6.971646l13.945724-1.452224c70.873128-0.189738 117.987685 33.526416 139.452375 82.207526 8.867807 20.114633 16.95477 51.287571 10.459902 80.465831-2.439833 10.953706-5.205625 21.170353-9.298366 30.501558-16.047434 36.603573-47.154694 64.380692-87.156518 76.980008-10.21908 3.218244-21.031699 4.38951-32.829495 6.390269-21.350361 3.623261-46.651159-2.939719-61.301102-8.134397-43.204257-15.314025-74.270163-45.863018-88.31927-90.341923-4.801824-15.196047-8.877537-38.80745-4.940479-58.67883z m347.177499 362.239757H304.176645c0.113113-42.787077 16.328392-70.559331 35.153781-94.698594l16.268796-17.719802c8.478601-10.523147 19.702319-21.452528 30.214519-29.920183l29.343671-27.306423a128308.080578 128308.080578 0 0 0 18.883771 8.423869c13.015279 5.148461 27.222501 8.37157 42.417332 11.329533 34.329152 6.682174 76.106727 0.677461 101.974306-9.295933l24.113721-10.457469c14.136678 13.264614 28.279437 26.531661 42.416116 39.797492 7.939795 6.381756 15.694717 14.424933 22.080121 22.368377 22.753934 28.30133 47.861345 55.247739 46.775219 107.479133z" fill="#2395ff" p-id="11114"></path></svg>