<?xml version="1.0" standalone="no"?><!DOCTYPE svg PUBLIC "-//W3C//DTD SVG 1.1//EN" "http://www.w3.org/Graphics/SVG/1.1/DTD/svg11.dtd"><svg t="1513240152376" class="icon" style="" viewBox="0 0 1024 1024" version="1.1" xmlns="http://www.w3.org/2000/svg" p-id="9982" xmlns:xlink="http://www.w3.org/1999/xlink" width="200" height="200"><defs><style type="text/css"></style></defs><path d="M289.536 113.664h82.176c31.744 0 57.344-25.344 57.344-56.832S403.2 0 371.712 0h-82.176c-31.744 0-57.344 25.344-57.344 56.832-0.256 31.488 25.6 56.832 57.344 56.832z m578.56 254.208h0.256l-0.512-0.256c-8.704-9.984-14.336-13.312-28.928-20.992L525.568 171.52H231.936l-72.448 193.28c-7.68 16.64-10.496 28.672-10.496 41.984v557.312c0 33.024 27.136 59.904 60.416 59.904h610.304c33.28 0 60.416-26.88 60.416-59.904V406.784c0-14.848-2.816-28.416-12.032-38.912z m-120.32 532.224c-0.256 25.6-20.992 46.336-46.592 46.08H327.936c-6.656 0-13.312-1.536-19.2-4.096-13.312-6.144-22.016-19.712-22.016-34.56v-0.256c0-203.776 71.68-348.416 250.112-423.168 2.816 2.56 210.944 118.016 210.944 118.016v297.984z m29.952-416.768c-9.472 16.128-30.208 21.504-46.336 12.032l-197.12-113.664c-16.128-9.216-21.504-29.696-12.544-45.568 0 0 0-0.256 0.256-0.256 9.472-16.128 30.208-21.504 46.336-12.032l197.376 113.664c16.128 9.216 21.504 29.696 12.544 45.568-0.256 0-0.256 0.256-0.512 0.256z" fill="#2395ff" p-id="9983"></path></svg>