<?xml version="1.0" standalone="no"?><!DOCTYPE svg PUBLIC "-//W3C//DTD SVG 1.1//EN" "http://www.w3.org/Graphics/SVG/1.1/DTD/svg11.dtd"><svg t="1513137023705" class="icon" style="" viewBox="0 0 1024 1024" version="1.1" xmlns="http://www.w3.org/2000/svg" p-id="4758" xmlns:xlink="http://www.w3.org/1999/xlink" width="32" height="32"><defs><style type="text/css"></style></defs><path d="M701.82470698 127.40219692v-34.71080254c0-34.71080256-35.79551538-39.04965382-67.25218331-39.04965386H376.41092438s-55.32034229 4.3388513-55.32034225 39.04965386v34.71080254s-80.2687333-1.08471281-148.60562753 0c-52.06620574 10.84712629-68.3368942 29.28724036-68.33689423 84.60758456v644.3192883c0 50.98149293 14.10126474 65.08275577 71.59103077 65.08275573h318.90550759c45.55792885 0 36.88022821-60.74390638 0-60.74390636H165.97667767v-672.52181582h155.11390446c-1.08471281 63.99804292 27.11781475 54.23562949 55.32034225 54.23563138s236.46734865-2.16942563 269.00872559 0c33.62609165 2.16942563 55.32034229-16.27068846 56.40505701-54.23563138h156.19861535s-5.42356217 347.10803323 0 365.54814923 58.57448076 37.96494102 62.9133301 0c4.3388513-37.96494102 0-284.19470313 0-341.68447108s-14.10126474-84.60758266-71.59103264-84.60758456h-147.52091281z m-56.40505701 62.91333204H376.41092438V108.96208283h269.00872559v81.35344613zM278.78678981 563.45666599h186.57056854v60.74390642H278.78678981v-60.74390642z m465.34170757-126.91137495H278.78678981v-63.99804484h464.25699473v63.99804484z" p-id="4759" fill="#1296db"></path><path d="M810.29596594 899.71757294l11.93183909-46.64264164 46.64264167-13.01655191 48.81206729 48.8120673c7.59298782-28.20252756 0-60.74390638-23.86367629-82.43815703-21.69425257-21.69425257-54.23562949-29.28724036-83.52287176-20.60953974l-109.55597177-107.38654807c7.59298782-29.28724036 0-60.74390638-21.69425256-82.43815894s-54.23562949-29.28724036-82.43815895-20.60953781l48.81206731 48.81206731-11.9318372 46.64264164-46.64264355 13.01655003-48.8120673-48.81206731c-7.59298782 28.20252756 0 60.74390638 21.69425255 82.43815893 23.86367819 23.86367819 57.48976793 29.28724036 86.77700831 20.60953976l107.38654805 105.21712237c-8.67770063 29.28724036-1.08471281 62.91333203 21.69425256 86.7770083 21.69425257 21.69425257 54.23562949 29.28724036 82.43815894 20.60953975l-47.72735639-50.98149294z" p-id="4760" fill="#1296db"></path></svg>