<?xml version="1.0" standalone="no"?><!DOCTYPE svg PUBLIC "-//W3C//DTD SVG 1.1//EN" "http://www.w3.org/Graphics/SVG/1.1/DTD/svg11.dtd"><svg t="1513240276278" class="icon" style="" viewBox="0 0 1048 1024" version="1.1" xmlns="http://www.w3.org/2000/svg" p-id="10447" xmlns:xlink="http://www.w3.org/1999/xlink" width="204.6875" height="200"><defs><style type="text/css"></style></defs><path d="M689.027 436.783c0-14.016-11.356-25.327-25.323-25.327H211.291c-13.969 0-25.326 11.31-25.326 25.327s11.357 25.324 25.326 25.324h452.413c13.967 0.001 25.323-11.306 25.323-25.324zM495.018 603.614c0-14.017-11.36-25.326-25.327-25.326h-258.4c-13.969 0-25.326 11.309-25.326 25.326s11.357 25.327 25.326 25.327H469.69c13.97 0.001 25.329-11.308 25.329-25.327zM211.244 295.277h452.41c14.017 0 25.325-11.309 25.325-25.325 0-14.018-11.355-25.328-25.326-25.328H211.244c-13.97 0-25.325 11.31-25.325 25.328-0.001 14.015 11.354 25.325 25.325 25.325zM211.339 745.17c-13.97 0-25.326 11.307-25.326 25.323 0 14.018 11.355 25.327 25.326 25.327h179.328c13.97 0 25.327-11.31 25.327-25.327 0-14.016-11.358-25.323-25.327-25.323H211.339zM915.875 775.673c0-14.014-11.36-25.323-25.326-25.323H818.37V645.955c0-14.018-11.359-25.327-25.326-25.327-13.973 0-25.328 11.309-25.328 25.327v155.094h122.833c13.967-0.001 25.326-11.358 25.326-25.376z" p-id="10448" fill="#2395ff"></path><path d="M168.145 976.672h374.577c14.018 0 25.373-11.358 25.373-25.375s-11.355-25.323-25.324-25.323H168.145c-33.546 0-60.868-27.278-60.868-60.824V175.297c0-33.548 27.275-60.869 60.868-60.869h538.796c33.547 0 60.822 27.323 60.822 60.87v261.487c0 14.016 11.358 25.323 25.326 25.323 13.97 0 25.325-11.307 25.325-25.323V175.297c0-61.488-50.035-111.57-111.52-111.57H168.144c-61.533 0-111.57 50.082-111.57 111.57V865.15c0 61.486 50.086 111.522 111.57 111.522z" p-id="10449" fill="#2395ff"></path><path d="M793.044 976.672c124.922 0 226.561-101.64 226.561-226.562s-101.638-226.561-226.56-226.561c-124.924 0-226.513 101.638-226.513 226.56s101.636 226.563 226.512 226.563z m0-402.422c96.98 0 175.858 78.877 175.858 175.86 0 96.984-78.877 175.861-175.858 175.861-96.935 0-175.814-78.877-175.814-175.861s78.88-175.86 175.814-175.86z" p-id="10450" fill="#2395ff"></path></svg>