<?xml version="1.0" standalone="no"?><!DOCTYPE svg PUBLIC "-//W3C//DTD SVG 1.1//EN" "http://www.w3.org/Graphics/SVG/1.1/DTD/svg11.dtd"><svg t="1513239140075" class="icon" style="" viewBox="0 0 1024 1024" version="1.1" xmlns="http://www.w3.org/2000/svg" p-id="7021" xmlns:xlink="http://www.w3.org/1999/xlink" width="200" height="200"><defs><style type="text/css"></style></defs><path d="M813.833112 795.508921a31.958694 31.958694 0 0 0-21.72829 8.745637 30.473927 30.473927 0 0 0-8.96292 21.72829v112.643078a24.082188 24.082188 0 0 1-24.100295 24.100295H84.903294a24.082188 24.082188 0 0 1-24.100295-24.100295V84.903294a24.082188 24.082188 0 0 1 24.100295-24.100295h674.337489a24.082188 24.082188 0 0 1 24.100295 24.100295v105.164925a30.473927 30.473927 0 0 0 46.299365 28.156243 30.075575 30.075575 0 0 0 14.485527-28.156243V76.37494A76.574116 76.574116 0 0 0 767.75103 0H76.37494A76.429261 76.429261 0 0 0 0 76.37494v871.232013a76.574116 76.574116 0 0 0 76.37494 76.37494h691.683907a76.574116 76.574116 0 0 0 76.374941-76.37494v-121.605998a30.492034 30.492034 0 0 0-30.600676-30.492034z m0 0" fill="#2395ff" p-id="7022"></path><path d="M1003.720262 408.745354l-12.801584-30.510141-111.991229 107.971496a54.519902 54.519902 0 0 1-38.404753 15.137375 55.986561 55.986561 0 0 1-38.622036-15.137375 52.075469 52.075469 0 0 1-15.227911-37.37266c0-14.286351 5.124255-26.888759 15.155483-35.616289l111.792053-107.953389-32.139762-12.801584a247.340371 247.340371 0 0 0-85.971602-16.640249c-60.368433 0-115.630718 22.180963-157.874136 63.13879a209.189115 209.189115 0 0 0-49.920747 230.826871L374.613831 776.098315a88.216859 88.216859 0 0 0-26.888759 61.563489 83.653918 83.653918 0 0 0 26.888759 61.654024 90.154298 90.154298 0 0 0 64.007922 25.820451 91.095857 91.095857 0 0 0 64.007922-25.820451l213.951231-206.201475a245.258076 245.258076 0 0 0 80.630064 14.286351c60.368433 0 115.630718-21.96368 157.874136-63.13879 63.790639-62.722331 83.617704-154.886496 48.635156-235.51656z m-79.435007 202.399024a183.966191 183.966191 0 0 1-202.670628 33.497781l-14.087175-6.192563-237.56264 226.807137a46.172617 46.172617 0 0 1-63.156897 0 40.994041 40.994041 0 0 1 0-59.517409l237.453999-228.255689-6.192563-14.087175a163.632133 163.632133 0 0 1 34.982547-192.6394 182.119286 182.119286 0 0 1 125.661946-50.13803c11.298711 0 21.96368 1.502873 33.49778 2.353898l-60.169257 56.40302a93.395434 93.395434 0 0 0-29.858292 67.846587c0 25.820452 9.813944 50.13803 29.858292 67.828479a100.764946 100.764946 0 0 0 70.616944 28.156243c27.160363 0 50.989055-10.031227 70.616943-28.156243l60.368433-57.815359a174.369529 174.369529 0 0 1-49.359432 153.908723z m0 0" fill="#2395ff" p-id="7023"></path><path d="M438.603646 928.015278c-25.603169 0-49.069722-9.379379-66.343713-26.88876a86.677771 86.677771 0 0 1-27.93896-64.007921 91.620957 91.620957 0 0 1 27.93896-64.207098l211.416265-204.82535a212.031899 212.031899 0 0 1 51.840079-232.528919 226.734709 226.734709 0 0 1 160.209927-63.989815 251.50496 251.50496 0 0 1 87.039909 16.857532l36.90188 14.720916-3.621382 3.621382-111.792053 107.935282a42.69609 42.69609 0 0 0-14.087175 33.280498 47.820346 47.820346 0 0 0 14.087175 34.783371 52.021148 52.021148 0 0 0 36.213817 14.069068 51.13391 51.13391 0 0 0 36.050855-14.069068l115.413435-111.357488 14.720917 34.982548c35.19983 81.481089 15.789224 175.365409-49.287006 239.156048a228.5454 228.5454 0 0 1-160.209926 64.007922 252.681909 252.681909 0 0 1-79.797147-13.652609L504.947359 900.673846a93.105724 93.105724 0 0 1-66.343713 27.341432z m356.706099-649.168886c-59.318232 0-114.345128 22.180963-155.302955 62.070482a205.096953 205.096953 0 0 0-49.287005 227.205489l0.851025 2.136615-1.70205 1.70205-213.13642 206.255795a85.211112 85.211112 0 0 0-25.802345 59.263912 80.467102 80.467102 0 0 0 25.820451 59.100949 86.713985 86.713985 0 0 0 61.871307 24.95132 89.683518 89.683518 0 0 0 61.871307-24.752144l215.435998-207.776775 1.919332 0.633741a244.660549 244.660549 0 0 0 79.579863 14.087175c59.300126 0 114.345128-22.180963 155.302955-62.070482 63.156897-61.61781 82.006189-152.496384 47.784132-231.496826l-10.864146-26.019628-108.387954 104.603611a58.249925 58.249925 0 0 1-40.957827 15.9884 60.114936 60.114936 0 0 1-41.17511-15.9884 55.606316 55.606316 0 0 1-16.296218-39.835199c0-15.354658 5.540714-28.789985 16.296218-38.18747l107.935281-104.3139-27.305218-10.864145a238.160168 238.160168 0 0 0-84.468728-16.640249zM438.386363 881.26324a49.015401 49.015401 0 0 1-33.91424-13.435326 45.44834 45.44834 0 0 1-13.869891-31.994908 45.955334 45.955334 0 0 1 13.869891-32.21219l235.951126-226.78903-5.341538-11.95056a166.583559 166.583559 0 0 1 35.706824-196.459957 184.418864 184.418864 0 0 1 127.780453-50.989055h0.217283c8.329178 0 15.9884 0.851025 24.317578 1.502873l9.397486 0.851025 7.677329 0.633742-65.709971 61.436741a89.32138 89.32138 0 0 0-28.590809 65.275405 86.044029 86.044029 0 0 0 28.590809 65.275405 99.243966 99.243966 0 0 0 136.743374 0l64.840839-62.070482 1.068308 6.192563a176.904497 176.904497 0 0 1-50.13803 156.805828 182.408997 182.408997 0 0 1-127.635599 50.970947 179.511892 179.511892 0 0 1-78.710731-17.27399l-11.95056-5.124256-236.367584 225.702616a47.91088 47.91088 0 0 1-33.91424 13.652609z m360.110198-557.222004a178.588439 178.588439 0 0 0-123.126978 49.069722 159.340795 159.340795 0 0 0-34.095309 188.583453l7.242763 16.422966-239.355224 230.392304a39.147136 39.147136 0 0 0-11.787598 27.323325 38.368539 38.368539 0 0 0 11.95056 27.160363 42.569342 42.569342 0 0 0 58.231818 0l239.210369-228.5454 16.296218 7.043588a180.290489 180.290489 0 0 0 199.031139-32.864039 170.20494 170.20494 0 0 0 49.268898-144.1491l-55.678744 53.342953a105.02007 105.02007 0 0 1-72.952735 29.224551 103.08263 103.08263 0 0 1-72.952734-29.224551 92.182271 92.182271 0 0 1-30.781745-70.39966 97.57813 97.57813 0 0 1 30.781745-70.399661l54.610436-50.989054c-0.633742 0-1.285591-0.217283-1.919332-0.217283-7.894612-0.633742-15.571941-1.502873-23.883013-1.502874z m-283.934433-21.329939a27.359539 27.359539 0 0 1-27.305219 27.305218H152.532598a27.305218 27.305218 0 1 1 0-54.610436h334.706205a27.160363 27.160363 0 0 1 27.305218 27.305218z m204.608066-116.481742a27.794105 27.794105 0 0 1-7.894612 19.410606 27.160363 27.160363 0 0 1-19.410606 7.894612H152.532598a27.305218 27.305218 0 1 1 0-54.610437h539.296164a27.812212 27.812212 0 0 1 19.410606 7.894613 28.771878 28.771878 0 0 1 7.894613 19.410606zM378.01793 412.366736a27.812212 27.812212 0 0 1-7.804078 19.410606 27.160363 27.160363 0 0 1-19.410605 7.894612H152.532598a27.305218 27.305218 0 1 1 0-54.610436h198.180114a27.794105 27.794105 0 0 1 19.50114 7.894612 27.431966 27.431966 0 0 1 7.894613 19.410606z m0 0" fill="#2395ff" p-id="7024"></path></svg>