<?xml version="1.0" standalone="no"?><!DOCTYPE svg PUBLIC "-//W3C//DTD SVG 1.1//EN" "http://www.w3.org/Graphics/SVG/1.1/DTD/svg11.dtd"><svg t="1513240050467" class="icon" style="" viewBox="0 0 1024 1024" version="1.1" xmlns="http://www.w3.org/2000/svg" p-id="9127" xmlns:xlink="http://www.w3.org/1999/xlink" width="200" height="200"><defs><style type="text/css"></style></defs><path d="M512 454.208 587.456 454.208 512 369.664Z" p-id="9128" fill="#2395ff"></path><path d="M483.072 454.208 483.072 367.424 309.568 367.424c-15.936 0-28.864 12.928-28.864 28.928l0 375.936c0 16 12.928 28.864 28.864 28.864l260.224 0c16 0 28.928-12.864 28.928-28.864L598.72 483.072 512 483.072C496.064 483.072 483.072 470.144 483.072 454.208zM352.96 454.208l57.856 0c8 0 14.464 6.464 14.464 14.464 0 8-6.464 14.464-14.464 14.464L352.96 483.136c-7.936 0-14.464-6.464-14.464-14.464C338.496 460.672 345.024 454.208 352.96 454.208zM468.608 743.296 352.96 743.296c-7.936 0-14.464-6.464-14.464-14.464s6.528-14.528 14.464-14.528l115.712 0c8 0 14.464 6.528 14.464 14.528S476.608 743.296 468.608 743.296zM526.464 656.576 352.96 656.576c-7.936 0-14.464-6.464-14.464-14.464s6.528-14.528 14.464-14.528l173.504 0c8 0 14.528 6.528 14.528 14.528S534.464 656.576 526.464 656.576zM540.928 555.392c0 8-6.528 14.464-14.528 14.464L352.96 569.856c-7.936 0-14.464-6.464-14.464-14.464 0-8 6.528-14.464 14.464-14.464l173.504 0C534.464 540.928 540.928 547.392 540.928 555.392z" p-id="9129" fill="#2395ff"></path><path d="M682.688 0 341.312 0C152.832 0 0 152.832 0 341.312l0 341.312C0 871.168 152.832 1024 341.312 1024l341.376 0C871.168 1024 1024 871.168 1024 682.624L1024 341.312C1024 152.832 871.168 0 682.688 0zM627.712 772.224c0 31.872-25.92 57.792-57.856 57.792L309.568 830.016c-31.872 0-57.728-25.92-57.728-57.792L251.84 396.352c0-31.936 25.856-57.856 57.728-57.856l216.896 0 101.248 115.712L627.712 772.224zM772.16 627.648c0 32-25.856 57.856-57.728 57.856l-43.392 0c-8 0-14.528-6.528-14.528-14.528 0-7.936 6.528-14.464 14.528-14.464l43.392 0c15.936 0 28.864-12.928 28.864-28.928L743.296 338.496l-86.72 0c-15.936 0-28.864-12.928-28.864-28.928L627.712 222.848 454.208 222.848c-16 0-28.928 12.992-28.928 28.928l0 43.392c0 8-6.464 14.464-14.464 14.464S396.288 303.104 396.288 295.168L396.288 251.776c0-31.936 25.92-57.792 57.856-57.792l216.896 0 101.12 115.648L772.16 627.648z" p-id="9130" fill="#2395ff"></path><path d="M656.576 309.568 731.968 309.568 656.576 225.088Z" p-id="9131" fill="#2395ff"></path></svg>