<?xml version="1.0" standalone="no"?><!DOCTYPE svg PUBLIC "-//W3C//DTD SVG 1.1//EN" "http://www.w3.org/Graphics/SVG/1.1/DTD/svg11.dtd"><svg t="1512982814420" class="icon" style="" viewBox="0 0 1024 1024" version="1.1" xmlns="http://www.w3.org/2000/svg" p-id="3407" xmlns:xlink="http://www.w3.org/1999/xlink" width="64" height="64"><defs><style type="text/css"></style></defs><path d="M316.883143 284.217664c-4.416207 4.054963-8.904662 8.037677-13.24862 12.164888-18.974335 18.017039-35.013564 38.409257-48.4699 60.797347-50.547052 84.097578-59.758771 192.606212-10.846347 289.961441 14.269134 28.402801 32.791914 53.843402 55.207098 76.448239 87.637768 88.387349 228.676415 117.61198 351.038752 54.285926 26.704955-13.817579 50.655425-31.527561 72.113312-52.642266C817.133685 632.32131 840.433916 484.2655 773.459298 365.578819c-12.381634-21.945566-26.948794-42.265535-44.405905-60.40901-45.200642-46.970737-99.965216-76.276648-164.013758-88.206727-4.461362-0.82183-8.913693-2.212619-13.555678-1.435945a2.239712 2.239712 0 0 1-1.381757-0.180622c-3.305382-1.878468-7.017163-1.553349-10.566384-1.869437-63.082215-5.617343-122.145591 7.342282-177.135943 38.725346a280.65038 280.65038 0 0 0-31.365001 20.681212c-0.930203 0.704426-1.995873 1.544318-2.38421 2.555801-0.587021 1.526255-1.417882 1.97781-2.9622 2.474521-3.86531 1.255323-4.208491 2.266805-3.431817 6.511421 0.090311 0.469617 0.334151 0.939234 0.307058 1.39982-0.018062 0.370275-0.343182 0.722488-0.505742 1.038576-2.212619 0.587021-2.619018-1.869437-5.174818-2.646111z m17.818355 3.386661a524.471945 524.471945 0 0 1 20.374155-14.973559c3.531159-2.474521 7.432593-4.434269 11.144374-6.655919a281.490272 281.490272 0 0 1 80.069709-32.385515c36.286949-8.56148 72.926111-10.04258 109.754926-4.082056 64.229164 10.403824 118.948583 39.113682 163.878291 86.210855a276.5322 276.5322 0 0 1 45.570917 63.9492c56.751416 109.592366 35.754114 234.907872-36.973312 319.122855a284.804685 284.804685 0 0 1-47.142328 43.493764 281.743143 281.743143 0 0 1-47.73838 28.456988c-52.26296 24.383963-107.063659 32.683541-164.122132 23.923377C403.870672 784.58561 348.148801 755.180357 302.632071 706.773676c-18.242817-19.398797-33.261531-41.163742-45.327077-64.978745-27.418411-54.114335-36.810753-111.181839-28.213148-171.157357 6.25855-43.656324 22.072002-83.691179 46.83527-120.176812 2.826733-4.172367 5.779902-8.272485 8.769196-12.327447a6.737199 6.737199 0 0 0 1.255322-4.813575c1.715908-0.785705 3.323444-1.047607 4.163336-1.995873 3.657594-4.127211 7.098442-8.453107 10.250296-12.273261 0.424462-2.203588-1.381758-4.154305 0.469617-5.292223 1.291447-0.794737 3.097666-0.758612 5.978586-1.363696 2.862858-2.700298 6.872665-6.150177 10.467042-9.970331 5.274161-5.59928 11.388214-10.159984 17.420987-14.820031z" fill="#F29736" p-id="3408"></path><path d="M337.663697 613.979151c56.083114 97.147514 180.305858 130.427107 277.444341 74.343993 97.138483-56.083114 130.427107-180.305858 74.343993-277.444341-56.083114-97.147514-180.305858-130.427107-277.44434-74.343993s-130.427107 180.296827-74.343994 277.444341z m338.828709-195.622599c51.955903 89.985854 21.123737 205.051065-68.862117 257.006967s-205.051065 21.123737-257.006967-68.862117-21.123737-205.051065 68.862117-257.006967 205.051065-21.123737 257.006967 68.862117zM290.584587 556.893585l1.463038 5.716684-35.591555 9.13044-1.580442-6.141146 11.966204-3.070574-1.959748-7.649339-16.824934 4.325896 9.70843 37.831266 16.824934-4.316864-1.968779-7.640309-11.966204 3.061542-1.571411-6.150177 35.591554-9.130439 1.472069 5.716684 5.554125-1.426913-5.554125-21.683665zM270.327836 545.776304c8.127988-0.568959 14.115605-2.38421 17.917697-5.481876 3.811123-3.097666 5.508969-7.595153 5.10257-13.501491-0.776674-11.487556-9.238813-16.689468-25.386415-15.578642-8.218299 0.550897-14.296227 2.474521-18.233785 5.76184-3.937558 3.287319-5.716685 7.685464-5.337379 13.149277 0.24384 3.630501 1.372727 6.683012 3.404724 9.175595 2.013935 2.483552 4.912917 4.271709 8.687916 5.373503 3.78403 1.092763 8.398921 1.463038 13.844672 1.101794z m-19.66973-16.075353c-0.16256-2.275837 1.011483-3.883372 3.513097-4.813575 2.492583-0.939234 7.459686-1.661722 14.90131-2.149401 6.809447-0.487679 11.478525-0.388337 14.016263 0.25287s3.86531 2.050059 4.009808 4.226554c0.153529 2.248743-0.975359 3.86531-3.395693 4.831637-2.420334 0.975359-7.053287 1.706877-13.90789 2.176494-6.899758 0.460586-11.776551 0.433493-14.621346-0.108373s-4.343958-1.995873-4.515549-4.416206zM256.645723 453.333992l34.625228 9.907114-1.56238 5.490907 5.508969 1.580442 4.569735-15.948918c1.905562-6.683012 2.239712-12.164888 0.98439-16.436597-1.246291-4.28074-3.874341-6.990069-7.866086-8.127988a10.20514 10.20514 0 0 0-8.471169 1.183074c-2.682236 1.652691-4.831637 4.371051-6.457235 8.173143l-0.117404-0.036124c0.74055-3.513097 0.523804-6.466266-0.650239-8.877569a8.832413 8.832413 0 0 0-5.825058-4.786482c-3.648563-1.047607-7.008132-0.180622-10.096767 2.637081-3.070573 2.808671-5.454783 7.179722-7.152629 13.131215l-4.587797 16.030198 5.508969 1.580442 1.589473-5.499938z m23.914346-9.970332a7.026194 7.026194 0 0 1 3.251195-3.043479c1.4811-0.731519 3.395693-0.758612 5.770871-0.090311 2.673205 0.776674 4.371051 2.158432 5.111601 4.181398 0.731519 2.022966 0.568959 4.903886-0.505741 8.660822l-15.614767-4.461362c0.641208-2.194557 1.300478-3.94659 1.986841-5.247068z m-17.294551-7.206815c1.390789-0.894079 3.332475-0.975359 5.825058-0.270933 2.022966 0.57799 3.386661 1.408851 4.109149 2.492583a5.590249 5.590249 0 0 1 0.90311 3.576314 30.163865 30.163865 0 0 1-1.020514 5.084508l-13.510522-3.86531c1.065669-3.793061 2.30293-6.132115 3.693719-7.017162zM309.94726 391.895437l-4.054963 8.073801 7.920272 3.973683-4.190429 8.344734-14.196885-7.125536 3.395693-6.782354-5.120632-2.582894-3.404724 6.791385-12.869314-6.466266 4.181398-8.344734 7.270034 3.657595 4.054962-8.073801-12.399696-6.222426-15.452208 30.787011 5.129664 2.582893 2.47452-4.930979 32.186831 16.156633-2.465489 4.921948 5.129663 2.573863 15.452207-30.77798zM346.505142 358.959025c4.822606 0.839892 9.374279-0.82183 13.655019-4.958073 3.467941-3.368599 5.201912-7.035225 5.201912-11.026969 0-4.000776-1.706877-7.811899-5.120632-11.43337l-7.802868 5.283192c2.844796 2.926076 4.533611 5.391565 5.048383 7.342283a4.985166 4.985166 0 0 1-1.544318 5.183849c-1.806219 1.752033-3.847247 2.041028-6.132115 0.857955-2.275837-1.192105-6.023742-4.479424-11.270809-9.880021a128.693137 128.693137 0 0 1-7.947366-8.787258c-1.499162-1.932655-2.275837-3.431817-2.339054-4.515548-0.054187-1.074701 0.487679-2.176494 1.625598-3.278289a5.653467 5.653467 0 0 1 5.346409-1.625597c2.013935 0.41543 4.145274 1.770095 6.375955 4.082056l6.493359-6.285644-10.728944-11.072125-6.493359 6.285644 1.607536 1.65269-0.144498 0.153529c-2.763516-0.189653-5.427689 0.948265-7.992521 3.440848-7.306158 7.071349-5.129663 16.599157 6.493359 28.601485 5.617343 5.806996 10.846348 9.130439 15.668954 9.979363zM363.790662 318.147496c4.470393 6.809447 8.985942 11.126312 13.564708 12.941563 4.560704 1.797188 9.320092 1.074701 14.269134-2.176495 9.62715-6.321768 9.997425-16.246944 1.128887-29.766497-4.52458-6.899758-9.184626-11.234685-13.971107-13.058966-4.795513-1.806219-9.491683-1.219198-14.088512 1.797188-3.04348 2.004904-5.138694 4.488455-6.312737 7.468718s-1.31854 6.384986-0.424462 10.214171 2.835765 8.010583 5.834089 12.580318z m4.343958-25.02517c1.914593-1.246291 3.892403-1.011483 5.9244 0.704425s5.093539 5.689591 9.193657 11.93008c3.747905 5.707654 5.960524 9.825834 6.637856 12.327447 0.686363 2.519676 0.117404 4.380082-1.706877 5.572188-1.887499 1.23726-3.847247 1.038576-5.870213-0.577991-2.041028-1.625598-4.94001-5.319316-8.715009-11.063094-3.793061-5.788933-6.159208-10.04258-7.089412-12.788034-0.930203-2.727391-0.388337-4.77745 1.625598-6.105021zM399.896989 275.105286l13.456335 33.41506-4.741326 1.923624 2.131339 5.310285 17.836417-7.16166-2.149401-5.319316-4.696171 1.878468-5.924399-14.72972-6.150178-13.122184 0.279964-0.117404 7.802868 8.380858c2.068121 2.203588 3.937558 4.0369 5.59025 5.490907l15.316741 13.465366 7.730619-3.106697-15.596705-38.743408 4.741326-1.914592-2.149401-5.319317-17.818355 7.170692 2.14037 5.328347 4.705202-1.89653 4.109149 10.232233 6.42111 12.887376-0.279964 0.108373-9.870989-10.972783-14.404601-12.788034-15.379958 6.195333 2.131339 5.328347 4.768419-1.923624zM453.379147 256.745066l6.565608 35.410932-5.319316 1.011483 1.056638 5.626374 21.8101-4.045932-1.047607-5.644436-6.095991 1.128887-2.908013-15.605736 7.667401-1.426913-1.038576-5.635405-7.676432 1.417882-2.619019-14.169791 9.374279-1.72494 1.472069 7.98349 8.8866-1.64366-2.528707-13.636957-33.956926 6.312738 1.038576 5.635404zM497.459933 250.667137l1.273385 35.997954-5.707653 0.198684 0.216746 5.743778 21.963629-0.785706-0.207716-5.725715-5.698622 0.207715-1.282416-36.016016 5.698622-0.198684-0.198684-5.734747-21.981691 0.785705 0.216747 5.734747zM541.576844 288.29972l-5.50897-0.695395 1.995873-15.705078c1.679784 0.216746 3.061542 0.334151 4.154305 0.343182l6.384985 22.740303 12.544195 1.589473 0.722487-5.689592-4.434268-0.559928-5.816027-18.567936c6.204364-1.679784 9.609088-5.003228 10.250295-9.979362 0.487679-3.856279-0.939234-7.179722-4.289771-9.970332-3.350537-2.808671-8.155081-4.596829-14.431693-5.391565l-18.567936-2.366147-0.722488 5.689591 6.25855 0.794737-4.551673 35.736052-6.249519-0.794737-0.722488 5.689591 22.252624 2.826734 0.731519-5.689591z m-0.975359-36.440478c3.955621 0.514773 6.719136 1.372727 8.353765 2.63708 1.625598 1.255323 2.266805 3.20604 1.932655 5.879245-0.32512 2.528707-1.426913 4.253647-3.314413 5.18385-1.887499 0.939234-4.813575 1.15598-8.787257 0.641207l1.81525-14.341382z" fill="#F29736" p-id="3409"></path><path d="M584.980297 298.387455l-5.238036-1.995872 8.588573-22.559681 3.964652-12.119733 0.930203 0.352213-2.944137 18.378283-2.22165 25.259979 2.971231 1.128887 15.994073-22.108126 8.940786-13.998201 0.930203 0.352213-5.292223 11.677209-8.570511 22.505494-5.238037-2.013934-2.050059 5.373502 20.545747 7.820931 2.041028-5.364472-5.337379-2.022966 12.824158-33.676962 5.238037 1.995873 2.050059-5.364472-20.90699-7.965428-5.400596 7.631277a116.501155 116.501155 0 0 0-4.371052 6.619795l-4.208491 6.728167-0.270933-0.099342 1.932655-8.751133c0.514773-2.366147 0.830861-4.271709 0.948265-5.734747l0.876017-10.385762-20.789586-7.920272-2.041028 5.364472 5.247067 2.004903-12.824158 33.667931-5.238036-2.004904-2.05006 5.373503 18.92918 7.197785 2.041028-5.34641zM626.73106 317.343729l-4.596828-3.04348-3.160884 4.786481 28.691796 19.055616 8.06477-12.164888-7.522904-4.985166-4.903886 7.369375-7.766744-5.156756 8.787258-13.230558 6.321768 4.19946 3.178946-4.786481-6.330799-4.190429 7.965428-12.01136 7.775775 5.165788-4.497487 6.773323 7.522904 4.985166 7.676433-11.550774-28.700827-19.046584-3.178947 4.768419 4.596829 3.061542zM660.88667 341.917344l-3.901434-3.811123-4.018838 4.091087 9.852927 9.663274c5.870213 5.779902 11.559805 8.660822 17.068774 8.651792 5.490907 0 11.054063-2.844796 16.662375-8.561481 5.725716-5.834089 8.579542-11.478525 8.570511-16.933307-0.018062-5.463814-3.088635-11.207592-9.22075-17.240365l-9.62715-9.46459-4.018838 4.091087 3.901434 3.829186-25.269011 25.68444z m32.782884-18.26991c1.932655 1.887499 3.007355 3.747905 3.242163 5.59025 0.24384 1.851375-0.361244 3.955621-1.806219 6.330799-1.444976 2.375179-3.910465 5.319316-7.360344 8.841444-4.425238 4.52458-8.06477 7.134567-10.891504 7.866086-2.835765 0.713457-5.635405-0.252871-8.426013-2.935107l25.241917-25.693472zM374.727321 551.203993a60.499321 60.499321 0 0 0 12.453883-8.218298c1.219198-2.077152 1.923624-3.892403 2.104246-5.373503-1.697846-3.54019-8.281516-2.004904-19.760041 4.614891l5.201912 8.97691zM361.22583 538.677861l-5.265129-0.090311c-0.288995 1.914593-2.050059 7.604184-5.256099 17.095868a67.706137 67.706137 0 0 0-1.706877 5.156756 35.63671 35.63671 0 0 1-4.614891 7.342282l9.654243 5.888276c3.612439-2.781578 5.870213-6.683012 6.782354-11.731396 1.083732-8.940786 1.210167-16.833965 0.406399-23.661475z" fill="#F29736" p-id="3410"></path><path d="M397.792743 537.901187c0.41543 0.117404 0.90311 0.361244 1.463038 0.722488 2.9622 2.113277 4.533611 4.849699 4.741326 8.200236 0.568959 2.79964-2.068121 6.050835-7.920272 9.771648-8.344734 4.804544-13.898859 7.838992-16.653344 9.085283l5.870214 10.159985 24.582647-15.22643c6.484328-4.416207 9.970331-6.791385 10.503166-7.089412 12.246168-7.071349 21.656571-12.146826 28.222179-15.244492l-6.556577-11.324996a259.942074 259.942074 0 0 1-23.733724 15.768296c-3.070573 0.722488-5.608311-1.273385-7.65837-6.00568-1.23726-2.754485-0.234809-5.238036 2.998324-7.450655a189.851728 189.851728 0 0 0 16.039229-9.247844l3.910465-2.257774-5.418658-9.374279-5.084508 2.935107c-7.152629 4.461362-11.577867 7.017163-13.302806 7.667401-5.554125 1.815251-10.232233 0.343182-14.025294-4.407175l-6.646888 3.838216c1.210167 2.077152 1.770095 4.876793 1.706877 8.380858-2.402272 9.031097-0.090311 12.742878 6.962976 11.099219zM459.086801 574.441007a54.818761 54.818761 0 0 1-5.075477-6.962976c-0.939234-2.230681-0.388337-4.298802 1.661722-6.16824 1.932655-1.454007 3.088635-2.474521 3.45891-3.043479l-4.298802-7.414531c-5.039352 1.517224-8.173143 2.095215-9.410403 1.770095-0.559928-0.361244-1.381758-1.797188-2.474521-4.307834l-2.483552-4.289771-6.646887 3.829185c1.092763 2.501614 1.354665 5.653467 0.767643 9.446528a17.294551 17.294551 0 0 1-5.003228 7.586122c-2.682236 2.582894-3.585346 4.325896-2.727391 5.210943 1.833313 1.372727 4.407175 1.625598 7.730619 0.758612 3.178946-1.128887 5.653467-1.345633 7.450655-0.650239 0.568959 0.379306 0.776674 0.433493 0.614115 0.171591 2.501614 1.336602 4.741326 3.693719 6.701074 7.071349 2.031997 4.732295 2.826733 7.929303 2.393241 9.554901-3.160884 3.567283-9.347186 6.105022-18.567936 7.595153l0.830861 10.44898c9.031097 0 17.682889-3.079604 25.955373-9.220751 4.759388-3.802092 5.870213-8.787258 3.350537-14.964528-0.487679-1.444976-1.905562-3.585346-4.226553-6.42111zM393.891309 604.225566c-5.256099-6.683012-9.112377-9.148502-11.568835-7.387438-0.406399-0.108373-0.126435 1.300478 0.857954 4.19946 1.255323 2.754485 2.131339 5.201912 2.673205 7.32422 2.46549 9.681336 5.788933 17.836417 9.970331 24.465243l10.94569-6.312737c-0.379306-1.869437-2.158432-5.536063-5.319316-11.008908-4.885824-7.261002-7.414531-11.017939-7.559029-11.27984zM422.348297 579.480359a45.697352 45.697352 0 0 1 1.553349-4.533611c0.812799-2.203588 1.146949-3.440848 0.984389-3.70275-1.309509-1.670753-5.301254-0.749581-11.966204 2.745454a5868.9489 5868.9489 0 0 0-21.737851 12.02039l5.870213 10.159985a52.199742 52.199742 0 0 1 1.165012-0.677332c4.705202-2.709329 8.055739-4.127211 10.069673-4.253647 0.252871-0.153529 0.587021-0.16256 1.002452-0.054187 4.641984 0.794737 8.597605 2.844796 11.902987 6.159209l5.518-5.788934c-4.560704-4.316865-6.014711-8.326672-4.36202-12.074577zM378.565537 571.397527c-0.153529-0.261902-0.334151-2.068121-0.532835-5.436721a583.93269 583.93269 0 0 0-1.165011-9.22075l-5.436721 0.523804c-0.117404 0.406399-0.442524 1.64366-0.984389 3.70275-2.492583 10.114829-4.334927 16.554001-5.518001 19.326548-2.30293 4.452331-4.696171 8.435045-7.179722 11.948142l7.32422 7.24294a36.034078 36.034078 0 0 0 3.684688-2.646112c2.30293-2.022966 3.793061-3.052511 4.461362-3.097666 0.785705-0.451555 2.131339-0.532835 4.0369-0.24384 1.905562 0.298026 3.04348 0.16256 3.413755-0.406399 0.252871-0.153529 0.153529-0.939234-0.343182-2.402272-1.770095-4.876793-2.366147-11.306934-1.761064-19.290424zM465.246009 502.661845c0.866985 0.894079 1.553349 1.174043 2.077153 0.876017 0.668301-0.027093 1.444976-1.697846 2.330023-4.985166 1.146949-3.440848 2.031997-5.508969 2.664173-6.222426a201.39347 201.39347 0 0 1 7.143598-5.68056c1.661722-1.264354 2.700298-2.004904 3.323444-2.402272l10.927628 7.197785c1.743002-2.38421 3.756936-5.816027 6.059866-10.259327 3.151853-5.987618 6.375955-10.629602 9.681337-13.934983 4.136243-3.061542 7.712557-2.871889 10.765068 0.57799-0.144498 4.596829-2.14037 8.344734-6.00568 11.261778-7.82093 4.515549-14.287196 9.274937-19.380735 14.305259-3.829185 3.603408-3.12476 6.312737 2.104246 8.15508 4.073025 0.433493 6.881696 2.284868 8.426013 5.554125 0.731519 1.246291 1.779126 3.323444 3.007356 5.834089a13.438273 13.438273 0 0 0-1.733971 1.661722c0.848923-0.234809 1.544318-0.406399 2.257775-0.596052l0.370275 0.758612 3.603407 6.249519c1.092763 2.483552 2.790609 8.118956 5.075477 16.87009a3.549221 3.549221 0 0 0 0.279964 1.39982c1.047607 8.435045 0.623146 14.910342-1.264354 19.471046l13.953046-0.216747c0.32512-1.246291 0.352213-4.208491 0.072249-8.904661a3.910465 3.910465 0 0 0-0.279964-1.399821c0.063218-1.074701-0.24384-2.808671-0.930203-5.192881-1.408851-7.857055-0.009031-12.652567 4.19946-14.4046 3.45891-3.034449 8.245392 2.537738 14.359444 16.734624l11.35209-6.538515c-4.398144-5.806996-7.577091-10.403824-9.54587-13.790485-1.508193-5.02129-1.697846-8.046708-0.541866-9.058191a33.595682 33.595682 0 0 0 3.585346-1.011483c3.576315-1.029545 5.969555-0.49671 7.170691 1.589473 2.212619 3.233133 2.88092 5.283192 1.986841 6.141146-0.32512 1.228229-2.447427 1.770095-6.375954 1.598505l1.616566 10.006455c10.990845 0.948265 17.375831-1.517224 19.182051-7.414531 0.24384-2.573863-2.086183-7.82093-7.008132-15.741202l-1.589473-2.745454c-0.90311-1.553349-2.393241-3.820154-4.452331-6.809447-8.868538-12.941562-14.48588-22.017815-16.815903-27.282945-0.451555-0.794737-0.65927-2.050059-0.632177-3.802092-0.460586-3.197008-1.697846-4.750357-3.711781-4.632953-1.083732-0.072249-2.474521 0.216746-4.19946 0.857954-2.492583 1.101794-4.804544 1.029545-6.899758-0.198684-1.390789-2.998324-1.228229-6.926852 0.514772-11.749457 0.758612-5.292223-1.273385-7.604184-6.086959-6.90879-7.48678 3.278288-14.494911 6.800416-21.015364 10.557353-3.955621 1.598504-5.9244 1.165012-5.942462-1.273385l-6.366924 1.607535a12.679661 12.679661 0 0 0-0.279964 2.230681 5.229005 5.229005 0 0 1-0.099342 1.634629 52.416489 52.416489 0 0 1-2.257774 9.62715 21.494012 21.494012 0 0 1-6.863634 11.595929l-5.563156-9.636181-35.149031 21.304358 6.556577 11.334028c6.710105-5.238036 12.155857-6.655919 16.346286-4.199461z m66.026353-19.326548c1.64366-1.995873 3.648563-2.095215 6.050835-0.361244 0.966327 0.487679 1.733971 0.90311 2.30293 1.273385 1.544318 3.278288 0.641208 6.231457-2.70933 8.850475-3.386661 1.959748-5.996649 1.038576-7.857054-2.772547-0.41543-2.519676 0.32512-4.85873 2.212619-6.990069z m0.279964 24.844549c1.336602-0.08128 2.275837-0.270933 2.79964-0.57799 0.523804-0.288995 1.074701-1.137918 1.670753-2.519677 0.966327-1.932655 2.366147-3.440848 4.190429-4.488455 6.249519-3.612439 9.591025-3.269257 9.970331 1.011483 0.424462 2.528707-1.417882 4.461362-5.518 5.797964l-1.174043 0.677333a9.726492 9.726492 0 0 1-6.448203 0.57799 4.434269 4.434269 0 0 0-2.411303 0.343182c-0.776674 0.451555-1.246291 1.761064-1.381758 3.919496-0.270933 4.334927-3.576315 6.42111-9.943238 6.267581-2.917044-1.444976-2.30293-4.587797 1.860406-9.419434 1.417882-1.15598 3.54019-1.688815 6.384986-1.589473z m-8.010584-12.056515c1.092763 2.492583-0.316088 4.876793-4.226553 7.125536-4.217522 1.733971-6.755261 0.939234-7.631277-2.375179-0.614115-3.45891 0.641208-6.095991 3.774998-7.90221 3.838216-1.165012 6.529483-0.117404 8.082832 3.151853z" fill="#F29736" p-id="3411"></path><path d="M511.810347 543.509499a71.119891 71.119891 0 0 0-10.719913-16.743655c-2.031997-2.293899-3.639532-3.278288-4.831637-2.935107s-1.571411 1.779126-1.15598 4.316865c0.225777 1.607535 1.119856 4.045932 2.673205 7.32422 2.176494 4.994197 3.133791 8.444076 2.844795 10.340606-0.207715 3.242164-0.98439 4.921948-2.339054 4.994197-1.490131-0.180622-3.630501-2.068121-6.412079-5.68056-3.269257-5.066446-7.468717-13.221526-12.607412-24.519429-0.605084-3.449879 0.541866-5.68056 3.449879-6.66495 2.013935-0.117404 4.325896 1.499162 6.962976 4.840668 1.15598 1.408851 2.393241 1.733971 3.70275 0.975359 1.146949-0.993421 1.670753-2.510645 1.544318-4.533611-0.316088-2.935107-1.345633-6.854603-3.133791-11.731396-1.743002-4.208491-4.641984-5.319316-8.696947-3.323443-1.986841 0.794737-3.937558 1.923624-5.870213 3.386661-2.086183 1.210167-3.666626 1.761064-4.741326 1.697846-3.260226-0.207715-5.201912 0.045155-5.834089 0.749581-0.785705 0.451555-0.677332 2.131339 0.307058 5.039353 1.056638 4.253647 1.417882 10.304482 1.083731 18.134443a4.804544 4.804544 0 0 0-0.108373 1.607535c-1.047607 7.206816-2.30293 12.273261-3.747905 15.190306l12.34551 3.305382c0.099342-2.826733 0.460586-4.614891 1.092763-5.328348 0.894079-0.848923 1.869437-0.370275 2.917044 1.444976 1.092763 2.492583 2.935107 6.294675 5.545094 11.397245 2.031997 4.732295 3.648563 8.127988 4.85873 10.214171 2.031997 4.732295 4.497486 5.391565 7.396469 1.986841 0.894079-0.866985 3.20604-3.765968 6.962976-8.705978 3.260226-3.955621 5.590249-6.881696 6.962976-8.705977 1.779126-1.715908 1.761064-4.154305-0.036125-7.279065a5.174819 5.174819 0 0 0-0.41543-0.794736zM588.303741 473.364966c-0.939234 0.189653-1.806219 1.390789-2.619018 3.594376-1.688815 7.911241-0.225777 16.454659 4.371051 25.612192 6.321768 10.936659 12.84222 12.905438 19.579419 5.888276 4.11818-5.490907 5.527032-15.687016 4.226554-30.570265l-11.758489-0.505741c-0.099342 5.26513-0.225777 8.64276-0.406399 10.132891-0.596052 1.381758-1.228229 2.104246-1.896531 2.131339-1.083732-0.072249-2.004904-0.749581-2.763516-2.05909a60.029704 60.029704 0 0 1-5.9244-11.162436c-0.939234-2.230681-1.878468-3.251195-2.808671-3.061542zM675.0384 475.451149l5.201912-14.467818a54.737481 54.737481 0 0 1-23.733724-7.685464 409.831196 409.831196 0 0 0-8.200236-5.156756c-3.332475-1.553349-5.635405-2.826733-6.917821-3.838216-2.501614-1.31854-4.208491-1.56238-5.093539-0.704426-0.894079 0.876016-0.57799 2.609987 0.921172 5.201912 10.900534 15.253523 23.498915 24.140123 37.822236 26.650768zM559.919002 465.769813l6.105022 10.557353c1.97781-0.794737 6.222426-3.070573 12.742878-6.836541 1.824282-1.047607 3.729843-0.749581 5.716685 0.876016 1.417882 1.273385 2.528707 1.670753 3.305382 1.219199 1.309509-0.758612 2.050059-3.088635 2.212618-6.999101-0.198684-3.350537 0.045155-5.9244 0.749582-7.721588 0.65927-2.46549 0.279964-4.325896-1.14695-5.590249-1.535287-0.848923-3.549221-0.731519-6.041804 0.352212-4.109149 1.327571-11.984266 6.032773-23.643413 14.142699zM585.603443 435.325984c-10.719913-7.703526-22.13522-11.52368-34.282045-11.478525l-2.519676 11.875893c9.274937 1.607535 19.42589 5.635405 30.479953 12.119733l6.321768-12.517101z" fill="#F29736" p-id="3412"></path><path d="M623.10959 476.733565c0.487679 8.06477-1.526255 15.127088-6.014711 21.186954l15.596705 3.513097c4.389113-12.255199 4.371051-27.002981-0.027093-44.252377-2.691267-8.859506-2.438396-13.519553 0.776675-13.998201 0.939234-0.189653 1.580442-0.559928 1.959748-1.128887 0.442524-1.634629-1.183074-5.048383-4.867762-10.223202-8.453107-10.385762-16.499815-23.119609-24.149154-38.165417l-12.50807 7.224878c10.28642 14.196885 17.800293 28.095744 22.523557 41.696576 4.578766 13.3299 6.809447 24.709082 6.710105 34.146579z" fill="#F29736" p-id="3413"></path><path d="M1016.061665 388.292029c-1.697846 0.866985-2.88092 1.517224-4.109149 2.086183-4.027869 1.887499-8.001552 3.937558-12.128764 5.59025a89.760076 89.760076 0 0 1-33.613744 6.33983c-4.795513 0-9.591025-0.207715-14.386538-0.234809-5.481876-0.027093-10.963752-0.126435-16.436597 0.126436-12.119733 0.568959-23.661475 3.603408-34.679414 8.660822-7.48678 3.431817-14.64844 7.441624-21.430793 12.155857a102.927416 102.927416 0 0 0-20.482529 18.567936c-4.849699 5.816027-8.80532 12.219075-12.453883 18.829838-2.727391 4.949041-5.409627 9.925176-8.164112 14.865186-4.68714 8.398921-10.584446 15.623798-17.321645 22.026847a306.65994 306.65994 0 0 0-4.343958-39.140776c2.031997-2.63708 4.009807-5.310285 5.770871-8.209268 3.016387-4.976135 5.716685-10.150953 8.606636-15.199336 2.555801-4.461362 5.012259-8.976911 7.775775-13.302807a88.089323 88.089323 0 0 1 20.455435-22.153281c6.25855-4.867761 13.058967-8.80532 19.99485-12.544195 12.724816-6.854603 26.307586-10.656695 40.775404-11.026969 5.301254-0.135466 10.611539 0.072249 15.921825 0.090311 5.481876 0.027093 10.963752 0.189653 16.436597 0 16.255975-0.568959 31.301783-5.364472 45.363202-13.384087 0.848923-0.478648 1.535287-1.23726 2.375178-1.932654l-2.366147-4.091088c-1.697846 0.866985-2.88092 1.517224-4.10915 2.086184-4.027869 1.887499-8.001552 3.937558-12.128763 5.590249a89.760076 89.760076 0 0 1-33.613744 6.339831c-4.795513 0-9.591025-0.207715-14.386538-0.234809-5.481876-0.027093-10.963752-0.126435-16.436598 0.126435-12.128764 0.568959-23.661475 3.603408-34.679413 8.660823-7.48678 3.431817-14.64844 7.441624-21.430794 12.155857a102.927416 102.927416 0 0 0-20.482529 18.567936c-4.849699 5.816027-8.80532 12.219075-12.453883 18.829838-2.727391 4.949041-5.409627 9.925176-8.164112 14.865186a86.192793 86.192793 0 0 1-4.714233 7.342282 307.761734 307.761734 0 0 0-9.38331-35.826363c2.30293-3.991745 4.515549-8.046708 6.809447-12.047484 2.555801-4.461362 5.012259-8.976911 7.775775-13.302806a88.089323 88.089323 0 0 1 20.455436-22.153282c6.25855-4.867761 13.058967-8.80532 20.00388-12.544194 12.724816-6.854603 26.307586-10.656695 40.775405-11.02697 5.301254-0.135466 10.611539 0.072249 15.921824 0.090311 5.481876 0.027093 10.963752 0.189653 16.436597 0 16.255975-0.568959 31.301783-5.364472 45.363202-13.384086 0.848923-0.478648 1.535287-1.23726 2.375179-1.932655l-2.366148-4.091087c-1.697846 0.866985-2.889951 1.517224-4.109149 2.086183-4.027869 1.887499-8.001552 3.937558-12.128764 5.59025a89.760076 89.760076 0 0 1-33.613744 6.33983c-4.795513 0-9.591025-0.207715-14.386538-0.234809-5.481876-0.027093-10.963752-0.126435-16.436597 0.126436-12.128764 0.568959-23.661475 3.603408-34.679414 8.660822-7.48678 3.431817-14.64844 7.441624-21.430794 12.155857a102.927416 102.927416 0 0 0-20.482528 18.567936c-4.849699 5.816027-8.80532 12.219075-12.453884 18.829838-2.113277 3.829185-4.208491 7.676433-6.321768 11.514649a315.654913 315.654913 0 0 0-12.779003-30.678637c1.210167-2.167463 2.420334-4.334927 3.657595-6.493359 2.555801-4.461362 5.012259-8.976911 7.775775-13.302807a88.089323 88.089323 0 0 1 20.455435-22.153282c6.25855-4.867761 13.058967-8.80532 19.99485-12.544194 12.724816-6.854603 26.307586-10.656695 40.775404-11.026969 5.301254-0.135466 10.611539 0.072249 15.921824 0.09031 5.481876 0.027093 10.963752 0.189653 16.436598 0 16.255975-0.568959 31.301783-5.364472 45.363201-13.384086 0.839892-0.478648 1.535287-1.23726 2.375179-1.932655l-2.366147-4.091087c-1.697846 0.866985-2.889951 1.517224-4.10915 2.086184-4.027869 1.887499-8.001552 3.937558-12.128763 5.590249a89.760076 89.760076 0 0 1-33.613745 6.33983c-4.795513 0-9.591025-0.207715-14.386538-0.234808-5.481876-0.027093-10.963752-0.126435-16.436597 0.126435-12.128764 0.568959-23.661475 3.603408-34.679413 8.660823-7.48678 3.431817-14.64844 7.441624-21.430794 12.155857a102.927416 102.927416 0 0 0-20.482529 18.567936c-4.849699 5.816027-8.80532 12.219075-12.453883 18.829837l-3.558253 6.484328-0.08128-0.17159a304.853721 304.853721 0 0 0-15.109025-26.099872c1.092763-1.959748 2.185526-3.928527 3.305381-5.870213 2.555801-4.461362 5.012259-8.976911 7.775775-13.302806a88.089323 88.089323 0 0 1 20.455435-22.153282c6.25855-4.867761 13.058967-8.80532 20.003881-12.544194 12.724816-6.854603 26.307586-10.656695 40.775404-11.02697 5.301254-0.135466 10.611539 0.072249 15.921825 0.090311 5.481876 0.027093 10.963752 0.189653 16.436597 0 16.255975-0.568959 31.301783-5.364472 45.363202-13.384086 0.839892-0.478648 1.535287-1.23726 2.375178-1.932655l-2.366147-4.091087c-1.697846 0.866985-2.889951 1.517224-4.109149 2.086183-4.027869 1.887499-8.001552 3.937558-12.128764 5.59025a89.760076 89.760076 0 0 1-33.613744 6.33983c-4.795513 0-9.591025-0.207715-14.386538-0.234809-5.481876-0.027093-10.963752-0.126435-16.436597 0.126436-12.128764 0.568959-23.661475 3.603408-34.679414 8.660822-7.48678 3.431817-14.64844 7.441624-21.430794 12.155857a102.927416 102.927416 0 0 0-20.482529 18.567936c-4.849699 5.816027-8.80532 12.219075-12.453883 18.829838l-3.720812 6.773323a298.387455 298.387455 0 0 0-17.086836-22.929956c1.788157-3.169915 3.558252-6.348861 5.364472-9.509746 2.555801-4.461362 5.012259-8.976911 7.775775-13.302806a88.089323 88.089323 0 0 1 20.455435-22.153282c6.25855-4.867761 13.058967-8.80532 19.994849-12.544194 12.724816-6.854603 26.307586-10.656695 40.775405-11.02697 5.301254-0.135466 10.611539 0.072249 15.921824 0.090311 5.481876 0.027093 10.963752 0.189653 16.436597-0.009031 16.255975-0.568959 31.301783-5.364472 45.363202-13.384086 0.839892-0.478648 1.535287-1.23726 2.375179-1.932655l-2.366148-4.091087c-1.697846 0.866985-2.889951 1.517224-4.109149 2.086184-4.027869 1.887499-8.001552 3.937558-12.128764 5.590249a89.760076 89.760076 0 0 1-33.613744 6.33983c-4.795513 0-9.591025-0.207715-14.386538-0.234808-5.481876-0.027093-10.963752-0.126435-16.436597 0.126435-12.128764 0.568959-23.661475 3.603408-34.679414 8.660822-7.48678 3.431817-14.64844 7.441624-21.430794 12.155857a102.927416 102.927416 0 0 0-20.482528 18.567936c-4.849699 5.816027-8.80532 12.219075-12.453883 18.829838l-6.16824 11.225654c-1.535287-1.806219-2.971231-3.675657-4.560704-5.454783a322.202459 322.202459 0 0 0-14.214947-14.883248c0.298026-0.442524 0.605084-0.885048 0.885047-1.354665 3.016387-4.976135 5.716685-10.150953 8.606636-15.199336 2.555801-4.461362 5.012259-8.976911 7.775775-13.302807a88.089323 88.089323 0 0 1 20.455435-22.153281c6.25855-4.867761 13.058967-8.80532 19.99485-12.544195 12.724816-6.854603 26.307586-10.656695 40.775404-11.026969 5.301254-0.135466 10.611539 0.072249 15.921825 0.090311 5.481876 0.027093 10.963752 0.189653 16.436597-0.009031 16.255975-0.568959 31.301783-5.364472 45.363202-13.384087 0.848923-0.478648 1.535287-1.23726 2.375178-1.932655l-2.366147-4.091087c-1.697846 0.866985-2.889951 1.517224-4.10915 2.086184-4.027869 1.887499-8.001552 3.937558-12.128763 5.590249a89.760076 89.760076 0 0 1-33.613745 6.33983c-4.795513 0-9.591025-0.207715-14.386538-0.234808-5.481876-0.027093-10.963752-0.126435-16.436597 0.126435-12.128764 0.568959-23.661475 3.603408-34.679413 8.660823-7.48678 3.431817-14.64844 7.441624-21.430794 12.155857a102.927416 102.927416 0 0 0-20.482529 18.567936c-4.849699 5.816027-8.80532 12.219075-12.453883 18.829838-2.727391 4.949041-5.409627 9.925176-8.164112 14.865186-0.776674 1.381758-1.652691 2.673205-2.510645 3.973683a310.940681 310.940681 0 0 0-21.241141-18.414408c2.826733-3.431817 5.499938-6.9991 7.857055-10.882472 3.016387-4.976135 5.716685-10.150953 8.606635-15.199337 2.555801-4.461362 5.012259-8.976911 7.775775-13.302806a88.089323 88.089323 0 0 1 20.455436-22.153282c6.25855-4.867761 13.058967-8.80532 19.994849-12.544194 12.724816-6.854603 26.307586-10.656695 40.775404-11.02697 5.301254-0.135466 10.611539 0.072249 15.921825 0.090311 5.481876 0.027093 10.963752 0.189653 16.436597-0.009031 16.255975-0.568959 31.301783-5.364472 45.363202-13.384086 0.848923-0.478648 1.535287-1.23726 2.375178-1.932655l-2.366147-4.091087c-1.697846 0.866985-2.88092 1.517224-4.109149 2.086183-4.027869 1.887499-8.001552 3.937558-12.128764 5.59025a89.760076 89.760076 0 0 1-33.613744 6.33983c-4.795513 0-9.591025-0.207715-14.386538-0.234809-5.481876-0.027093-10.963752-0.126435-16.436597 0.126436-12.128764 0.568959-23.661475 3.603408-34.679414 8.660822-7.48678 3.431817-14.64844 7.441624-21.430794 12.155857a102.927416 102.927416 0 0 0-20.482529 18.567936c-4.849699 5.816027-8.80532 12.219075-12.453883 18.829838-2.727391 4.949041-5.409627 9.925176-8.164112 14.865186a92.225566 92.225566 0 0 1-9.699398 13.998201 301.169033 301.169033 0 0 0-24.898736-17.249396 94.194345 94.194345 0 0 0 18.712434-22.072002c3.016387-4.976135 5.716685-10.150953 8.606636-15.199337 2.555801-4.461362 5.012259-8.976911 7.775775-13.302806a88.089323 88.089323 0 0 1 20.455435-22.153282c6.25855-4.867761 13.058967-8.80532 20.00388-12.544194 12.724816-6.854603 26.307586-10.656695 40.775405-11.02697 5.301254-0.135466 10.611539 0.072249 15.921824 0.090311 5.481876 0.027093 10.963752 0.189653 16.436598-0.009031 16.255975-0.568959 31.301783-5.364472 45.363201-13.384086 0.848923-0.478648 1.535287-1.23726 2.375179-1.932655l-2.366148-4.091087c-1.697846 0.866985-2.88092 1.517224-4.109149 2.086184-4.027869 1.887499-8.001552 3.937558-12.128764 5.590249a89.760076 89.760076 0 0 1-33.613744 6.33983c-4.795513 0-9.591025-0.207715-14.386538-0.234808-5.481876-0.027093-10.963752-0.126435-16.436597 0.126435-12.128764 0.568959-23.661475 3.603408-34.679414 8.660822-7.48678 3.431817-14.64844 7.441624-21.430793 12.155857a102.927416 102.927416 0 0 0-20.482529 18.567936c-4.849699 5.816027-8.80532 12.219075-12.453883 18.829838-2.727391 4.949041-5.409627 9.925176-8.164112 14.865187a93.101582 93.101582 0 0 1-21.295328 25.675409 312.313407 312.313407 0 0 0-72.718395-31.319845 304.84469 304.84469 0 0 0-124.556895-9.446528 304.031891 304.031891 0 0 0-111.741767 37.144903c-11.135343 6.294675-22.026846 12.968656-32.222955 20.690244-7.16166 5.427689-14.856155 10.331575-20.338031 18.008008l1.950717 1.779126c3.106697-1.354665 5.590249-3.142822 8.046708-5.111601a357.631454 357.631454 0 0 1 18.360221-14.052387 303.950611 303.950611 0 0 1 60.074859-33.008661c22.812552-9.30203 46.383716-15.976011 70.812834-19.489108 49.598786-7.134567 98.149966-2.754485 145.34648 14.025294 67.082991 23.851128 119.716226 65.972166 157.538462 126.426332a300.103364 300.103364 0 0 1 36.774628 86.057326c30.597358 121.016704-15.668954 254.740162-128.205458 328.903533a297.502408 297.502408 0 0 1-78.308644 36.639162c-52.127494 15.677985-104.832978 17.655795-157.77327 4.958072-77.423597-18.576967-138.654437-61.06828-183.421587-126.868855-17.592578-25.856032-30.516078-54.051117-39.330429-84.151765-30.958602-105.618683-1.463038-221.054169 75.563192-298.694512 2.88092-2.908013 5.806996-5.779902 8.760164-8.606636 1.914593-1.833313 2.700298-3.883372 1.508193-6.990069-2.700298 0.614115-4.136243 2.266805-5.698622 3.738874a301.349655 301.349655 0 0 0-56.932038 72.402307c-27.617096 49.156263-41.010213 101.356005-40.359974 156.472792-0.379306 0.153529-0.749581 0.307057-1.137918 0.442524a95.639321 95.639321 0 0 1-16.906214 4.208491c-2.022966 0.32512-4.027869 1.029545-6.041804 1.038577-6.159208 0.036124-12.318417-0.207715-18.477625-0.288996-5.644436-0.072249-11.288872-0.180622-16.942339-0.072248-12.84222 0.234809-25.097419 3.251195-36.774628 8.516324-7.504842 3.37763-14.657471 7.396469-21.484981 12.065546-11.487556 7.838992-21.078581 17.44808-28.411832 29.260756-2.609987 4.217522-4.967104 8.597605-7.423562 12.914469-2.79964 4.912917-5.454783 9.907114-8.39892 14.720688a85.641896 85.641896 0 0 1-24.483305 25.982467c-3.233133 2.239712-6.511421 4.425238-9.744554 6.673981-0.379306 0.261902-0.559928 0.803768-0.921172 1.354665l2.320992 3.576314c1.408851-0.686363 2.646112-1.183074 3.78403-1.860406 14.720689-8.751133 26.569488-20.383187 35.275466-35.158061 2.438396-4.127211 4.651015-8.389889 7.026194-12.553226 2.709329-4.759388 5.319316-9.591025 8.263454-14.205916a87.89967 87.89967 0 0 1 20.446404-22.153281c6.267582-4.876793 13.058967-8.823382 20.003881-12.553226 12.715785-6.845572 26.298555-10.683788 40.775404-11.036001 5.472845-0.135466 10.954721 0.036124 16.436597 0.117405 6.159208 0.090311 12.309386 0.198684 18.477625-0.216747a94.411091 94.411091 0 0 0 24.392994-5.10257c0.225777 7.640308 0.668301 15.316741 1.435945 23.065423 0.24384 2.492583 0.587021 4.958072 0.894078 7.432593-0.65927 0.135466-1.327571 0.279964-1.995872 0.388337-2.022966 0.32512-4.027869 1.029545-6.041804 1.038576-6.159208 0.036124-12.318417-0.207715-18.477626-0.288995-5.644436-0.072249-11.288872-0.180622-16.942338-0.072249-12.851251 0.234809-25.097419 3.251195-36.774628 8.516325-7.504842 3.37763-14.657471 7.396469-21.484981 12.065546-11.487556 7.838992-21.078581 17.44808-28.411832 29.260755-2.619018 4.217522-4.967104 8.597605-7.423562 12.91447-2.79964 4.912917-5.454783 9.898083-8.398921 14.720688a85.641896 85.641896 0 0 1-24.483304 25.982467c-3.233133 2.239712-6.511421 4.425238-9.744554 6.673981-0.379306 0.261902-0.559928 0.803768-0.921172 1.354665l2.320992 3.576314c1.408851-0.686363 2.646112-1.183074 3.784029-1.860406 14.720689-8.751133 26.569488-20.383187 35.275467-35.158062 2.438396-4.136243 4.651015-8.389889 7.026193-12.553225 2.709329-4.759388 5.319316-9.591025 8.263454-14.205916a87.89967 87.89967 0 0 1 20.446405-22.153282c6.267582-4.876793 13.058967-8.823382 20.00388-12.553225 12.715785-6.845572 26.298555-10.674757 40.775405-11.036001 5.472845-0.135466 10.954721 0.036124 16.436597 0.117404 6.159208 0.090311 12.309386 0.198684 18.477625-0.216746a83.898894 83.898894 0 0 0 8.949817-1.183074c1.345633 9.446528 3.187977 18.757589 5.418659 27.960278-4.723264-0.054187-9.446528-0.171591-14.169792-0.234809-5.644436-0.072249-11.288872-0.180622-16.942339-0.072249-12.84222 0.234809-25.097419 3.251195-36.774628 8.516325-7.504842 3.37763-14.657471 7.396469-21.48498 12.065546-11.487556 7.838992-21.078581 17.44808-28.411833 29.260755-2.609987 4.217522-4.967104 8.597605-7.423562 12.91447-2.79964 4.912917-5.454783 9.907114-8.39892 14.720688a85.641896 85.641896 0 0 1-24.483305 25.982467c-3.233133 2.239712-6.511421 4.425238-9.744554 6.673981-0.379306 0.261902-0.559928 0.803768-0.921172 1.354665l2.320992 3.576314c1.408851-0.686363 2.646112-1.183074 3.78403-1.860406C63.217681 688.874041 75.075512 677.241988 83.772459 662.467112c2.438396-4.127211 4.651015-8.389889 7.026193-12.553225 2.709329-4.759388 5.319316-9.591025 8.263454-14.205916a87.89967 87.89967 0 0 1 20.446405-22.153282c6.267582-4.876793 13.058967-8.823382 20.00388-12.553225 12.724816-6.845572 26.298555-10.683788 40.775405-11.036001 5.472845-0.135466 10.954721 0.036124 16.436597 0.117404 5.247068 0.08128 10.494135 0.099342 15.750233-0.135466 2.339054 8.96788 5.066446 17.827386 8.22733 26.560457-1.761064-0.036124-3.522128-0.08128-5.283192-0.099342-5.644436-0.072249-11.288872-0.180622-16.942338-0.072249-12.84222 0.234809-25.097419 3.251195-36.774629 8.516325-7.504842 3.37763-14.657471 7.396469-21.48498 12.065546-11.487556 7.838992-21.078581 17.44808-28.411832 29.260755-2.609987 4.217522-4.967104 8.597605-7.423562 12.914469-2.79964 4.912917-5.454783 9.898083-8.398921 14.720689a85.434181 85.434181 0 0 1-24.483305 25.982467c-3.233133 2.239712-6.511421 4.425238-9.744554 6.673981-0.379306 0.261902-0.559928 0.803768-0.921171 1.354665l2.320992 3.576314c1.408851-0.686363 2.646112-1.183074 3.784029-1.860406 14.720689-8.751133 26.569488-20.383187 35.275466-35.158062 2.438396-4.127211 4.651015-8.389889 7.026194-12.553225 2.709329-4.759388 5.319316-9.591025 8.263454-14.205916a87.89967 87.89967 0 0 1 20.446404-22.153282c6.267582-4.876793 13.058967-8.823382 20.003881-12.553225 12.724816-6.845572 26.298555-10.674757 40.775404-11.036001 5.472845-0.135466 10.954721 0.036124 16.436597 0.117404 2.546769 0.036124 5.093539 0.009031 7.640309-0.009031 2.393241 6.240488 4.930979 12.444852 7.730619 18.567936 1.210167 2.646112 2.646112 5.174819 3.928527 7.784806l-0.614114-0.009031c-5.644436-0.072249-11.288872-0.180622-16.942339-0.072249-12.84222 0.234809-25.097419 3.251195-36.774628 8.516325-7.504842 3.37763-14.657471 7.396469-21.48498 12.065546-11.487556 7.838992-21.078581 17.44808-28.411833 29.260755-2.609987 4.217522-4.967104 8.597605-7.423562 12.914469-2.79964 4.912917-5.454783 9.898083-8.39892 14.720689a85.434181 85.434181 0 0 1-24.483305 25.982467c-3.233133 2.239712-6.520452 4.425238-9.744554 6.673981-0.379306 0.261902-0.559928 0.803768-0.921172 1.354665l2.320992 3.576314c1.408851-0.686363 2.646112-1.183074 3.78403-1.860406 14.720689-8.751133 26.569488-20.383187 35.275466-35.158062 2.438396-4.127211 4.651015-8.389889 7.026194-12.553225 2.709329-4.759388 5.319316-9.591025 8.263454-14.205916a87.89967 87.89967 0 0 1 20.446404-22.153282c6.267582-4.876793 13.058967-8.823382 20.003881-12.553225 12.724816-6.845572 26.298555-10.683788 40.775404-11.036001 5.472845-0.135466 10.954721 0.036124 16.436597 0.117404l3.70275 0.036125a291.92119 291.92119 0 0 0 15.190306 26.298555h-0.207716c-5.644436-0.072249-11.288872-0.180622-16.942338-0.072249-12.84222 0.234809-25.097419 3.251195-36.774628 8.516325-7.504842 3.37763-14.657471 7.396469-21.484981 12.065546-11.487556 7.838992-21.078581 17.44808-28.411832 29.260755-2.619018 4.217522-4.967104 8.597605-7.423562 12.91447-2.79964 4.912917-5.454783 9.907114-8.398921 14.720688a85.524492 85.524492 0 0 1-24.483304 25.982467c-3.233133 2.239712-6.520452 4.425238-9.744554 6.673981-0.379306 0.261902-0.559928 0.803768-0.921172 1.354665l2.320992 3.576314c1.408851-0.686363 2.646112-1.183074 3.78403-1.860406 14.720689-8.751133 26.569488-20.383187 35.275466-35.158062 2.438396-4.127211 4.651015-8.389889 7.026193-12.553225 2.709329-4.759388 5.319316-9.591025 8.263454-14.205916a87.89967 87.89967 0 0 1 20.446405-22.153282c6.267582-4.876793 13.058967-8.823382 20.00388-12.553225 12.724816-6.845572 26.298555-10.674757 40.775405-11.036001 5.472845-0.135466 10.954721 0.036124 16.436597 0.117404l4.11818 0.027094a334.304129 334.304129 0 0 0 20.058067 26.397897c-1.833313-0.036124-3.666626-0.08128-5.490907-0.099342-5.644436-0.072249-11.288872-0.180622-16.942338-0.072249-12.851251 0.234809-25.097419 3.251195-36.774629 8.516325-7.504842 3.37763-14.657471 7.396469-21.48498 12.065546-11.487556 7.838992-21.078581 17.44808-28.411832 29.260755-2.609987 4.217522-4.967104 8.597605-7.423562 12.914469-2.79964 4.912917-5.454783 9.898083-8.398921 14.720689a85.524492 85.524492 0 0 1-24.483305 25.982467c-3.233133 2.239712-6.511421 4.425238-9.744554 6.673981-0.379306 0.261902-0.559928 0.803768-0.921172 1.354665l2.320992 3.576314c1.408851-0.686363 2.646112-1.183074 3.78403-1.860406 14.720689-8.751133 26.569488-20.383187 35.275466-35.158062 2.438396-4.127211 4.651015-8.389889 7.026194-12.553225 2.709329-4.759388 5.319316-9.591025 8.263454-14.205916a87.89967 87.89967 0 0 1 20.446404-22.153282c6.267582-4.876793 13.058967-8.823382 20.003881-12.553225 12.724816-6.845572 26.298555-10.683788 40.775404-11.036001 5.472845-0.135466 10.954721 0.036124 16.436597 0.117404 3.467941 0.054187 6.935883 0.027093 10.403824-0.027093 2.745454 3.097666 5.545094 6.159208 8.444076 9.13947 5.960524 6.132115 12.083608 11.957173 18.360221 17.502267h-0.045155c-6.159208 0.036124-12.318417-0.207715-18.477625-0.288995-5.644436-0.072249-11.288872-0.180622-16.942339-0.072249-12.851251 0.234809-25.097419 3.251195-36.774628 8.516325-7.504842 3.37763-14.657471 7.396469-21.484981 12.065546-11.487556 7.838992-21.078581 17.44808-28.411832 29.260755-2.619018 4.217522-4.967104 8.597605-7.423562 12.914469-2.79964 4.912917-5.454783 9.907114-8.39892 14.720689a85.641896 85.641896 0 0 1-24.483305 25.982467c-3.233133 2.239712-6.511421 4.425238-9.744554 6.673981-0.379306 0.261902-0.559928 0.803768-0.921172 1.354664l2.320992 3.576315c1.408851-0.686363 2.646112-1.183074 3.78403-1.860406 14.720689-8.751133 26.569488-20.383187 35.275466-35.158062 2.438396-4.136243 4.651015-8.389889 7.026194-12.553225 2.709329-4.759388 5.319316-9.591025 8.263454-14.205916a87.89967 87.89967 0 0 1 20.446404-22.153282c6.267582-4.876793 13.058967-8.823382 20.00388-12.553225 12.724816-6.845572 26.298555-10.674757 40.775405-11.036001 5.472845-0.135466 10.954721 0.036124 16.436597 0.117404 6.159208 0.090311 12.309386 0.198684 18.477625-0.216746a74.777486 74.777486 0 0 0 5.716685-0.65927 309.251865 309.251865 0 0 0 31.599809 23.571164c-4.127211 1.219198-8.326672 2.194557-12.589349 2.871889-2.022966 0.32512-4.027869 1.029545-6.041805 1.038576-6.159208 0.036124-12.318417-0.207715-18.477625-0.288995-5.644436-0.072249-11.288872-0.180622-16.942338-0.072249-12.84222 0.234809-25.097419 3.251195-36.774629 8.516325-7.504842 3.37763-14.657471 7.396469-21.48498 12.065546-11.487556 7.838992-21.078581 17.44808-28.411832 29.260755-2.619018 4.217522-4.967104 8.597605-7.423562 12.914469-2.79964 4.912917-5.454783 9.907114-8.398921 14.720689a85.524492 85.524492 0 0 1-24.483304 25.982467c-3.233133 2.239712-6.511421 4.425238-9.744554 6.673981-0.379306 0.261902-0.559928 0.803768-0.921172 1.354664l2.320992 3.576315c1.408851-0.686363 2.646112-1.183074 3.784029-1.860406 14.720689-8.751133 26.569488-20.383187 35.275466-35.158062 2.438396-4.127211 4.651015-8.389889 7.026194-12.553225 2.709329-4.759388 5.319316-9.591025 8.263454-14.205916a87.89967 87.89967 0 0 1 20.446405-22.153282c6.267582-4.876793 13.058967-8.823382 20.00388-12.553225 12.724816-6.845572 26.298555-10.683788 40.775404-11.036001 5.472845-0.135466 10.954721 0.036124 16.436598 0.117404 6.159208 0.090311 12.309386 0.198684 18.477625-0.216746a94.80846 94.80846 0 0 0 24.907766-5.219975c33.6589 20.681213 70.876052 34.543947 111.741767 41.299208 62.639691 10.340606 122.886141 1.661722 180.48648-24.898735a300.518794 300.518794 0 0 0 52.723546-31.383063 309.315083 309.315083 0 0 0 41.64239-36.756566c55.776057-59.189812 85.867673-138.410597 83.971143-219.618225a93.833101 93.833101 0 0 0 19.552325-22.794489c3.016387-4.976135 5.716685-10.150953 8.606636-15.199337 2.555801-4.461362 5.012259-8.976911 7.775775-13.302806a88.089323 88.089323 0 0 1 20.455435-22.153282c6.25855-4.867761 13.058967-8.80532 20.003881-12.544194 12.724816-6.854603 26.307586-10.656695 40.775404-11.02697 5.301254-0.135466 10.611539 0.072249 15.921825 0.090311 5.481876 0.027093 10.963752 0.189653 16.436597-0.009031 16.255975-0.568959 31.301783-5.364472 45.363202-13.384086 0.848923-0.478648 1.535287-1.23726 2.375178-1.932655a300.916162 300.916162 0 0 1-2.483552-4.244616z" fill="#F29736" p-id="3414"></path></svg>