<?xml version="1.0" standalone="no"?><!DOCTYPE svg PUBLIC "-//W3C//DTD SVG 1.1//EN" "http://www.w3.org/Graphics/SVG/1.1/DTD/svg11.dtd"><svg t="1512982798209" class="icon" style="" viewBox="0 0 1024 1024" version="1.1" xmlns="http://www.w3.org/2000/svg" p-id="3277" xmlns:xlink="http://www.w3.org/1999/xlink" width="64" height="64"><defs><style type="text/css"></style></defs><path d="M319.195103 286.917962c-4.371051 4.000776-8.796289 7.938335-13.095091 12.02039-18.748558 17.800293-34.598134 37.948671-47.891909 60.07486-49.950999 83.104157-59.054345 190.330376-10.719912 286.529624a294.946607 294.946607 0 0 0 54.556859 75.545129c86.599192 87.339742 225.967086 116.221191 346.893479 53.644718 26.397897-13.655019 50.050341-31.148255 71.264388-52.01912 93.32736-91.810135 116.356658-238.113912 50.176777-355.400773-12.237137-21.683665-26.623675-41.759794-43.882102-59.695553-44.667807-46.410809-98.782142-75.373538-162.081103-87.15912-4.407175-0.812799-8.80532-2.194557-13.402149-1.417883a2.22165 2.22165 0 0 1-1.372726-0.180622c-3.269257-1.860406-6.935883-1.535287-10.439949-1.842344-62.341665-5.545094-120.700616 7.251971-175.040728 38.26476a277.381123 277.381123 0 0 0-30.994726 20.437373c-0.921172 0.695394-1.97781 1.526255-2.357116 2.528707-0.57799 1.508193-1.39982 1.950717-2.926076 2.447428-3.820154 1.23726-4.154305 2.239712-3.386661 6.430141 0.090311 0.469617 0.334151 0.930203 0.307057 1.381758-0.018062 0.361244-0.334151 0.713457-0.49671 1.020514-2.185526 0.57799-2.591925-1.842344-5.111602-2.609987z m17.601609 3.341506c6.592701-5.093539 13.311837-10.024518 20.130316-14.801969 3.495035-2.447427 7.342282-4.380082 11.017939-6.574639a278.546134 278.546134 0 0 1 79.121443-32.006209c35.862487-8.462138 72.068157-9.925176 108.463479-4.0369 63.470552 10.277389 117.539732 38.653097 161.936606 85.190341a273.308098 273.308098 0 0 1 45.029051 63.190588c56.083114 108.300919 35.329653 232.126294-36.53982 315.347856a281.806361 281.806361 0 0 1-46.582399 42.978992 278.239077 278.239077 0 0 1-47.178453 28.122837c-51.639814 24.094968-105.799305 32.295204-162.180445 23.643413-64.861341-9.9613-119.932972-39.01434-164.907837-86.843032-18.035101-19.17302-32.873194-40.676062-44.794243-64.211102-27.093292-53.473127-36.368229-109.87233-27.878997-169.13439 6.186302-43.141552 21.8101-82.697758 46.284373-118.75893 2.790609-4.127211 5.707654-8.173143 8.669854-12.18295a6.58367 6.58367 0 0 0 1.23726-4.750358c1.697846-0.776674 3.287319-1.038576 4.11818-1.968779 3.612439-4.082056 7.008132-8.353765 10.132892-12.128763 0.41543-2.176494-1.363696-4.109149 0.460586-5.229006 1.282416-0.785705 3.061542-0.749581 5.906337-1.354664 2.826733-2.673205 6.782354-6.077928 10.349638-9.852928 5.201912-5.527032 11.243716-10.033549 17.20424-14.639408z" fill="#FA6268" p-id="3278"></path><path d="M413.190764 338.611963c-95.991533 55.423844-128.88279 178.174519-73.458945 274.166052 55.423844 95.991533 178.174519 128.88279 274.166052 73.458945s128.88279-178.174519 73.458946-274.166052c-55.423844-95.991533-178.174519-128.88279-274.166053-73.458945z m261.359957 80.846383c51.341788 88.920184 20.870866 202.63073-68.049319 253.972518-88.920184 51.341788-202.63073 20.870866-253.972518-68.049318-51.341788-88.920184-20.870866-202.63073 68.049318-253.972518 88.929215-51.341788 202.63073-20.870866 253.972519 68.049318zM258.253259 457.732136l-5.626374-0.713456-2.393241 18.829837 5.617343 0.713457 0.632177-4.958072 10.810223 1.363695 14.196885 0.668302-0.036124 0.288995-14.223978 3.233133-17.971884 6.267581-2.068121 16.246944 5.617342 0.722488 0.641208-5.02129 35.311591 4.488455-0.632177 5.02129 5.617342 0.713457 2.402272-18.829838-5.626374-0.713457-0.632176 4.958073-15.569612-1.97781-14.278165-1.020514 0.036124-0.288996 10.990846-2.709329c2.889951-0.722488 5.373503-1.444976 7.432593-2.167463l19.001429-6.737199 1.038576-8.164112-40.937964-5.210943 0.650239-5.003228zM290.232374 417.299914c-7.694495-2.655143-13.962076-3.242164-18.811775-1.770096s-8.155081 4.77745-9.934207 9.907114c-1.174043 3.404724-1.31854 6.619794-0.433493 9.654243 0.885048 3.04348 2.826733 5.788933 5.834089 8.245392 2.998324 2.447427 7.053287 4.560704 12.164888 6.321768 7.613215 2.628049 13.74533 3.269257 18.414407 1.923624 4.660046-1.345633 7.947366-4.786482 9.852927-10.322544 3.720812-10.756037-1.986841-18.739527-17.086836-23.959501z m11.234685 21.945566c-0.722488 2.095215-2.375179 3.133791-4.958072 3.088635-2.573863-0.045155-7.071349-1.174043-13.492459-3.386661-6.457235-2.230681-10.873441-4.136243-13.257651-5.725716-2.393241-1.589473-3.197008-3.513097-2.420334-5.76184 0.74055-2.131339 2.429365-3.151853 5.057414-3.034449s7.423562 1.372727 14.395569 3.774999c6.384986 2.203588 10.602508 4.082056 12.652568 5.644436 2.050059 1.553349 2.727391 3.350537 2.022965 5.400596zM317.289542 414.834424l10.882472-19.254299-4.94001-2.79061-2.871889 5.084508-31.617872-17.872541 3.088636-5.454783 10.629601 6.00568 3.838216-6.791386-14.937434-8.444076-18.992398 33.604714 14.937435 8.435044 3.838216-6.791385-10.629601-6.005679 3.088635-5.454783 31.617872 17.854479-2.871889 5.093539zM330.763939 343.010107l5.743778-5.274161-8.263454-8.985942 4.623922-4.244615 24.564584 26.741079-4.298802 3.946589 3.829185 4.181398 16.301131-14.964528-3.838216-4.172367-4.298803 3.937559-24.564584-26.74108 4.623922-4.244615 8.263454 8.994973 5.734746-5.274161-11.60496-12.643536-28.420863 26.108902zM365.840721 298.134585l18.297003 30.53414-4.831637 2.898982 2.908014 4.867761 16.788809-10.060642-2.917044-4.867762-2.989293 1.797189-8.462138-14.142699 8.877568-5.319316 8.47117 14.133667-2.998325 1.788158 2.926076 4.867761 16.779779-10.060642-2.908014-4.858731-4.840668 2.889951-18.306034-30.53414 4.840668-2.889951-2.917044-4.867761-16.779779 10.060642 2.908013 4.858731 2.989293-1.788158 6.917821 11.541743-8.877569 5.319316-6.91782-11.541742 2.989293-1.788158-2.908014-4.85873-16.797841 10.060642 2.917045 4.858731zM414.274496 272.134055l11.532711 33.676962-5.888275 2.022966 1.842344 5.364472 20.970208-7.188754-1.842344-5.364471-5.192881 1.779126-5.075477-14.792938c1.580442-0.550897 2.853827-1.047607 3.838216-1.517224l15.569612 17.384862 11.821707-4.045931-1.833313-5.364472-4.181398 1.426913-13.24862-13.934983c4.768419-4.181398 6.348861-8.615667 4.741326-13.311837-1.246291-3.630501-3.955621-5.960524-8.14605-6.981039s-9.229781-0.523804-15.14515 1.499163l-17.502266 5.996648 1.842343 5.364472 5.897307-2.013935z m18.43247-4.687139c1.986841 0.406399 3.413755 1.860406 4.28074 4.371051 0.812799 2.38421 0.57799 4.389113-0.677333 6.041804-1.273385 1.661722-3.774999 3.12476-7.513873 4.407176l-4.641984-13.528584c3.711781-1.264354 6.556577-1.697846 8.55245-1.291447zM468.099836 293.501632c3.323444 3.549221 7.875117 4.903886 13.673081 4.091087 11.270809-1.571411 15.795389-10.277389 13.582771-26.117934-1.128887-8.06477-3.449879-13.90789-6.962976-17.556453-3.513097-3.648563-7.956397-5.093539-13.338931-4.343958-3.567283 0.505741-6.493359 1.833313-8.80532 4.000776-2.30293 2.167463-3.86531 5.147725-4.696171 8.940787-0.82183 3.793061-0.857954 8.362796-0.108373 13.709205 1.119856 7.98349 3.341506 13.736299 6.655919 17.27649z m3.774999-33.026723c0.32512-2.835765 1.679784-4.425238 4.0369-4.759389 2.230681-0.307057 3.901434 0.731519 4.994197 3.12476 1.092763 2.402272 2.149401 7.24294 3.178946 14.540067 0.939234 6.683012 1.174043 11.288872 0.722488 13.82661-0.460586 2.537738-1.752033 3.955621-3.892403 4.253647-2.203588 0.307057-3.874341-0.686363-5.003228-3.007356-1.137918-2.311961-2.167463-6.836541-3.115728-13.555677-0.939234-6.773323-1.246291-11.577867-0.921172-14.422662zM509.832537 284.949182c-0.171591 2.944138 1.092763 5.436721 3.793061 7.459687s6.475297 3.187977 11.343058 3.476972c4.434269 0.252871 8.209267-0.49671 11.334027-2.257774 3.115729-1.752033 4.795513-4.759388 5.048383-9.013035l1.752033-29.784559 5.472845 0.316088 0.334151-5.653467-18.215724-1.0747-0.33415 5.662498 3.820154 0.216746-1.761064 30.064523c-0.135466 2.239712-0.65927 3.802092-1.598504 4.68714-0.939234 0.885048-2.528707 1.255323-4.786482 1.119856-2.185526-0.126435-3.711781-0.677332-4.569735-1.661722-0.857954-0.966327-1.228229-2.591925-1.092763-4.849699l1.761064-30.064523 3.928528 0.225777 0.325119-5.653467-19.976787-1.174043-0.334151 5.653467 5.635405 0.334151-1.878468 31.970084z" fill="#FA6268" p-id="3279"></path><path d="M560.289277 299.371845c1.887499 1.444976 4.082056 2.492583 6.58367 3.151853 5.093539 1.31854 9.482652 0.731519 13.158309-1.770095 3.675657-2.501614 6.276613-6.692043 7.811899-12.562257l1.074701-4.127211-15.379959-4.009807-1.426913 5.481876 4.885823 1.282416c-0.957296 3.693719-2.022966 6.394017-3.178946 8.100894-1.15598 1.697846-2.853827 2.257774-5.093539 1.679784-1.553349-0.406399-2.573863-1.137918-3.079604-2.203588-0.505741-1.056638-0.568959-2.853827-0.216746-5.382534s1.228229-6.448203 2.609987-11.776551c1.282416-4.885824 2.38421-8.471169 3.314413-10.765068 0.939234-2.30293 1.869437-3.774999 2.79964-4.425237 0.939234-0.641208 2.122308-0.776674 3.576314-0.397369 3.829185 0.993421 4.921948 4.660046 3.269257 10.990846l8.63373 2.248743 3.847247-14.738751-8.64276-2.248743-0.451555 1.715908a13.50149 13.50149 0 0 0-7.035225-4.479424c-4.976135-1.300478-9.112377-0.334151-12.408728 2.862858-3.296351 3.20604-6.023742 8.922724-8.173143 17.159085-1.183074 4.569735-1.869437 8.254423-2.050059 11.090187a15.623798 15.623798 0 0 0 1.237261 7.595153c1.002452 2.239712 2.447427 4.082056 4.334926 5.527032zM591.085319 302.406294l-2.492583 5.093538 17.556453 8.633729 2.501614-5.093538-3.124759-1.535287 7.261002-14.783906 9.292999 4.560704-7.270033 14.783906-3.12476-1.535286-2.492583 5.093539 17.556453 8.624697 2.510646-5.093538-5.066446-2.483552 15.687016-31.942991 5.066446 2.483551 2.501614-5.084507-17.565485-8.633729-2.492583 5.084507 3.115729 1.535287-5.933431 12.083608-9.283968-4.569735 5.933431-12.074577 3.12476 1.535286 2.501614-5.084508-17.565485-8.624697-2.501614 5.084507 5.066446 2.492583-15.696047 31.942991zM414.3919 551.474926c15.777327 5.319316 32.800945 14.549098 51.052793 27.698376l6.213395-9.762616c-22.180375-16.373379-40.24257-25.341259-54.204646-26.91267l-3.061542 8.97691z" fill="#FA6268" p-id="3280"></path><path d="M403.834547 555.511827c-1.56238-1.490131-2.953169-3.603408-4.190429-6.33983-1.779126-5.463814-0.767643-11.740427 3.088636-18.748558l3.865309-2.230682c4.235585-2.781578 7.062318-4.416207 8.498263-4.903885 3.756936-1.824282 6.529483-3.260226 8.335703-4.307834l10.439948-6.014711-5.806995-10.033549c-24.555554 15.190306-40.829591 25.088388-48.80405 29.694248-8.72404 5.716685-12.706754 9.211719-11.966204 10.494135 0.036124 0.668301 2.402272 1.192105 7.098442 1.580442 4.68714 0.379306 7.504842 0.812799 8.47117 1.291447 3.224102 2.609987 5.012259 5.689591 5.364471 9.265906 1.860406 28.791138-3.567283 49.409133-16.283068 61.881079l13.492459 8.191205c7.857055-8.985942 11.632053-25.937311 11.343058-50.817984 1.083732-4.045932 3.37763-6.926852 6.881697-8.597605 4.542642 0.135466 4.894855-2.826733 1.065669-8.850475l-0.894079-1.553349zM364.097719 546.507823c-0.568959-0.361244-1.110825-0.722488-1.670753-1.092763-4.28074-0.270933-10.981814 2.393241-20.121285 7.992521l6.24952 10.810224c5.590249-2.194557 9.256875-4.479424 10.981814-6.845572a3.54019 3.54019 0 0 0 0.939234-1.056638c1.661722-1.300478 2.510645-2.483552 2.591925-3.558253 1.824282-2.772547 2.600956-4.407175 2.30293-4.930979 0.117404-0.397368-0.316088-0.848923-1.273385-1.31854z" fill="#FA6268" p-id="3281"></path><path d="M410.038911 568.913975l-1.544317 0.894079c0.16256 5.066446 6.565608 20.581871 19.191081 46.591431l11.595929-6.692043c-3.097666-7.134567-7.559028-14.856155-13.384086-23.155734-8.245392-10.692819-13.528584-16.572064-15.858607-17.637733zM509.371951 552.296756c-0.550897-0.361244-3.025418-1.679784-7.423562-3.95562-1.932655-0.939234-2.9622-1.544318-3.115729-1.80622-2.068121-1.201136-5.192881-4.217522-9.338155-9.031097l-0.451554-0.767643c-1.444976-1.905562-2.691267-2.564832-3.711781-1.977811-1.146949 1.011483-1.309509 2.808671-0.478649 5.418659 0.334151 1.183074 0.939234 3.413755 1.797189 6.692043 0.785705 1.950717 1.408851 3.639532 1.905561 5.084508 0.966327 2.871889 1.128887 5.518 0.48768 7.965427l-0.32512 1.210167a150.006526 150.006526 0 0 0-4.759388 14.07045l13.456335 0.98439c0.677332-4.172367 1.526255-7.73965 2.5558-10.728944 0.027093-1.743002 3.296351-5.003228 9.807772-9.771647 1.797188-1.047607 1.670753-2.167463-0.406399-3.386662zM457.551514 525.058967l6.917821 11.957173c3.937558-3.287319 7.531935-5.707654 10.765068-7.233909 2.573863-1.4811 4.235585-1.589473 4.985166-0.298027 0.993421 1.146949 2.013935 1.408851 3.043479 0.82183 2.492583-2.817702 3.657594-7.947366 3.476973-15.398021-1.101794-4.85873-10.837317-1.490131-29.188507 10.150954zM475.830455 489.792532c11.984266-8.96788 21.710758-15.614767 29.188507-19.922601 3.395693-1.264354 5.806996-0.939234 7.261002 0.957296 0.388337 4.235585-1.056638 6.800416-4.334927 7.64934-3.178946 0.469617-7.667402 0.135466-13.456335-0.975359l-4.669077 8.859507c5.283192 1.417882 6.701074 2.998324 4.289771 4.732295-1.508193 1.56238-4.840668 3.829185-9.988393 6.791385-0.776674 0.451555-1.183074 1.535287-1.210167 3.260226 0.234809 1.598504 0.957296 2.537738 2.176494 2.871889 3.395693 1.119856 5.9244 2.230681 7.595153 3.332475 2.30293 2.790609 4.479424 6.863634 6.538514 12.191981 0.487679 1.444976 1.679784 4.705202 3.585346 9.771648 3.20604 9.130439 5.247068 15.325772 6.114053 18.613091l12.372603-7.134567c-3.576315-6.177271-5.328347-9.798741-5.247067-10.86441-0.722488-3.016387 0.334151-5.355441 3.178946-6.990069 4.226554-2.772547 7.730619-2.050059 10.530259 2.167463 1.64366 2.835765 2.9622 6.023742 3.964652 9.554901l11.586898-6.683012a44.812305 44.812305 0 0 1-6.962976-9.374279c-0.966327-2.853827 0.57799-5.806996 4.669077-8.850475 3.016387-3.115729 5.626374-3.937558 7.848024-2.46549 0.08128 1.31854-0.397368 2.275837-1.417883 2.871889a5.635405 5.635405 0 0 1-4.217522-0.153529l1.327571 12.110702c8.118956-0.216746 13.356993-1.860406 15.696047-4.94001 2.393241-2.402272 2.573863-5.942462 0.56896-10.620571-0.632177-1.697846-6.132115-10.006456-16.499815-24.980015a85.822518 85.822518 0 0 1-3.28732-4.786481c-1.002452-1.137918-1.444976-3.106697-1.345633-5.915369-0.234809-3.964652-2.311961-5.174819-6.213395-3.612439l-7.721588 4.452331a5.238036 5.238036 0 0 1-3.675657-4.569735c-0.009031-2.393241 0.957296-6.050835 2.935107-10.963752 2.05909-3.576315 2.095215-6.186302 0.135466-7.793837-1.444976-1.905562-4.36202-1.607535-8.742102 0.921171a1607.174078 1607.174078 0 0 0-49.029827 29.29688l6.457234 11.18953z m66.667561 4.804543a6.619794 6.619794 0 0 1-1.246292 5.852152c-4.921948 4.578766-8.877569 5.463814-11.839768 2.71836-0.568959-2.772547 1.932655-5.572187 7.486779-8.453107 2.22165-0.912141 4.091087-0.957296 5.599281-0.117405z m-13.230558-13.9982c3.720812-0.090311 5.84312 0.930203 6.375955 3.025417 0.045155 3.052511-2.528707 5.743778-7.712557 8.046708-2.248743 0.261902-4.560704-0.460586-6.935883-2.176495-0.352213-3.576315 2.411303-6.547546 8.272485-8.89563z m-16.842996 22.586774c-0.803768 2.176494 0.072249 3.395693 2.619018 3.639532 2.248743-0.270933 4.154305 0.352213 5.716684 1.851375 0.298026 2.908013-1.300478 5.201912-4.786481 6.881696-3.756936 1.824282-6.285644 1.905562-7.586122 0.252871a3.648563 3.648563 0 0 1-0.478648-1.544318c1.833313-0.487679 3.386661-0.885048 4.822606-1.31854 0.894079-0.270933 1.89653-0.523804 2.582894-1.101794 0.785705-0.650239 1.345633-1.589473 1.97781-2.438396-1.336602 0.605084-2.582894 1.715908-4.208491 0.876017-1.679784 0.803768-3.413755 1.56238-5.111601 3.079604a5.581218 5.581218 0 0 1 1.89653-3.04348c1.688815-3.034449 1.047607-4.723264-1.89653-5.084508-4.136243-0.018062-6.520452-0.866985-7.161661-2.564832-0.568959-2.763516 1.011483-5.382534 4.732295-7.866085 3.747905-1.824282 6.58367-1.390789 8.47117 1.291447 0.65927 2.366147 0.135466 4.723264-1.589473 7.089411zM512.406399 549.524209c-2.013935 1.860406-1.869437 3.314413 0.469617 4.36202 11.966204 4.073025 34.038206-5.897307 66.188913-29.929056l-5.806996-10.033549c-19.75101 15.172243-40.034854 27.030074-60.851534 35.600585zM476.20073 499.365495a66.179881 66.179881 0 0 0-27.030074-13.763392l-5.256099 12.300354c8.164112 2.844796 16.70753 7.188753 25.585099 13.049936l6.701074-11.586898zM622.793502 450.344699c-7.197785-8.8866-15.677985-14.639409-25.43157-17.249396l-4.885824 8.4802c4.551673 2.519676 11.966204 8.534387 22.279717 18.035101l8.037677-9.265905zM611.920061 495.734994c3.486004 2.456458 10.70185 1.56238 21.638509-2.691267a348.645512 348.645512 0 0 0 47.503572-24.826487l-6.917821-11.957173a350.135643 350.135643 0 0 1-49.969061 30.353518c-9.843896 4.985166-13.925952 8.019614-12.255199 9.121409z" fill="#FA6268" p-id="3282"></path><path d="M634.163653 429.889263c1.526255 3.233133 4.669077 8.976911 9.428466 17.213272 2.9622 9.274937-3.278288 13.040905-18.712434 11.306934l0.939234 12.318416c24.718113 1.192105 35.230311-5.906338 31.509499-21.259203-2.022966-7.062318-6.737199-14.64844-14.160761-22.731272-6.330799-5.608311-10.223202-8.164112-11.659146-7.694495-1.842344 0.397368-0.966327 4.018838 2.655142 10.846348zM580.383469 440.31115c0.776674-0.451555 2.889951-1.833313 6.348861-4.172367a755.180357 755.180357 0 0 1 28.167993-17.267458c2.311961-1.336602 5.608311-1.869437 9.898082-1.598505 2.808671 0.099342 4.596829-0.08128 5.364472-0.523803 0.252871-0.153529 0.550897-0.830861 0.885048-2.059091 1.381758-3.531159 3.368599-6.050835 5.942462-7.540966l5.030321-2.889951-5.572187-9.654243c-2.438396 1.752033-4.515549 2.600956-6.240488 2.573863-5.10257-0.49671-7.811899-3.386661-8.127988-8.705978 0.117404-0.397368 0.099342-0.74055-0.054186-0.993421l-7.911242 1.4811c0.307057 5.301254-0.153529 9.861958-1.381758 13.66405-0.866985 3.251195-4.660046 6.800416-11.352089 10.665726l-2.320992 1.336603a1875.722788 1875.722788 0 0 1-24.907766 14.874217l6.231457 10.810224zM570.530542 449.089376l5.256098-12.300354c-13.682112-5.834089-23.04736-8.660822-28.104775-8.498263l-2.781577 10.349638c1.770095 0.695394 6.972007 2.844796 15.587673 6.457234l10.042581 3.991745zM605.544106 492.727638a21.548198 21.548198 0 0 1-2.275837-1.273384c-2.591925-0.912141-5.129663-3.215071-7.622246-6.935883a172.647487 172.647487 0 0 0-4.560704-6.114053c-3.305382-3.937558-5.653467-5.319316-7.044256-4.172367-2.330023 1.336602-1.706877 5.960524 1.833313 13.862734 3.594377 6.845572 4.181398 15.271586 1.706877 25.269011a53.644718 53.644718 0 0 0-0.695394 5.039352l12.074577 1.273385c1.137918-7.522904 3.133791-13.311837 5.960524-17.330676 0.614115-0.704426 1.372727-1.490131 2.257775-2.330023 1.652691-1.309509 2.510645-2.483552 2.582893-3.567284-0.072249-1.300478-1.4811-2.555801-4.217522-3.720812zM585.919532 462.337996c0.072249-1.056638 0.126435-2.447427 0.153528-4.19946 0.279964-1.878468 0.072249-3.133791-0.623146-3.756937-2.013935-2.275837-7.261002-0.957296-15.759264 3.94659-2.582894 1.4811-6.348861 4.181398-11.315965 8.06477l5.806995 10.04258 3.097667-1.779126c3.711781-2.483552 6.231457-3.774999 7.568059-3.856279 0.650239-0.036124 1.878468 0.288995 3.657595 0.975359 2.176494 0.803768 3.70275 0.776674 4.587797-0.072249 1.64366-1.291447 2.582894-4.416207 2.826734-9.365248z" fill="#FA6268" p-id="3283"></path><path d="M1010.101141 389.755067c-1.679784 0.857954-2.853827 1.499162-4.063994 2.068121-3.982714 1.869437-7.911241 3.892403-11.984266 5.527032a88.757624 88.757624 0 0 1-33.216376 6.267581c-4.741326 0-9.482652-0.207715-14.214947-0.225777-5.418658-0.027093-10.837317-0.126435-16.237913 0.126435-11.984266 0.559928-23.381511 3.567283-34.263983 8.552449-7.396469 3.386661-14.476849 7.351313-21.177923 12.01136a101.780467 101.780467 0 0 0-20.238689 18.342158c-4.786482 5.743778-8.696947 12.074577-12.309386 18.604061-2.691267 4.885824-5.34641 9.807772-8.06477 14.684564a91.177958 91.177958 0 0 1-17.12296 21.764945 302.695289 302.695289 0 0 0-4.289772-38.68019c2.004904-2.600956 3.964652-5.247068 5.698623-8.109926 2.980262-4.912917 5.653467-10.024518 8.507294-15.018714 2.519676-4.407175 4.949041-8.868538 7.685463-13.140247a87.141058 87.141058 0 0 1 20.211596-21.89138c6.186302-4.804544 12.905438-8.696947 19.760041-12.399697 12.571287-6.773323 26.000529-10.530259 40.296756-10.891503 5.238036-0.135466 10.485104 0.063218 15.732172 0.090311 5.418658 0.027093 10.837317 0.189653 16.246944 0 16.057291-0.559928 30.931508-5.301254 44.830367-13.221526 0.830861-0.478648 1.517224-1.219198 2.348085-1.905562l-2.339054-4.045932c-1.679784 0.857954-2.853827 1.499162-4.063994 2.068122-3.982714 1.869437-7.90221 3.892403-11.984266 5.527031a88.757624 88.757624 0 0 1-33.216376 6.267582c-4.741326 0-9.482652-0.207715-14.214947-0.225778-5.418658-0.027093-10.837317-0.126435-16.237913 0.126436-11.984266 0.559928-23.381511 3.567283-34.263983 8.552449-7.396469 3.386661-14.476849 7.351313-21.177923 12.011359a101.780467 101.780467 0 0 0-20.238689 18.342159c-4.786482 5.743778-8.696947 12.074577-12.309386 18.60406-2.691267 4.885824-5.34641 9.807772-8.06477 14.684565a84.2782 84.2782 0 0 1-4.660046 7.261002 305.865204 305.865204 0 0 0-9.265906-35.401902c2.275837-3.94659 4.461362-7.947366 6.728167-11.902986 2.519676-4.407175 4.949041-8.868538 7.685464-13.140246a87.141058 87.141058 0 0 1 20.211596-21.89138c6.186302-4.804544 12.905438-8.696947 19.760041-12.399697 12.571287-6.773323 26.000529-10.530259 40.296756-10.891503 5.238036-0.135466 10.485104 0.072249 15.732172 0.090311 5.418658 0.027093 10.837317 0.189653 16.246944-0.009031 16.057291-0.559928 30.931508-5.301254 44.830367-13.221527 0.830861-0.478648 1.517224-1.219198 2.348085-1.905561l-2.339054-4.045932c-1.679784 0.857954-2.853827 1.499162-4.063994 2.068121-3.982714 1.869437-7.90221 3.892403-11.984266 5.527032a88.757624 88.757624 0 0 1-33.216376 6.267581c-4.741326 0-9.482652-0.207715-14.214947-0.225777-5.418658-0.027093-10.837317-0.126435-16.237913 0.126435-11.984266 0.559928-23.381511 3.567283-34.263983 8.552449-7.396469 3.386661-14.476849 7.351313-21.177923 12.01136a101.780467 101.780467 0 0 0-20.23869 18.342159c-4.786482 5.743778-8.696947 12.074577-12.309385 18.60406-2.086183 3.78403-4.154305 7.586122-6.249519 11.370152a311.464484 311.464484 0 0 0-12.634506-30.317394c1.201136-2.14037 2.393241-4.289771 3.612439-6.42111 2.519676-4.407175 4.949041-8.868538 7.685464-13.140247a87.141058 87.141058 0 0 1 20.211596-21.89138c6.186302-4.804544 12.905438-8.696947 19.760041-12.399696 12.571287-6.773323 26.000529-10.530259 40.296756-10.891504 5.238036-0.135466 10.485104 0.063218 15.732172 0.090311 5.418658 0.027093 10.837317 0.189653 16.246944 0 16.057291-0.559928 30.931508-5.301254 44.830367-13.221526 0.830861-0.478648 1.517224-1.219198 2.348085-1.905562l-2.339054-4.045931c-1.679784 0.857954-2.853827 1.499162-4.063994 2.068121-3.982714 1.869437-7.90221 3.892403-11.984266 5.527031a88.757624 88.757624 0 0 1-33.216376 6.267582c-4.741326 0-9.482652-0.207715-14.214947-0.225777-5.418658-0.027093-10.837317-0.126435-16.237913 0.126435-11.984266 0.559928-23.381511 3.567283-34.263983 8.552449-7.396469 3.386661-14.476849 7.351313-21.177924 12.011359a101.780467 101.780467 0 0 0-20.238689 18.342159c-4.786482 5.743778-8.696947 12.074577-12.309385 18.604061l-3.522128 6.403048c-0.027093-0.054187-0.045155-0.117404-0.08128-0.171591a303.842238 303.842238 0 0 0-14.928404-25.792814c1.083732-1.941686 2.158432-3.874341 3.260226-5.806996 2.519676-4.407175 4.949041-8.868538 7.685464-13.140246a87.141058 87.141058 0 0 1 20.211596-21.89138c6.186302-4.804544 12.905438-8.696947 19.760041-12.399697 12.571287-6.773323 26.000529-10.530259 40.296756-10.900534 5.238036-0.135466 10.485104 0.063218 15.732171 0.090311 5.418658 0.027093 10.837317 0.189653 16.246944-0.009031 16.057291-0.559928 30.931508-5.301254 44.830367-13.221527 0.830861-0.478648 1.517224-1.219198 2.348086-1.905561l-2.339054-4.045932c-1.679784 0.857954-2.853827 1.499162-4.063994 2.068121-3.982714 1.869437-7.90221 3.892403-11.984266 5.527032a88.757624 88.757624 0 0 1-33.216376 6.267581c-4.741326 0-9.482652-0.207715-14.214947-0.225777-5.418658-0.027093-10.837317-0.126435-16.237913 0.126435-11.984266 0.559928-23.381511 3.567283-34.263984 8.552449-7.396469 3.386661-14.476849 7.351313-21.177923 12.01136a101.780467 101.780467 0 0 0-20.238689 18.342158c-4.786482 5.743778-8.696947 12.074577-12.309386 18.604061l-3.684687 6.701074a295.497504 295.497504 0 0 0-16.888152-22.659023c1.770095-3.133791 3.513097-6.276613 5.301254-9.401372 2.519676-4.407175 4.949041-8.868538 7.685464-13.140247a87.141058 87.141058 0 0 1 20.211596-21.89138c6.186302-4.804544 12.905438-8.696947 19.76004-12.399696 12.571287-6.773323 26.000529-10.530259 40.296757-10.900535 5.238036-0.135466 10.485104 0.072249 15.732171 0.090311 5.418658 0.027093 10.837317 0.189653 16.246944 0 16.057291-0.559928 30.931508-5.301254 44.830367-13.221526 0.830861-0.478648 1.517224-1.219198 2.348086-1.905562l-2.339055-4.045931c-1.679784 0.857954-2.853827 1.499162-4.063993 2.068121-3.982714 1.869437-7.90221 3.892403-11.984267 5.527031a88.757624 88.757624 0 0 1-33.216375 6.267582c-4.741326 0-9.482652-0.207715-14.214948-0.225778-5.418658-0.027093-10.837317-0.126435-16.237913 0.126436-11.984266 0.559928-23.381511 3.567283-34.263983 8.552449-7.396469 3.386661-14.476849 7.351313-21.177923 12.011359a101.780467 101.780467 0 0 0-20.238689 18.342159c-4.786482 5.743778-8.696947 12.074577-12.309386 18.604061l-6.09599 11.099218c-1.517224-1.788157-2.944138-3.639532-4.506518-5.382534a324.279611 324.279611 0 0 0-14.052387-14.711657c0.298026-0.442524 0.596052-0.876016 0.876016-1.336603 2.980262-4.912917 5.653467-10.024518 8.507294-15.018715 2.519676-4.407175 4.949041-8.868538 7.685464-13.140246a87.141058 87.141058 0 0 1 20.211595-21.89138c6.186302-4.804544 12.905438-8.696947 19.760041-12.399697 12.571287-6.773323 26.000529-10.530259 40.296756-10.891503 5.238036-0.135466 10.485104 0.063218 15.732172 0.090311 5.418658 0.027093 10.837317 0.189653 16.246944 0 16.057291-0.559928 30.931508-5.301254 44.830367-13.221527 0.830861-0.478648 1.517224-1.219198 2.348085-1.905561l-2.339054-4.045932c-1.679784 0.857954-2.853827 1.499162-4.063994 2.068122-3.982714 1.869437-7.90221 3.892403-11.984266 5.527031a88.757624 88.757624 0 0 1-33.216376 6.267582c-4.741326 0-9.482652-0.207715-14.214947-0.225778-5.418658-0.027093-10.837317-0.126435-16.237913 0.126436-11.984266 0.559928-23.381511 3.567283-34.263983 8.552449-7.396469 3.386661-14.476849 7.351313-21.177923 12.011359a101.780467 101.780467 0 0 0-20.238689 18.342159c-4.786482 5.743778-8.696947 12.074577-12.309386 18.60406-2.691267 4.885824-5.34641 9.807772-8.06477 14.684565-0.767643 1.372727-1.634629 2.63708-2.483552 3.928527a305.756831 305.756831 0 0 0-20.98827-18.197661 92.117193 92.117193 0 0 0 7.766744-10.756037c2.980262-4.912917 5.653467-10.024518 8.507294-15.018715 2.519676-4.407175 4.949041-8.868538 7.685463-13.140247a87.141058 87.141058 0 0 1 20.211596-21.891379c6.186302-4.804544 12.905438-8.696947 19.760041-12.399697 12.571287-6.773323 26.000529-10.530259 40.296756-10.891503 5.238036-0.135466 10.485104 0.063218 15.732172 0.090311 5.418658 0.027093 10.837317 0.189653 16.246944 0 16.057291-0.559928 30.931508-5.301254 44.830367-13.221527 0.830861-0.478648 1.517224-1.219198 2.348085-1.905561l-2.339054-4.045932c-1.679784 0.857954-2.853827 1.499162-4.063994 2.068121-3.982714 1.869437-7.911241 3.892403-11.984266 5.527032a88.757624 88.757624 0 0 1-33.216376 6.267581c-4.741326 0-9.482652-0.207715-14.214947-0.225777-5.418658-0.027093-10.837317-0.126435-16.237913 0.126435-11.984266 0.559928-23.381511 3.567283-34.263983 8.552449-7.396469 3.386661-14.476849 7.351313-21.177923 12.01136a101.780467 101.780467 0 0 0-20.238689 18.342158c-4.786482 5.743778-8.696947 12.074577-12.309386 18.604061-2.691267 4.885824-5.34641 9.807772-8.06477 14.684564a91.006368 91.006368 0 0 1-9.591025 13.835641 297.077946 297.077946 0 0 0-24.60974-17.050711 92.929991 92.929991 0 0 0 18.486656-21.8101c2.980262-4.912917 5.653467-10.024518 8.507293-15.018715 2.519676-4.407175 4.949041-8.868538 7.685464-13.140247a87.141058 87.141058 0 0 1 20.211596-21.89138c6.186302-4.804544 12.905438-8.696947 19.760041-12.399696 12.571287-6.773323 26.000529-10.530259 40.296756-10.891504 5.238036-0.135466 10.485104 0.072249 15.732172 0.090311 5.418658 0.027093 10.837317 0.189653 16.246944 0 16.057291-0.559928 30.931508-5.301254 44.830367-13.221526 0.830861-0.478648 1.517224-1.219198 2.348085-1.905562l-2.339054-4.045931c-1.679784 0.857954-2.853827 1.499162-4.063994 2.068121-3.982714 1.869437-7.90221 3.892403-11.984266 5.527031a88.757624 88.757624 0 0 1-33.216376 6.267582c-4.741326 0-9.482652-0.207715-14.214947-0.225777-5.418658-0.027093-10.837317-0.126435-16.237913 0.126435-11.984266 0.559928-23.381511 3.567283-34.263983 8.552449-7.396469 3.386661-14.476849 7.351313-21.177923 12.01136a101.780467 101.780467 0 0 0-20.23869 18.342158c-4.786482 5.743778-8.696947 12.074577-12.309385 18.604061-2.691267 4.885824-5.34641 9.807772-8.06477 14.684564a91.936571 91.936571 0 0 1-21.042457 25.377383 308.475191 308.475191 0 0 0-71.860441-30.94957 301.3045 301.3045 0 0 0-123.084825-9.338155 300.428483 300.428483 0 0 0-110.423227 36.711411c-11.008908 6.222426-21.773976 12.815127-31.843649 20.446404-7.08038 5.364472-14.675533 10.20514-20.094192 17.791262l1.932655 1.761064c3.070573-1.345633 5.527032-3.106697 7.947366-5.048384a359.654419 359.654419 0 0 1 18.143474-13.889827 300.338172 300.338172 0 0 1 59.370434-32.611293c22.541619-9.184626 45.832819-15.786358 69.972942-19.26333 49.011765-7.053287 96.984954-2.71836 143.630571 13.862734 66.288254 23.571164 118.298344 65.18646 155.678056 124.927169a296.581236 296.581236 0 0 1 36.341136 85.036813c30.236114 119.589791-15.479301 251.723775-126.688234 325.01113a294.007373 294.007373 0 0 1-77.378441 36.205669c-51.513379 15.488332-103.595717 17.44808-155.903833 4.894855-76.511456-18.360221-137.010777-60.345792-181.254123-125.369693-17.384862-25.548974-30.154834-53.418941-38.869843-83.149313-30.588327-104.372392-1.454007-218.444182 74.669112-295.163354 2.853827-2.871889 5.734747-5.707654 8.651792-8.498262 1.89653-1.815251 2.664174-3.838216 1.490131-6.90879-2.673205 0.605084-4.082056 2.248743-5.626374 3.693719a297.484346 297.484346 0 0 0-56.254705 71.544353c-27.282945 48.578272-40.531565 100.154869-39.881326 154.621417a17.086836 17.086836 0 0 1-1.128887 0.433493c-5.436721 1.932655-11.017939 3.242164-16.70753 4.154304-1.995873 0.32512-3.982714 1.011483-5.969555 1.029546-6.08696 0.036124-12.173919-0.207715-18.260879-0.279965-5.581218-0.072249-11.162436-0.180622-16.743655-0.072248-12.697723 0.234809-24.799393 3.20604-36.341135 8.416982-7.414531 3.341506-14.48588 7.315189-21.223079 11.921049-11.279841 7.604184-20.762493 17.095867-28.005433 28.764045-2.582894 4.163336-4.903886 8.498263-7.342282 12.76094-2.763516 4.849699-5.391565 9.789709-8.299578 14.549098a84.494946 84.494946 0 0 1-24.19431 25.67541c-3.197008 2.212619-6.439172 4.371051-9.62715 6.592701-0.370275 0.252871-0.550897 0.785705-0.91214 1.327571l2.293898 3.531159c1.390789-0.677332 2.619018-1.165012 3.738875-1.833313 14.540067-8.651791 26.262431-20.148378 34.851004-34.742631 2.402272-4.082056 4.596829-8.290547 6.944914-12.408728 2.682236-4.705202 5.256099-9.473621 8.164112-14.034325a86.951405 86.951405 0 0 1 20.202565-21.89138c6.195333-4.813575 12.905438-8.715009 19.769072-12.399696 12.571287-6.764292 25.991498-10.557353 40.287725-10.909566 5.409627-0.135466 10.828286 0.036124 16.237913 0.117404 6.08696 0.090311 12.164888 0.198684 18.260878-0.207715a93.688604 93.688604 0 0 0 24.103999-5.039352c0.225777 7.549997 0.65927 15.136119 1.417882 22.794489 0.24384 2.46549 0.57799 4.903886 0.885048 7.342282-0.65927 0.135466-1.309509 0.279964-1.97781 0.379307-1.995873 0.32512-3.982714 1.020514-5.969556 1.029545-6.08696 0.036124-12.173919-0.207715-18.260878-0.279964-5.581218-0.072249-11.162436-0.180622-16.743655-0.072249-12.697723 0.234809-24.799393 3.20604-36.341135 8.416983-7.414531 3.341506-14.48588 7.315189-21.223079 11.921048-11.352089 7.748681-20.834742 17.240365-28.077682 28.908543-2.582894 4.163336-4.903886 8.498263-7.342282 12.76094-2.763516 4.849699-5.391565 9.789709-8.299578 14.549098a84.494946 84.494946 0 0 1-24.19431 25.675409c-3.197008 2.212619-6.439172 4.371051-9.62715 6.592702-0.370275 0.261902-0.550897 0.794737-0.91214 1.336602l2.293898 3.531159c1.390789-0.677332 2.619018-1.174043 3.738875-1.833313 14.540067-8.651791 26.262431-20.148378 34.851004-34.742631 2.402272-4.082056 4.596829-8.290547 6.944914-12.408728 2.682236-4.705202 5.256099-9.473621 8.164112-14.034325a86.951405 86.951405 0 0 1 20.202565-21.89138c6.195333-4.813575 12.905438-8.715009 19.769072-12.399697 12.571287-6.764292 25.991498-10.557353 40.287725-10.909565 5.409627-0.135466 10.828286 0.036124 16.237913 0.117404 6.08696 0.090311 12.164888 0.198684 18.260878-0.207715 2.998324-0.198684 5.933431-0.668301 8.850476-1.174043 1.327571 9.329124 3.151853 18.531812 5.355441 27.635158-4.669077-0.054187-9.329124-0.171591-13.998201-0.234809-5.581218-0.072249-11.162436-0.180622-16.743655-0.072248-12.697723 0.234809-24.799393 3.20604-36.341135 8.416982-7.414531 3.341506-14.48588 7.315189-21.223079 11.921049-11.352089 7.748681-20.834742 17.240365-28.077682 28.908542-2.582894 4.163336-4.903886 8.498263-7.342282 12.760941-2.763516 4.849699-5.391565 9.789709-8.299578 14.549098a84.494946 84.494946 0 0 1-24.19431 25.675409c-3.197008 2.212619-6.439172 4.371051-9.62715 6.592701-0.370275 0.261902-0.550897 0.794737-0.91214 1.336603l2.293898 3.531159c1.390789-0.677332 2.619018-1.174043 3.738875-1.833313 14.540067-8.651791 26.262431-20.148378 34.851004-34.742631 2.402272-4.082056 4.596829-8.290547 6.944914-12.408728 2.682236-4.705202 5.256099-9.473621 8.164112-14.034325a86.951405 86.951405 0 0 1 20.202565-21.89138c6.195333-4.813575 12.905438-8.715009 19.769072-12.399697 12.571287-6.764292 25.991498-10.557353 40.287725-10.909565 5.409627-0.135466 10.828286 0.036124 16.237913 0.117404 5.18385 0.08128 10.3677 0.099342 15.56058-0.126435 2.311961 8.859506 5.003228 17.61064 8.127988 26.244368-1.743002-0.036124-3.476972-0.08128-5.219974-0.099342-5.581218-0.072249-11.162436-0.180622-16.743655-0.072248-12.697723 0.234809-24.799393 3.20604-36.341135 8.416982-7.414531 3.341506-14.48588 7.315189-21.223079 11.921049-11.352089 7.748681-20.834742 17.240365-28.077681 28.908542-2.582894 4.163336-4.903886 8.498263-7.342283 12.760941-2.763516 4.849699-5.391565 9.789709-8.299578 14.549097a84.494946 84.494946 0 0 1-24.19431 25.67541c-3.197008 2.212619-6.439172 4.371051-9.627149 6.592701-0.370275 0.261902-0.550897 0.794737-0.912141 1.336603l2.293898 3.531159c1.390789-0.677332 2.619018-1.174043 3.738875-1.833313 14.540067-8.651791 26.262431-20.148378 34.851004-34.742632 2.402272-4.082056 4.596829-8.290547 6.944914-12.408727 2.682236-4.705202 5.256099-9.473621 8.164112-14.034325a86.951405 86.951405 0 0 1 20.202565-21.89138c6.195333-4.813575 12.905438-8.715009 19.769072-12.399697 12.571287-6.764292 25.991498-10.557353 40.287725-10.909566 5.409627-0.135466 10.828286 0.036124 16.237913 0.117405 2.519676 0.036124 5.030321 0.009031 7.549997-0.009031 2.366147 6.168239 4.876793 12.291323 7.640309 18.351189 1.192105 2.619018 2.619018 5.111601 3.883371 7.694495l-0.605083-0.009031c-5.581218-0.072249-11.162436-0.180622-16.743655-0.072249-12.697723 0.234809-24.799393 3.20604-36.341135 8.416983-7.414531 3.341506-14.48588 7.315189-21.223079 11.921049-11.352089 7.748681-20.834742 17.240365-28.077681 28.908542-2.582894 4.163336-4.903886 8.498263-7.342282 12.760941-2.763516 4.849699-5.391565 9.789709-8.299579 14.549097a84.494946 84.494946 0 0 1-24.19431 25.67541c-3.197008 2.212619-6.439172 4.371051-9.627149 6.592701-0.370275 0.261902-0.550897 0.794737-0.912141 1.336602l2.293899 3.53116c1.390789-0.677332 2.619018-1.174043 3.738874-1.833313 14.540067-8.651791 26.262431-20.148378 34.851004-34.742632 2.402272-4.082056 4.596829-8.290547 6.944914-12.408727 2.682236-4.705202 5.256099-9.473621 8.164112-14.034326a86.951405 86.951405 0 0 1 20.202565-21.891379c6.195333-4.813575 12.905438-8.715009 19.769072-12.399697 12.571287-6.764292 25.991498-10.557353 40.287725-10.909566 5.409627-0.135466 10.828286 0.036124 16.237913 0.117405l3.657594 0.036124a288.489373 288.489373 0 0 0 15.009684 25.991498h-0.207715c-5.581218-0.072249-11.162436-0.180622-16.743655-0.072249-12.697723 0.234809-24.799393 3.20604-36.341135 8.416983-7.414531 3.341506-14.48588 7.315189-21.223079 11.921048-11.352089 7.748681-20.834742 17.240365-28.077681 28.908543-2.582894 4.163336-4.903886 8.498263-7.342282 12.760941-2.763516 4.849699-5.391565 9.789709-8.299579 14.549097a84.494946 84.494946 0 0 1-24.19431 25.67541c-3.197008 2.212619-6.439172 4.371051-9.627149 6.592701-0.370275 0.261902-0.550897 0.794737-0.912141 1.336602l2.293899 3.531159c1.390789-0.677332 2.619018-1.174043 3.738874-1.833312 14.540067-8.651791 26.262431-20.148378 34.851004-34.742632 2.402272-4.082056 4.596829-8.290547 6.944914-12.408727 2.682236-4.705202 5.256099-9.473621 8.164112-14.034326a86.951405 86.951405 0 0 1 20.202565-21.89138c6.195333-4.813575 12.905438-8.715009 19.769072-12.399696 12.571287-6.764292 25.991498-10.557353 40.287725-10.909566 5.409627-0.135466 10.828286 0.036124 16.237913 0.117405 1.354665 0.018062 2.71836 0.027093 4.073025 0.027093 6.195333 9.031097 12.788034 17.746106 19.823258 26.081809-1.806219-0.036124-3.62147-0.08128-5.427689-0.099342-5.581218-0.072249-11.162436-0.180622-16.743654-0.072249-12.697723 0.234809-24.799393 3.20604-36.341136 8.416983-7.414531 3.341506-14.48588 7.315189-21.223079 11.921048-11.352089 7.748681-20.834742 17.240365-28.077681 28.908543-2.582894 4.163336-4.903886 8.498263-7.342282 12.76094-2.763516 4.849699-5.391565 9.789709-8.299579 14.549098a84.494946 84.494946 0 0 1-24.19431 25.67541c-3.197008 2.22165-6.439172 4.371051-9.627149 6.592701-0.370275 0.261902-0.550897 0.794737-0.912141 1.336602l2.293899 3.531159c1.390789-0.677332 2.619018-1.165012 3.738874-1.833313 14.540067-8.651791 26.262431-20.148378 34.851004-34.742631 2.402272-4.082056 4.596829-8.290547 6.944914-12.408728 2.682236-4.705202 5.256099-9.473621 8.164112-14.034325a86.951405 86.951405 0 0 1 20.202565-21.89138c6.195333-4.813575 12.905438-8.715009 19.769072-12.399696 12.571287-6.764292 25.991498-10.557353 40.287725-10.909566 5.409627-0.135466 10.828286 0.036124 16.237913 0.117404 3.431817 0.054187 6.854603 0.027093 10.277389-0.027093 2.71836 3.061542 5.481876 6.08696 8.344734 9.031097a329.002875 329.002875 0 0 0 18.143474 17.294552h-0.045155c-6.08696 0.036124-12.173919-0.207715-18.260879-0.279964-5.581218-0.072249-11.162436-0.180622-16.743654-0.072249-12.697723 0.234809-24.799393 3.20604-36.341136 8.416983-7.414531 3.341506-14.48588 7.315189-21.223079 11.921048-11.352089 7.748681-20.834742 17.240365-28.077681 28.908543-2.582894 4.163336-4.903886 8.498263-7.342282 12.76094-2.763516 4.849699-5.391565 9.789709-8.299579 14.549098a84.494946 84.494946 0 0 1-24.19431 25.675409c-3.197008 2.212619-6.439172 4.371051-9.627149 6.592702-0.370275 0.261902-0.550897 0.794737-0.912141 1.336602l2.293899 3.531159c1.390789-0.677332 2.619018-1.174043 3.738874-1.833313 14.540067-8.651791 26.262431-20.148378 34.851004-34.742631 2.402272-4.082056 4.596829-8.290547 6.944914-12.408728 2.682236-4.705202 5.256099-9.473621 8.164112-14.034325a86.951405 86.951405 0 0 1 20.202565-21.89138c6.195333-4.813575 12.905438-8.715009 19.769072-12.399697 12.571287-6.764292 25.991498-10.557353 40.287725-10.909565 5.409627-0.135466 10.828286 0.036124 16.237913 0.117404 6.08696 0.090311 12.164888 0.198684 18.260879-0.207715 1.905562-0.126435 3.774999-0.388337 5.644436-0.650239a306.515443 306.515443 0 0 0 31.220503 23.2912c-4.082056 1.210167-8.22733 2.167463-12.435821 2.844796-1.995873 0.32512-3.982714 1.020514-5.969555 1.029545-6.08696 0.036124-12.173919-0.207715-18.260879-0.279964-5.581218-0.072249-11.162436-0.180622-16.743654-0.072249-12.697723 0.234809-24.799393 3.20604-36.341136 8.416983-7.414531 3.341506-14.48588 7.315189-21.223079 11.921048-11.352089 7.748681-20.834742 17.240365-28.077681 28.908542-2.582894 4.163336-4.903886 8.498263-7.342282 12.760941-2.763516 4.849699-5.391565 9.789709-8.299579 14.549098a84.494946 84.494946 0 0 1-24.19431 25.675409c-3.197008 2.212619-6.439172 4.371051-9.627149 6.592701-0.370275 0.261902-0.550897 0.794737-0.912141 1.336603l2.293899 3.531159c1.390789-0.677332 2.619018-1.165012 3.738874-1.833313 14.540067-8.651791 26.262431-20.148378 34.851004-34.742631 2.402272-4.082056 4.596829-8.290547 6.944914-12.408728 2.682236-4.705202 5.256099-9.473621 8.164112-14.034325a86.951405 86.951405 0 0 1 20.202565-21.89138c6.195333-4.813575 12.905438-8.715009 19.769072-12.399697 12.571287-6.764292 25.991498-10.557353 40.287725-10.909565 5.409627-0.135466 10.828286 0.036124 16.237913 0.117404 6.08696 0.090311 12.164888 0.198684 18.260879-0.207715 8.4802-0.568959 16.617219-2.429365 24.555553-5.18385 33.279594 20.455435 70.072284 34.164641 110.468383 40.838622 61.899141 10.223202 121.432134 1.64366 178.355141-24.60974a297.19535 297.19535 0 0 0 52.1004-31.012788 306.154199 306.154199 0 0 0 41.15471-36.323074c55.125818-58.503448 84.874253-136.821124 82.977723-217.089517a92.821618 92.821618 0 0 0 19.326548-22.460339c2.980262-4.912917 5.653467-10.024518 8.507293-15.018715 2.519676-4.407175 4.949041-8.868538 7.685464-13.140246a87.141058 87.141058 0 0 1 20.211596-21.89138c6.186302-4.804544 12.905438-8.696947 19.760041-12.399697 12.571287-6.773323 26.000529-10.530259 40.296756-10.891503 5.238036-0.135466 10.485104 0.072249 15.732172 0.090311 5.418658 0.027093 10.837317 0.189653 16.246944-0.009031 16.057291-0.559928 30.931508-5.301254 44.830367-13.221527 0.830861-0.478648 1.517224-1.219198 2.348085-1.905561-0.74055-1.535287-1.39982-2.673205-2.311961-4.253647z" fill="#FA6268" p-id="3284"></path></svg>