<?xml version="1.0" standalone="no"?><!DOCTYPE svg PUBLIC "-//W3C//DTD SVG 1.1//EN" "http://www.w3.org/Graphics/SVG/1.1/DTD/svg11.dtd"><svg t="1512982820028" class="icon" style="" viewBox="0 0 1024 1024" version="1.1" xmlns="http://www.w3.org/2000/svg" p-id="3537" xmlns:xlink="http://www.w3.org/1999/xlink" width="64" height="64"><defs><style type="text/css"></style></defs><path d="M315.537509 282.646253c-4.452331 4.082056-8.958849 8.091863-13.338931 12.246168-19.100771 18.143475-35.257404 38.671159-48.80405 61.212777-50.899264 84.675568-60.174201 193.942815-10.918596 291.966345 14.368476 28.601485 33.017692 54.213677 55.595435 76.972043 88.242852 89.001464 230.256857 118.424779 353.468118 54.665232 26.894608-13.916921 51.007638-31.744307 72.610022-53.00351 95.097455-93.553137 118.560246-242.62946 51.125042-362.137972-12.471945-22.099095-27.129416-42.554531-44.712963-60.82444-45.507699-47.295857-100.65158-76.800452-165.151676-88.811811-4.497486-0.830861-8.976911-2.230681-13.65502-1.444976a2.257774 2.257774 0 0 1-1.390789-0.180622c-3.332475-1.89653-7.071349-1.56238-10.638632-1.878468-63.524739-5.653467-122.994514 7.396469-178.364172 38.996278a282.4566 282.4566 0 0 0-31.581747 20.825711c-0.939234 0.713457-2.013935 1.56238-2.402272 2.573863-0.587021 1.544318-1.426913 1.986841-2.980262 2.492582-3.892403 1.264354-4.235585 2.284868-3.44988 6.556577 0.090311 0.478648 0.343182 0.948265 0.316089 1.408851-0.018062 0.370275-0.343182 0.731519-0.505742 1.038576-2.239712 0.57799-2.655143-1.89653-5.219974-2.673204z m17.935759 3.404723a538.777204 538.777204 0 0 1 20.509622-15.081932c3.558252-2.492583 7.477749-4.470393 11.225654-6.701074a283.558393 283.558393 0 0 1 80.620606-32.611293c36.53982-8.615667 73.431852-10.114829 110.522569-4.109149 64.671688 10.476073 119.770413 39.384615 165.007179 86.806907a278.491948 278.491948 0 0 1 45.887005 64.391724c57.148784 110.350978 35.997954 236.53347-37.226183 321.335474a286.827651 286.827651 0 0 1-47.467447 43.791791 283.188118 283.188118 0 0 1-48.072531 28.655671c-52.624204 24.555554-107.81324 32.909319-165.26005 24.085937-66.08957-10.150953-122.208809-39.75489-168.032597-88.495723-18.369252-19.534263-33.49634-41.452737-45.643165-65.4303-27.608064-54.493641-37.063623-111.958513-28.411833-172.34043 6.303706-43.954351 22.22553-84.269169 47.160391-121.007673a382.015416 382.015416 0 0 1 8.832413-12.417759 6.737199 6.737199 0 0 0 1.255322-4.840668c1.72494-0.785705 3.350537-1.056638 4.190429-2.004903 3.684688-4.154305 7.143598-8.516325 10.322545-12.363573 0.424462-2.22165-1.390789-4.181398 0.469617-5.328347 1.309509-0.803768 3.115729-0.767643 6.014711-1.372727 2.88092-2.727391 6.917821-6.195333 10.53929-10.04258 5.319316-5.635405 11.478525-10.223202 17.556453-14.919373z" fill="#20B78B" p-id="3538"></path><path d="M411.312296 335.315612c-97.815815 56.471452-131.330217 181.552149-74.858766 279.367964s181.552149 131.330217 279.367965 74.858766 131.330217-181.552149 74.858765-279.367964-181.552149-131.330217-279.367964-74.858766z m266.318029 82.390701c52.317147 90.608999 21.268234 206.477978-69.340765 258.786093C517.68056 728.809553 401.811582 697.760641 349.503466 607.151641c-52.317147-90.608999-21.268234-206.477978 69.340765-258.786093 90.608999-52.317147 206.477978-21.268234 258.786094 69.340765zM284.759529 513.426913l0.171591 6.24952-12.625474 0.325119c-0.207715-8.155081-1.652691-13.934983-4.325895-17.330676s-6.285644-5.048383-10.855379-4.921948c-4.632953 0.117404-8.209267 2.05909-10.728944 5.806996-2.528707 3.738874-3.711781 8.859506-3.549221 15.361897l0.487679 18.631153 5.770871-0.135466-0.153528-6.159209 36.259855-0.939234 0.16256 6.150178 5.770871-0.16256-0.587021-23.020267-5.797965 0.144497z m-36.097296 7.188754c-0.099342-3.793061 0.460586-6.66495 1.670753-8.615667 1.219198-1.950717 3.549221-2.9622 7.017163-3.061542 2.682236-0.063218 4.68714 0.424462 6.00568 1.444976a6.809447 6.809447 0 0 1 2.519676 3.865309c0.370275 1.544318 0.57799 3.513097 0.641208 5.906338l-17.85448 0.460586zM289.961441 460.757554l-37.108778 2.71836 0.794736-5.192881-5.716684-0.876016-4.208492 27.562909 5.707654 0.876016 0.785705-5.192881 34.607165 13.700175-0.713457 4.641984 5.716685 0.876016 3.04348-19.904538-5.707654-0.885048-0.722488 4.723264-10.448979-3.449879 1.354665-8.895631 11.008907-0.171591-0.722488 4.732295 5.707654 0.866986 3.052511-19.904539-5.716685-0.876016-0.713457 4.651015z m-19.58845 18.053163l-20.590902-6.403048 0.189654-1.183073 21.56626 0.027093-1.165012 7.559028zM298.820948 418.762951c-4.77745-1.72494-10.999877-0.198684-18.649216 4.578767l-5.066446 3.160884c-2.320992 1.463038-4.307833 2.366147-5.942462 2.700298a7.802868 7.802868 0 0 1-4.36202-0.180622c-2.203588-0.794737-2.817702-2.564832-1.81525-5.328348 0.57799-1.634629 1.426913-2.673205 2.519676-3.124759 1.101794-0.460586 2.582894-0.352213 4.452331 0.325119l3.404724 1.22823 3.079604-8.561481-13.429242-4.831637-3.079604 8.543418 1.336602 0.496711c-2.122308 1.535287-3.684688 3.657594-4.669077 6.394017-1.174043 3.251195-1.201136 6.267582-0.090311 9.022066 1.128887 2.763516 3.160884 4.678108 6.105022 5.734747 2.46549 0.894079 4.849699 1.038576 7.143598 0.451554s5.635405-2.239712 10.024518-4.921948c4.271709-2.591925 6.9991-4.190429 8.200236-4.768419s2.582894-0.948265 4.163336-1.110825c1.571411-0.171591 2.926076-0.045155 4.054963 0.361244a4.208491 4.208491 0 0 1 2.691267 2.546769 5.716685 5.716685 0 0 1-0.126436 4.082056c-0.704426 1.950717-1.688815 3.151853-2.944137 3.585346-1.264354 0.433493-3.097666 0.207715-5.490908-0.65927l-4.154304-1.4811-3.079605 8.543418 15.461239 5.572187 3.079604-8.552449-1.39982-0.505742c2.203588-1.625598 3.838216-3.892403 4.885824-6.809447 1.300478-3.585346 1.336602-6.962976 0.16256-10.087736a10.385762 10.385762 0 0 0-6.466266-6.403048zM279.313778 396.320675c2.266805 1.31854 4.587797 1.878468 6.953945 1.697846 2.366147-0.189653 5.933431-1.210167 10.737974-3.088635 4.660046-1.806219 7.622246-2.88092 8.904662-3.251196 1.282416-0.370275 2.709329-0.49671 4.289772-0.379306 1.580442 0.108373 2.898982 0.469617 3.946589 1.074701a4.271709 4.271709 0 0 1 2.203588 2.971231 5.779902 5.779902 0 0 1-0.848923 4.000776c-1.029545 1.797188-2.212619 2.808671-3.531159 3.007356s-3.079604-0.32512-5.310286-1.598505l-3.820154-2.194556-4.52458 7.884148 14.242041 8.191205 4.542642-7.884148-1.300478-0.74055c2.447427-1.219198 4.4433-3.160884 5.996648-5.852151 1.89653-3.296351 2.537738-6.592701 1.923624-9.907114a10.358669 10.358669 0 0 0-5.238036-7.423562c-4.398144-2.537738-10.792161-2.122308-19.17302 1.228229l-5.527031 2.230681c-2.546769 1.029545-4.660046 1.580442-6.3308 1.625598s-3.097666-0.270933-4.271709-0.939234c-2.031997-1.183074-2.311961-3.025418-0.848923-5.572187 0.857954-1.499162 1.869437-2.375179 3.025418-2.637081 1.165012-0.24384 2.600956 0.126435 4.325895 1.101794l3.133791 1.80622 4.542642-7.875117-12.381634-7.116505-4.533611 7.884148 1.23726 0.704426a13.113153 13.113153 0 0 0-5.716684 5.472845c-1.72494 3.007355-2.284868 5.951493-1.661722 8.868537 0.632177 2.926076 2.30293 5.156757 5.012259 6.710106zM326.925723 340.23756l5.825058-5.400596-8.435045-9.130439 4.69617-4.343958 25.115482 27.192634-4.371051 4.027869 3.919496 4.244616 16.554001-15.298679-3.919496-4.244616-4.371051 4.045932-25.097419-27.192634 4.687139-4.334927 8.444076 9.139471 5.834089-5.391565-11.857831-12.851252-28.899511 26.695924zM362.670806 294.323461l18.68534 31.076006-4.930979 2.9622 2.980262 4.958073 17.086836-10.268358-2.971231-4.958072-3.034448 1.833312-8.660823-14.395569 9.040129-5.427689 8.651791 14.377507-3.04348 1.833312 2.971231 4.949042 17.095867-10.268358-2.971231-4.958072-4.930979 2.971231-18.694371-31.085037 4.930979-2.971231-2.980262-4.940011-17.077805 10.259327 2.971231 4.958072 3.04348-1.833312 7.062318 11.758488-9.040129 5.42769-7.062318-11.749458 3.04348-1.824281-2.971231-4.949042-17.095867 10.268358 2.971231 4.949041zM412.125095 267.717849l11.776551 34.309138-5.996649 2.068122 1.869437 5.454783 21.358545-7.333251-1.869437-5.463814-5.292223 1.81525-5.165787-15.072901c1.607535-0.541866 2.908013-1.056638 3.910465-1.526256l15.858607 17.69192 12.047483-4.127212-1.878468-5.454782-4.253647 1.444975-13.50149-14.196885c4.849699-4.253647 6.466266-8.769195 4.822606-13.555677-1.273385-3.693719-4.0369-6.068897-8.30861-7.116504-4.271709-1.038576-9.401372-0.532835-15.425114 1.535286l-17.827386 6.114053 1.869437 5.463814 6.00568-2.050059z m18.784682-4.786482c2.022966 0.406399 3.476972 1.89653 4.352989 4.461362 0.830861 2.420334 0.596052 4.470393-0.686363 6.150178-1.300478 1.697846-3.847247 3.197008-7.658371 4.488455l-4.723264-13.772424c3.78403-1.300478 6.683012-1.752033 8.715009-1.327571zM466.998042 289.654384c3.449879 3.549221 8.109925 4.867761 14.007232 3.937559 11.451431-1.797188 15.921825-10.737975 13.384086-26.840422-1.300478-8.191205-3.756936-14.115605-7.396468-17.773199-3.639532-3.648563-8.200236-5.057414-13.673082-4.19946-3.612439 0.568959-6.58367 1.97781-8.8866 4.226553s-3.856279 5.301254-4.623921 9.193657c-0.776674 3.874341-0.74055 8.534387 0.117404 13.971108 1.273385 8.100894 3.630501 13.934983 7.071349 17.484204z m3.278288-33.713086c0.279964-2.908013 1.634629-4.542642 4.02787-4.921948 2.275837-0.352213 3.982714 0.677332 5.138694 3.097666s2.320992 7.342282 3.486004 14.765844c1.065669 6.791385 1.381758 11.478525 0.966327 14.079481-0.41543 2.591925-1.706877 4.054963-3.883372 4.398144-2.239712 0.352213-3.955621-0.641208-5.147725-2.980262-1.201136-2.348085-2.330023-6.935883-3.404724-13.754361-1.065669-6.881696-1.472069-11.785582-1.183074-14.684564zM509.588697 280.596194c-0.180622 3.007355 1.110825 5.536063 3.874341 7.604183 2.745454 2.068121 6.592701 3.242164 11.550773 3.540191 4.52458 0.252871 8.380858-0.514773 11.541743-2.320992 3.178946-1.797188 4.894855-4.85873 5.138694-9.184626l1.743002-30.353518 5.581218 0.316088 0.33415-5.770871-18.567936-1.056639-0.325119 5.76184 3.892403 0.216747-1.752033 30.642513c-0.135466 2.284868-0.677332 3.874341-1.634629 4.768419s-2.573863 1.282416-4.867761 1.155981c-2.230681-0.144498-3.78403-0.695394-4.669077-1.697846-0.876016-0.98439-1.246291-2.646112-1.110825-4.940011l1.761064-30.642513 3.982714 0.225778 0.33415-5.761841-20.356093-1.183073-0.334151 5.770871 5.743778 0.325119-1.860406 32.5842zM561.174325 295.316882c1.923624 1.4811 4.154305 2.555801 6.692043 3.224102 5.192881 1.336602 9.654243 0.74055 13.411179-1.797188 3.747905-2.546769 6.403048-6.818478 7.965428-12.788034l1.101794-4.208492-15.659923-4.100118-1.463037 5.590249 4.985165 1.30951c-0.98439 3.765968-2.068121 6.520452-3.242164 8.245391-1.174043 1.733971-2.908013 2.30293-5.19288 1.706878-1.580442-0.406399-2.628049-1.165012-3.142822-2.248743-0.514773-1.092763-0.568959-2.908013-0.207716-5.481877 0.361244-2.564832 1.255323-6.574639 2.673205-11.993297 1.300478-4.976135 2.438396-8.633729 3.386662-10.972783 0.948265-2.348085 1.905562-3.847247 2.853826-4.497486 0.939234-0.668301 2.158432-0.803768 3.639533-0.415431 3.901434 1.020514 5.012259 4.750357 3.314412 11.198561l8.80532 2.30293 3.937559-15.000653-8.80532-2.311961-0.460586 1.752033a13.600833 13.600833 0 0 0-7.179723-4.569735c-5.066446-1.327571-9.274937-0.352213-12.634505 2.908013-3.368599 3.251195-6.150177 9.085284-8.344734 17.484204-1.219198 4.651015-1.914593 8.407952-2.104245 11.288872-0.180622 2.889951 0.234809 5.463814 1.264353 7.73965s2.492583 4.163336 4.407176 5.635405zM592.41289 298.396486l-2.546769 5.18385 17.908666 8.778227 2.546769-5.174819-3.197008-1.56238 7.4055-15.081932 9.455559 4.651015-7.387438 15.072901-3.178946-1.56238-2.555801 5.174819 17.908666 8.796289 2.537739-5.192881-5.147726-2.528707 15.96698-32.566137 5.165788 2.528707 2.537738-5.174819-17.908666-8.796288-2.537738 5.183849 3.187977 1.56238-6.041804 12.309386-9.46459-4.641984 6.041804-12.309386 3.178947 1.56238 2.546769-5.18385-17.908666-8.787258-2.537738 5.201913 5.147725 2.528707-15.957949 32.557106z" fill="#20B78B" p-id="3539"></path><path d="M443.453971 496.665197c4.018838-1.499162 6.899758-1.119856 8.624698 1.15598 0.460586 5.039352-1.264354 8.06477-5.165787 9.076253-3.756936 0.568959-9.094315 0.16256-15.985043-1.174043l-5.545093 10.548322c6.267582 1.688815 7.974459 3.567283 5.084507 5.626374-1.788157 1.851375-5.752809 4.533611-11.866861 8.073801-0.921172 0.532835-1.390789 1.824282-1.426914 3.883371 0.270933 1.887499 1.128887 3.016387 2.573863 3.404724 4.045932 1.336602 7.053287 2.655143 9.040128 3.964652 2.727391 3.314413 5.319316 8.14605 7.748682 14.48588 0.57799 1.706877 2.004904 5.572187 4.271709 11.60496 3.820154 10.855379 6.240488 18.233785 7.270033 22.117157l14.693596-8.471169c-4.244616-7.342282-6.321768-11.641084-6.231458-12.9235-0.857954-3.576315 0.406399-6.33983 3.78403-8.290548 5.02129-3.305382 9.193657-2.447427 12.50807 2.573863 1.941686 3.368599 3.522128 7.143598 4.714233 11.343058l13.781454-7.947365c-2.862858-2.826733-5.626374-6.547546-8.272485-11.126312-1.15598-3.404724 0.686363-6.926852 5.536063-10.539291 3.576315-3.693719 6.683012-4.678108 9.329123-2.935106 0.099342 1.589473-0.478648 2.71836-1.697846 3.422786a6.773323 6.773323 0 0 1-5.012259-0.180622l1.589473 14.395569c9.645212-0.261902 15.867638-2.212619 18.649216-5.870213 2.835765-2.853827 3.061542-7.053287 0.668301-12.607412-0.758612-2.013935-7.297127-11.902986-19.606512-29.685217a89.949729 89.949729 0 0 1-3.919496-5.698623c-1.183074-1.345633-1.72494-3.684688-1.607536-7.017162-0.279964-4.723264-2.745454-6.159208-7.387437-4.307834l-9.184626 5.301255c-2.591925-0.948265-4.045932-2.763516-4.36202-5.445752-0.018062-2.835765 1.146949-7.179722 3.495035-13.013811 2.438396-4.262678 2.483552-7.342282 0.162559-9.265906-1.715908-2.266805-5.18385-1.905562-10.385762 1.101794a1894.660999 1894.660999 0 0 0-58.259608 34.81488l7.694495 13.302806c14.251072-10.674757 25.810876-18.567936 34.697475-23.697599z m44.541372 29.378159a7.920272 7.920272 0 0 1-1.490131 6.962976c-5.84312 5.427689-10.539291 6.493359-14.061418 3.215071-0.677332-3.278288 2.293899-6.619794 8.895631-10.024518 2.63708-1.092763 4.849699-1.146949 6.655918-0.153529z m-15.732171-16.62625c4.425238-0.108373 6.953945 1.092763 7.586122 3.585346 0.045155 3.62147-2.998324 6.818478-9.175595 9.563932-2.682236 0.316088-5.427689-0.550897-8.236361-2.591925-0.41543-4.235585 2.853827-7.766744 9.825834-10.557353z m-20.012912 26.840421c-0.948265 2.591925 0.08128 4.027869 3.115729 4.325896a7.965428 7.965428 0 0 1 6.782354 2.203588c0.361244 3.45891-1.535287 6.186302-5.689591 8.164112-4.461362 2.176494-7.468717 2.275837-9.013036 0.307057-1.228229-2.131339-0.650239-4.316865 1.743002-6.520452 2.004904-3.603408 1.255323-5.608311-2.257774-6.032773-4.912917-0.018062-7.748681-1.038576-8.498263-3.04348-0.668301-3.287319 1.201136-6.412079 5.617343-9.365248 4.452331-2.158432 7.82093-1.652691 10.069673 1.544318 0.803768 2.79964 0.180622 5.59928-1.869437 8.416982zM409.199019 531.714885a78.570547 78.570547 0 0 0-32.114582-16.355317l-6.240488 14.612316c9.699399 3.37763 19.83229 8.543418 30.389642 15.506394l7.965428-13.763393zM452.232198 591.320128c-2.402272 2.203588-2.22165 3.937558 0.550897 5.18385 14.223978 4.831637 40.450285-7.008132 78.651826-35.564462l-6.890727-11.921048c-23.480853 18.017039-47.575821 32.114582-72.311996 42.30166zM387.036706 562.230963l8.218299 14.223979c4.678108-3.919496 8.940786-6.782354 12.797065-8.597605 3.052511-1.761064 5.030321-1.878468 5.915369-0.352213 1.183074 1.354665 2.393241 1.679784 3.612439 0.966328 2.971231-3.332475 4.343958-9.437497 4.127211-18.287973-1.291447-5.770871-12.851251-1.752033-34.670383 12.047484zM448.62879 594.616478a189.860759 189.860759 0 0 0-8.841444-4.69617c-2.284868-1.128887-3.513097-1.842344-3.684688-2.149402-2.46549-1.417882-6.177271-5.012259-11.099218-10.728943l-0.532835-0.921172c-1.715908-2.266805-3.197008-3.052511-4.416207-2.348085-1.354665 1.192105-1.544318 3.332475-0.568959 6.439172 0.406399 1.39982 1.110825 4.045932 2.14037 7.938335 0.930203 2.320992 1.679784 4.334927 2.257775 6.032773 1.15598 3.431817 1.345633 6.574639 0.568959 9.46459l-0.388338 1.454006a174.688515 174.688515 0 0 0-5.644435 16.716561l15.985042 1.174043c0.812799-4.958072 1.815251-9.22075 3.04348-12.751909 0.027093-2.068121 3.919496-5.933431 11.650115-11.623023 2.149401-1.228229 1.986841-2.564832-0.469617-4.000776zM570.476355 527.416083c4.136243 2.908013 12.706754 1.842344 25.711534-3.206039a413.922283 413.922283 0 0 0 56.444358-29.486533l-8.218298-14.223978a417.706313 417.706313 0 0 1-59.370434 36.088264c-11.695271 5.906338-16.54497 9.527808-14.56716 10.828286z" fill="#20B78B" p-id="3540"></path><path d="M596.892315 449.161625c1.815251 3.856279 5.554125 10.665726 11.216623 20.455435 3.513097 11.02697-3.910465 15.497363-22.243593 13.429242l1.110825 14.657471c29.387191 1.408851 41.877198-7.026194 37.45196-25.26901-2.411303-8.407952-8.019614-17.402925-16.824934-26.99395-7.531935-6.673981-12.155857-9.70843-13.862734-9.139471-2.176494 0.442524-1.137918 4.741326 3.151853 12.860283zM554.997054 431.135555l0.180622-0.108374a40.043885 40.043885 0 0 0-0.180622 0.108374z" fill="#20B78B" p-id="3541"></path><path d="M533.006332 461.543259c0.930203-0.532835 3.431817-2.176494 7.549998-4.958072a878.590302 878.590302 0 0 1 33.460215-20.518653c2.754485-1.589473 6.673981-2.22165 11.76752-1.896531 3.332475 0.126435 5.454783-0.08128 6.375955-0.605083 0.307057-0.180622 0.65927-0.993421 1.047607-2.447428 1.634629-4.208491 3.991745-7.197785 7.053287-8.958848l5.969555-3.449879-6.619794-11.478525c-2.889951 2.077152-5.364472 3.097666-7.423562 3.070573-6.059866-0.587021-9.274937-4.027869-9.645212-10.349637 0.126435-0.469617 0.108373-0.866985-0.072249-1.183074l-9.401372 1.752033c0.379306 6.312737-0.180622 11.722364-1.64366 16.237913-1.029545 3.874341-5.527032 8.091863-13.492459 12.67966l-2.935107 1.697847a2487.597693 2487.597693 0 0 1-29.405253 17.565484l7.414531 12.84222zM583.390824 473.473339c-8.552449-10.557353-18.631154-17.393893-30.227082-20.509622l-5.816027 10.087736c5.418658 2.989293 14.233009 10.150953 26.479177 21.430793l9.563932-11.008907zM521.274937 471.965146l6.25855-14.594254c-16.265006-6.944914-27.391318-10.304482-33.406029-10.105798l-3.29635 12.300355c2.104246 0.830861 8.290547 3.37763 18.52278 7.676433l11.921049 4.723264zM562.899264 523.830737a24.284621 24.284621 0 0 1-2.709329-1.499162c-3.070573-1.074701-6.105022-3.838216-9.049159-8.23636a226.192863 226.192863 0 0 0-5.436721-7.279065c-3.919496-4.669077-6.710105-6.312737-8.371827-4.949041-2.763516 1.589473-2.031997 7.08038 2.176494 16.472721 4.289771 8.127988 4.976135 18.143475 2.041028 30.019368a63.20865 63.20865 0 0 0-0.821829 5.978586l14.341382 1.508193c1.354665-8.931755 3.720812-15.795389 7.071349-20.590901 0.749581-0.830861 1.64366-1.752033 2.691267-2.772547 1.968779-1.535287 2.989293-2.944138 3.079604-4.217523-0.090311-1.56238-1.761064-3.04348-5.012259-4.434269zM539.580971 487.733442c0.08128-1.273385 0.144498-2.935107 0.171591-5.003228 0.334151-2.230681 0.099342-3.720812-0.74055-4.452331-2.38421-2.709329-8.615667-1.15598-18.721465 4.678108-3.061542 1.761064-7.540966 4.958072-13.438272 9.591025l6.890727 11.921049c0.921172-0.532835 2.131339-1.23726 3.675656-2.113277 4.416207-2.944138 7.414531-4.470393 8.985942-4.578766 0.794737-0.036124 2.239712 0.352213 4.343958 1.174042 2.591925 0.948265 4.416207 0.930203 5.463814-0.099342 1.968779-1.535287 3.088635-5.256099 3.368599-11.11728z" fill="#20B78B" p-id="3542"></path><path d="M1013.966451 388.806802c-1.688815 0.866985-2.871889 1.517224-4.091087 2.077152-4.018838 1.878468-7.965428 3.919496-12.083608 5.572187a89.398832 89.398832 0 0 1-33.478278 6.312737c-4.77745 0-9.554901-0.207715-14.32332-0.225777-5.454783-0.027093-10.918597-0.126435-16.364349 0.126435-12.074577 0.559928-23.562133 3.594377-34.534916 8.624698-7.459686 3.413755-14.585222 7.4055-21.340483 12.10167a102.30427 102.30427 0 0 0-20.392218 18.486656c-4.822606 5.788933-8.769195 12.164888-12.399696 18.748558-2.709329 4.921948-5.382534 9.88002-8.127988 14.801969-3.856279 6.908789-8.678885 12.878345-13.962076 18.396345a308.88159 308.88159 0 0 0-4.885824-39.321397c1.002452-1.435944 2.095215-2.781578 3.016387-4.289772 3.007355-4.958072 5.698622-10.105798 8.570511-15.136119 2.537738-4.4433 4.994197-8.940786 7.73965-13.24862a87.836452 87.836452 0 0 1 20.365125-22.06297c6.231457-4.849699 13.00478-8.769195 19.913569-12.490008 12.67063-6.82751 26.199213-10.611539 40.612845-10.981814 5.274161-0.135466 10.566384 0.072249 15.858607 0.090311 5.454783 0.027093 10.918597 0.189653 16.373379 0 16.183726-0.568959 31.166317-5.34641 45.18258-13.320869 0.839892-0.478648 1.535287-1.228229 2.366148-1.923624l-2.348086-4.073024c-1.688815 0.866985-2.871889 1.517224-4.091087 2.077152-4.009807 1.878468-7.965428 3.919496-12.083608 5.563156a89.398832 89.398832 0 0 1-33.478278 6.312737c-4.77745 0-9.554901-0.207715-14.32332-0.225777-5.454783-0.027093-10.918597-0.126435-16.364348 0.126435-12.074577 0.559928-23.562133 3.594377-34.534916 8.624698-7.459686 3.413755-14.585222 7.4055-21.340483 12.10167a102.30427 102.30427 0 0 0-20.392218 18.486656c-4.822606 5.788933-8.769195 12.164888-12.399697 18.748558-2.709329 4.921948-5.382534 9.88002-8.127987 14.801969-0.614115 1.101794-1.354665 2.086183-2.022966 3.151853a310.52525 310.52525 0 0 0-9.798741-35.419964c1.517224-2.700298 3.034449-5.400596 4.569735-8.082832 2.537738-4.4433 4.994197-8.940786 7.739651-13.24862a87.836452 87.836452 0 0 1 20.365124-22.06297c6.231457-4.840668 13.00478-8.769195 19.91357-12.490008 12.67063-6.82751 26.199213-10.611539 40.612845-10.981814 5.274161-0.135466 10.566384 0.072249 15.858606 0.090311 5.454783 0.027093 10.918597 0.189653 16.37338-0.009031 16.183726-0.568959 31.166317-5.34641 45.18258-13.320869 0.839892-0.478648 1.535287-1.228229 2.366147-1.923624l-2.348085-4.073025c-1.697846 0.866985-2.871889 1.517224-4.091087 2.077153-4.009807 1.878468-7.965428 3.919496-12.083608 5.572187a89.398832 89.398832 0 0 1-33.478278 6.312737c-4.77745 0-9.554901-0.207715-14.32332-0.225778-5.454783-0.027093-10.918597-0.126435-16.364349 0.126436-12.074577 0.559928-23.562133 3.594377-34.534916 8.624698-7.459686 3.413755-14.585222 7.4055-21.340483 12.10167a102.30427 102.30427 0 0 0-20.392218 18.486656c-4.822606 5.788933-8.769195 12.164888-12.399696 18.748558l-4.10915 7.477749a315.934877 315.934877 0 0 0-12.84222-30.254176l1.56238-2.781578c2.537738-4.4433 4.994197-8.940786 7.73965-13.24862a87.836452 87.836452 0 0 1 20.365125-22.062971c6.231457-4.840668 13.00478-8.769195 19.913569-12.490007 12.67063-6.82751 26.199213-10.611539 40.612845-10.981814 5.274161-0.135466 10.566384 0.072249 15.858607 0.090311 5.454783 0.027093 10.918597 0.189653 16.373379-0.009032 16.183726-0.568959 31.166317-5.34641 45.18258-13.320868 0.839892-0.478648 1.535287-1.23726 2.366148-1.923624l-2.357117-4.073025c-1.688815 0.866985-2.871889 1.517224-4.091087 2.077153-4.009807 1.878468-7.965428 3.919496-12.083608 5.563156a89.398832 89.398832 0 0 1-33.478278 6.312737c-4.77745 0-9.554901-0.207715-14.32332-0.225778-5.454783-0.027093-10.918597-0.126435-16.364348 0.126436-12.074577 0.559928-23.562133 3.594377-34.534917 8.624697-7.459686 3.413755-14.585222 7.4055-21.340483 12.101671a102.30427 102.30427 0 0 0-20.392217 18.486656c-4.822606 5.788933-8.769195 12.164888-12.399697 18.748558l-1.580442 2.88092a307.274055 307.274055 0 0 0-15.181274-25.982467l1.381757-2.465489c2.537738-4.4433 4.994197-8.940786 7.739651-13.24862a87.836452 87.836452 0 0 1 20.365124-22.062971c6.231457-4.849699 13.00478-8.769195 19.91357-12.490007 12.67063-6.82751 26.199213-10.611539 40.612844-10.981815 5.274161-0.135466 10.566384 0.072249 15.858607 0.090311 5.454783 0.027093 10.918597 0.189653 16.37338-0.009031 16.183726-0.568959 31.166317-5.34641 45.18258-13.320868 0.839892-0.478648 1.535287-1.23726 2.366147-1.923624l-2.357116-4.073025c-1.688815 0.866985-2.871889 1.517224-4.091087 2.077152-4.009807 1.878468-7.965428 3.919496-12.083609 5.572187a89.398832 89.398832 0 0 1-33.478277 6.312737c-4.77745 0-9.554901-0.207715-14.323321-0.234808-5.454783-0.027093-10.918597-0.126435-16.364348 0.126435-12.074577 0.559928-23.562133 3.594377-34.534916 8.624698a137.814545 137.814545 0 0 0-21.340483 12.101671 102.30427 102.30427 0 0 0-20.392218 18.486656c-4.822606 5.788933-8.769195 12.164888-12.399696 18.748558l-1.824282 3.323444a301.629619 301.629619 0 0 0-17.104898-22.604837c1.174043-2.095215 2.348085-4.190429 3.54019-6.276613 2.537738-4.4433 4.994197-8.940786 7.73965-13.248619a87.836452 87.836452 0 0 1 20.365125-22.062971c6.231457-4.849699 13.00478-8.769195 19.913569-12.490008 12.67063-6.82751 26.199213-10.611539 40.612845-10.981814 5.274161-0.135466 10.566384 0.072249 15.858607 0.090311 5.454783 0.027093 10.918597 0.189653 16.373379 0 16.183726-0.568959 31.166317-5.34641 45.18258-13.320869 0.839892-0.478648 1.535287-1.228229 2.366147-1.923623l-2.357116-4.073025c-1.688815 0.866985-2.871889 1.517224-4.091087 2.077152-4.018838 1.878468-7.965428 3.919496-12.083608 5.572187a89.398832 89.398832 0 0 1-33.478278 6.312737c-4.77745 0-9.554901-0.207715-14.32332-0.225777-5.454783-0.027093-10.918597-0.126435-16.364349 0.126435-12.074577 0.568959-23.562133 3.594377-34.534916 8.624698-7.459686 3.413755-14.585222 7.4055-21.340483 12.10167a102.30427 102.30427 0 0 0-20.392217 18.486657c-4.822606 5.788933-8.769195 12.164888-12.399697 18.748558l-4.371051 7.956396c-1.273385-1.4811-2.447427-3.025418-3.747906-4.479424a329.45443 329.45443 0 0 0-14.883248-15.587674c2.609987-4.434269 5.057414-8.976911 7.613215-13.447304 2.537738-4.4433 4.994197-8.940786 7.739651-13.248619a87.836452 87.836452 0 0 1 20.365124-22.062971c6.231457-4.849699 13.00478-8.769195 19.91357-12.490008 12.67063-6.82751 26.199213-10.611539 40.612844-10.981814 5.283192-0.135466 10.566384 0.072249 15.858607 0.090311 5.454783 0.027093 10.918597 0.189653 16.373379-0.009031 16.183726-0.568959 31.166317-5.34641 45.18258-13.320869 0.839892-0.478648 1.535287-1.228229 2.366148-1.923623l-2.357117-4.073025c-1.688815 0.866985-2.871889 1.517224-4.091087 2.077152-4.018838 1.878468-7.965428 3.919496-12.083608 5.572187a89.398832 89.398832 0 0 1-33.478278 6.312737c-4.77745 0-9.554901-0.207715-14.32332-0.225777-5.454783-0.027093-10.918597-0.126435-16.364348 0.126435-12.074577 0.559928-23.562133 3.594377-34.534916 8.624698-7.459686 3.413755-14.585222 7.4055-21.340483 12.10167a102.30427 102.30427 0 0 0-20.392218 18.486657c-4.822606 5.788933-8.769195 12.164888-12.399697 18.748558-2.709329 4.921948-5.382534 9.88002-8.127987 14.801968-0.198684 0.352213-0.433493 0.668301-0.641208 1.011483a314.580213 314.580213 0 0 0-20.888928-18.089288c2.022966-2.600956 3.964652-5.274161 5.707653-8.14605 3.007355-4.958072 5.698622-10.105798 8.570512-15.136119 2.537738-4.4433 4.994197-8.940786 7.73965-13.24862a87.836452 87.836452 0 0 1 20.365124-22.06297c6.231457-4.840668 13.00478-8.769195 19.91357-12.490008 12.67063-6.82751 26.199213-10.611539 40.612845-10.981814 5.274161-0.135466 10.566384 0.072249 15.858606 0.090311 5.454783 0.027093 10.918597 0.189653 16.37338-0.009031 16.183726-0.568959 31.166317-5.34641 45.18258-13.320869 0.839892-0.478648 1.526255-1.228229 2.366147-1.923624l-2.348085-4.073025c-1.688815 0.866985-2.871889 1.517224-4.091087 2.077153-4.018838 1.878468-7.974459 3.919496-12.083608 5.563156a89.398832 89.398832 0 0 1-33.478278 6.312737c-4.77745 0-9.554901-0.207715-14.32332-0.225778-5.454783-0.027093-10.918597-0.126435-16.364349 0.126436-12.074577 0.568959-23.562133 3.594377-34.534916 8.624698-7.459686 3.413755-14.585222 7.4055-21.340483 12.10167a102.30427 102.30427 0 0 0-20.392218 18.486656c-4.822606 5.788933-8.769195 12.164888-12.399696 18.748558-2.71836 4.921948-5.382534 9.88002-8.127988 14.801969a89.389801 89.389801 0 0 1-7.568059 11.225654 302.397262 302.397262 0 0 0-24.383963-16.978463c6.123084-5.76184 11.650116-12.10167 16.120509-19.471046 3.007355-4.958072 5.698622-10.105798 8.570511-15.136119 2.537738-4.4433 4.994197-8.940786 7.73965-13.24862a87.836452 87.836452 0 0 1 20.365125-22.062971c6.231457-4.849699 13.00478-8.769195 19.913569-12.490007 12.67063-6.82751 26.199213-10.611539 40.612845-10.981815 5.274161-0.135466 10.566384 0.072249 15.858607 0.090311 5.454783 0.027093 10.918597 0.189653 16.373379-0.009031 16.183726-0.568959 31.166317-5.34641 45.18258-13.320868 0.839892-0.478648 1.535287-1.23726 2.366148-1.923624l-2.357117-4.073025c-1.688815 0.866985-2.871889 1.517224-4.091087 2.077153-4.009807 1.878468-7.965428 3.919496-12.083608 5.563156a89.398832 89.398832 0 0 1-33.478278 6.312737c-4.77745 0-9.554901-0.207715-14.32332-0.234809-5.454783-0.027093-10.918597-0.126435-16.364348 0.126435-12.074577 0.559928-23.562133 3.594377-34.534917 8.624698-7.459686 3.413755-14.585222 7.4055-21.340482 12.101671a102.30427 102.30427 0 0 0-20.392218 18.486656c-4.822606 5.788933-8.769195 12.164888-12.399697 18.748558-2.71836 4.921948-5.382534 9.88002-8.127987 14.801968a91.638544 91.638544 0 0 1-18.549874 23.155734 314.300249 314.300249 0 0 0-74.136278-32.069427 306.966998 306.966998 0 0 0-125.414849-9.509745 306.00067 306.00067 0 0 0-112.518441 37.406805c-11.216623 6.33983-22.180375 13.058967-32.448733 20.834742-7.215847 5.463814-14.955497 10.403824-20.473497 18.134443l1.968779 1.788157c3.133791-1.363696 5.635405-3.160884 8.100894-5.147725a367.926905 367.926905 0 0 1 18.486657-14.15173 305.838111 305.838111 0 0 1 60.49932-33.234438c22.96608-9.365248 46.699804-16.084384 71.300514-19.624574 49.941968-7.188753 98.827298-2.772547 146.348932 14.124636 67.552608 24.013688 120.547087 66.423721 158.631224 127.302348a302.036019 302.036019 0 0 1 37.027499 86.653378c30.814104 121.856596-15.777327 256.501226-129.090505 331.17937a299.480218 299.480218 0 0 1-78.850511 36.892032c-52.488738 15.786358-105.555465 17.782231-158.866033 4.994197-77.956432-18.712434-139.611733-61.492742-184.68594-127.753902-17.709982-26.027622-30.723793-54.430424-39.601361-84.729755-31.166317-106.350202-1.4811-222.589455 76.077963-300.762634 2.908013-2.926076 5.84312-5.816027 8.823383-8.660823 1.932655-1.851375 2.71836-3.910465 1.517224-7.044255-2.727391 0.623146-4.163336 2.284868-5.734747 3.765967a303.480994 303.480994 0 0 0-57.329406 72.908049c-27.987371 49.824564-41.506923 102.737763-40.648969 158.649286-4.759388 1.535287-9.591025 2.709329-14.531035 3.504066-2.013935 0.32512-4.009807 1.020514-6.014711 1.038576-6.132115 0.036124-12.26423-0.207715-18.396345-0.288995-5.626374-0.072249-11.243716-0.180622-16.87009-0.072249-12.797065 0.234809-24.998077 3.233133-36.6211 8.480201-7.468717 3.368599-14.594253 7.369375-21.394669 12.011359-11.4424 7.811899-20.997301 17.375831-28.294428 29.13432-2.600956 4.19946-4.94001 8.56148-7.396469 12.860283-2.781578 4.885824-5.436721 9.861958-8.362796 14.657471a85.26259 85.26259 0 0 1-24.383963 25.874093c-3.215071 2.230681-6.484328 4.398144-9.708429 6.637857-0.388337 0.225777-0.568959 0.767643-0.930203 1.309509l2.311961 3.558252c1.39982-0.677332 2.63708-1.174043 3.765967-1.851375 14.657471-8.715009 26.461115-20.301907 35.121938-35.013564 2.420334-4.11818 4.632953-8.353765 6.9991-12.499039 2.700298-4.741326 5.292223-9.54587 8.22733-14.142698a87.646799 87.646799 0 0 1 20.356093-22.062971c6.240488-4.849699 13.00478-8.778227 19.922601-12.499038 12.67063-6.818478 26.190182-10.638633 40.603813-10.990846 5.454783-0.135466 10.909566 0.036124 16.364349 0.117404 6.132115 0.090311 12.26423 0.198684 18.405376-0.216746 7.197785-0.478648 14.124636-2.031997 20.916021-4.11818 0.234809 7.4055 0.650239 14.856155 1.390789 22.360997 0.252871 2.591925 0.605084 5.156757 0.930203 7.721588-1.544318 0.343182-3.088635 0.731519-4.632953 0.74055-6.132115 0.036124-12.26423-0.207715-18.396345-0.288995-5.626374-0.072249-11.243716-0.180622-16.87009-0.072249-12.797065 0.234809-24.998077 3.233133-36.621099 8.4802-7.468717 3.368599-14.594253 7.369375-21.39467 12.01136-11.4424 7.811899-20.997301 17.375831-28.294428 29.13432-2.600956 4.19946-4.94001 8.56148-7.396468 12.860282-2.781578 4.885824-5.436721 9.861958-8.362796 14.657471a85.26259 85.26259 0 0 1-24.383963 25.874094c-3.215071 2.230681-6.493359 4.398144-9.70843 6.637857-0.370275 0.261902-0.550897 0.803768-0.921172 1.345633l2.311961 3.558252c1.39982-0.677332 2.63708-1.174043 3.765968-1.851375 14.657471-8.715009 26.461115-20.301907 35.121937-35.013564 2.420334-4.11818 4.632953-8.353765 6.999101-12.499039 2.700298-4.741326 5.292223-9.54587 8.227329-14.142698a87.646799 87.646799 0 0 1 20.356094-22.062971c6.240488-4.849699 13.00478-8.778227 19.9226-12.499038 12.67063-6.818478 26.190182-10.638633 40.603814-10.990846 5.454783-0.135466 10.909566 0.036124 16.364348 0.117405 6.132115 0.090311 12.26423 0.198684 18.405376-0.216747 1.869437-0.126435 3.684688-0.469617 5.518001-0.731519a297.9359 297.9359 0 0 0 5.247067 27.337132c-3.522128-0.063218-7.035225-0.126435-10.557352-0.171591-5.626374-0.072249-11.243716-0.180622-16.87009-0.072249-12.797065 0.234809-24.998077 3.233133-36.6211 8.480201-7.468717 3.368599-14.594253 7.369375-21.394669 12.011359-11.4424 7.811899-20.997301 17.375831-28.294428 29.13432-2.600956 4.19946-4.94001 8.56148-7.396469 12.860283-2.781578 4.885824-5.436721 9.861958-8.371827 14.65747a85.26259 85.26259 0 0 1-24.383963 25.874094c-3.215071 2.230681-6.493359 4.398144-9.708429 6.637857-0.370275 0.261902-0.550897 0.803768-0.921172 1.345633l2.311961 3.558253c1.39982-0.677332 2.63708-1.183074 3.765967-1.851375 14.657471-8.715009 26.461115-20.301907 35.121938-35.013565 2.420334-4.11818 4.632953-8.353765 6.9991-12.508069 2.700298-4.741326 5.292223-9.54587 8.22733-14.142699a87.646799 87.646799 0 0 1 20.356093-22.06297c6.240488-4.849699 13.00478-8.778227 19.922601-12.499039 12.67063-6.818478 26.190182-10.638633 40.603813-10.990846 5.454783-0.135466 10.909566 0.036124 16.364349 0.117405 4.054963 0.063218 8.109925 0.054187 12.164888-0.036125 2.293899 8.868538 4.967104 17.637733 8.055738 26.289525-0.541866-0.009031-1.074701-0.027093-1.616566-0.027094-5.626374-0.072249-11.243716-0.180622-16.87009-0.072249-12.797065 0.234809-24.998077 3.233133-36.621099 8.480201-7.468717 3.368599-14.594253 7.369375-21.39467 12.011359-11.4424 7.811899-20.997301 17.375831-28.294428 29.13432-2.600956 4.19946-4.94001 8.56148-7.396468 12.860283-2.781578 4.894855-5.436721 9.861958-8.371828 14.657471a85.26259 85.26259 0 0 1-24.383962 25.874094c-3.215071 2.230681-6.493359 4.407175-9.70843 6.637856-0.370275 0.261902-0.550897 0.803768-0.921172 1.345634l2.311961 3.558252c1.39982-0.677332 2.63708-1.174043 3.765968-1.851375 14.657471-8.715009 26.461115-20.301907 35.121937-35.013564 2.420334-4.11818 4.632953-8.353765 6.9991-12.50807 2.700298-4.741326 5.292223-9.54587 8.22733-14.142698a87.646799 87.646799 0 0 1 20.356093-22.062971c6.240488-4.849699 13.00478-8.778227 19.922601-12.499039 12.67063-6.818478 26.190182-10.638633 40.603814-10.990845 5.454783-0.135466 10.909566 0.036124 16.364348 0.117404 1.309509 0.018062 2.619018 0 3.928527-0.009031 2.537738 6.701074 5.256099 13.338931 8.254423 19.904538 0.98439 2.14037 2.158432 4.181398 3.178946 6.303706-4.542642-0.063218-9.085284-0.144498-13.636956-0.063217-12.797065 0.234809-24.998077 3.233133-36.6211 8.4802-7.468717 3.368599-14.594253 7.369375-21.39467 12.011359-11.4424 7.811899-20.997301 17.375831-28.294427 29.13432-2.600956 4.19946-4.94001 8.56148-7.396469 12.860283-2.781578 4.885824-5.436721 9.861958-8.371827 14.657471a85.26259 85.26259 0 0 1-24.383963 25.874094c-3.215071 2.230681-6.493359 4.398144-9.70843 6.637856-0.370275 0.261902-0.550897 0.803768-0.921172 1.345634l2.311961 3.558252c1.39982-0.677332 2.63708-1.183074 3.765968-1.851375 14.657471-8.715009 26.461115-20.301907 35.121937-35.013564 2.420334-4.11818 4.632953-8.353765 6.999101-12.499039 2.700298-4.741326 5.292223-9.54587 8.227329-14.142698a87.646799 87.646799 0 0 1 20.356094-22.062971c6.240488-4.849699 13.00478-8.778227 19.9226-12.499039 12.67063-6.818478 26.190182-10.638633 40.603814-10.990845 5.400596-0.135466 10.801192 0.036124 16.201788 0.117404a293.600974 293.600974 0 0 0 14.955498 26.199213c-4.352989-0.054187-8.696947-0.135466-13.049936-0.054186-12.797065 0.234809-24.998077 3.233133-36.6211 8.4802-7.468717 3.368599-14.594253 7.369375-21.394669 12.01136-11.4424 7.811899-20.997301 17.375831-28.294428 29.13432-2.600956 4.19946-4.94001 8.56148-7.396469 12.860282-2.781578 4.885824-5.436721 9.861958-8.362796 14.657471a85.26259 85.26259 0 0 1-24.383963 25.874094c-3.215071 2.230681-6.493359 4.398144-9.708429 6.637856-0.370275 0.261902-0.550897 0.803768-0.921172 1.345634l2.311961 3.558252c1.39982-0.677332 2.63708-1.174043 3.765967-1.851375 14.657471-8.715009 26.461115-20.301907 35.121938-35.013564 2.420334-4.11818 4.632953-8.353765 6.9991-12.499039 2.700298-4.741326 5.292223-9.54587 8.22733-14.142698a87.646799 87.646799 0 0 1 20.356093-22.062971c6.240488-4.849699 13.00478-8.778227 19.922601-12.499039 12.67063-6.818478 26.190182-10.638633 40.603813-10.990845 5.418658-0.135466 10.837317 0.036124 16.255976 0.117404a343.272009 343.272009 0 0 0 19.651667 26.235338l-0.930203-0.018062c-5.626374-0.072249-11.243716-0.180622-16.870089-0.072249-12.797065 0.234809-24.998077 3.233133-36.6211 8.4802-7.468717 3.368599-14.594253 7.369375-21.39467 12.01136-11.4424 7.811899-20.997301 17.375831-28.294427 29.13432-2.600956 4.19946-4.94001 8.56148-7.396469 12.860282-2.781578 4.885824-5.436721 9.861958-8.362796 14.657471a85.26259 85.26259 0 0 1-24.383963 25.874094c-3.215071 2.230681-6.493359 4.398144-9.70843 6.637857-0.370275 0.261902-0.550897 0.803768-0.921172 1.345633l2.311961 3.558252c1.39982-0.677332 2.63708-1.174043 3.765968-1.851374 14.657471-8.715009 26.461115-20.301907 35.121937-35.013565 2.420334-4.11818 4.632953-8.353765 6.999101-12.499038 2.700298-4.741326 5.292223-9.54587 8.227329-14.142699a87.646799 87.646799 0 0 1 20.356094-22.062971c6.240488-4.849699 13.00478-8.778227 19.9226-12.499038 12.67063-6.818478 26.190182-10.638633 40.603814-10.990846 5.454783-0.135466 10.909566 0.036124 16.364348 0.117405 1.941686 0.027093 3.874341-0.009031 5.806996-0.018063 3.395693 3.910465 6.872665 7.748681 10.494135 11.469494a330.140793 330.140793 0 0 0 15.714109 14.973559c-4.470393-0.063218-8.931755-0.153529-13.402148-0.207715-5.626374-0.072249-11.243716-0.180622-16.87009-0.072249-12.797065 0.234809-24.998077 3.233133-36.6211 8.480201-7.468717 3.368599-14.594253 7.369375-21.394669 12.011359-11.4424 7.811899-20.997301 17.375831-28.294428 29.13432-2.600956 4.19946-4.94001 8.56148-7.396469 12.860283-2.781578 4.894855-5.436721 9.861958-8.362796 14.657471a85.26259 85.26259 0 0 1-24.383963 25.874093c-3.215071 2.230681-6.493359 4.407175-9.708429 6.637857-0.370275 0.261902-0.550897 0.803768-0.921172 1.345633l2.311961 3.558253c1.39982-0.677332 2.63708-1.174043 3.765967-1.851375 14.657471-8.715009 26.461115-20.301907 35.121938-35.013565 2.420334-4.11818 4.632953-8.353765 6.9991-12.508069 2.700298-4.741326 5.292223-9.54587 8.22733-14.142699a87.646799 87.646799 0 0 1 20.356093-22.06297c6.240488-4.849699 13.00478-8.787258 19.922601-12.499039 12.67063-6.818478 26.190182-10.638633 40.603814-10.990846 5.454783-0.135466 10.909566 0.036124 16.364348 0.117405 6.132115 0.090311 12.255199 0.198684 18.405376-0.216747 0.316088-0.018062 0.623146-0.08128 0.939234-0.108373a312.214065 312.214065 0 0 0 31.888805 24.103999c-2.709329 0.65927-5.445752 1.246291-8.209268 1.688815-2.013935 0.32512-4.009807 1.020514-6.01471 1.038576-6.132115 0.036124-12.26423-0.207715-18.396346-0.288995-5.626374-0.072249-11.243716-0.180622-16.870089-0.072249-12.797065 0.234809-24.998077 3.233133-36.6211 8.480201-7.468717 3.368599-14.594253 7.369375-21.39467 12.011359-11.4424 7.811899-20.997301 17.375831-28.294427 29.13432-2.600956 4.19946-4.94001 8.56148-7.396469 12.860283-2.781578 4.885824-5.436721 9.861958-8.362796 14.657471a85.26259 85.26259 0 0 1-24.383963 25.874094c-3.215071 2.230681-6.493359 4.398144-9.70843 6.637856-0.370275 0.261902-0.550897 0.803768-0.921171 1.345634l2.31196 3.558252c1.39982-0.677332 2.63708-1.174043 3.765968-1.851375 14.657471-8.715009 26.461115-20.301907 35.121937-35.013564 2.420334-4.11818 4.632953-8.353765 6.999101-12.50807 2.700298-4.741326 5.292223-9.54587 8.22733-14.142699a87.646799 87.646799 0 0 1 20.356093-22.06297c6.240488-4.849699 13.00478-8.778227 19.922601-12.499039 12.67063-6.818478 26.190182-10.638633 40.603813-10.990845 5.454783-0.135466 10.909566 0.036124 16.364348 0.117404 6.132115 0.090311 12.26423 0.198684 18.405377-0.216746 6.944914-0.460586 13.618895-1.950717 20.184502-3.901434 34.616196 21.783007 73.070608 36.232762 115.345175 43.2138 63.073184 10.412855 123.735064 1.670753 181.732771-25.070326a302.722382 302.722382 0 0 0 53.093821-31.599809 311.780573 311.780573 0 0 0 41.931385-37.009437c56.823664-60.300637 87.150089-141.264424 84.44076-224.034431a92.478436 92.478436 0 0 0 16.165664-19.714886c3.007355-4.958072 5.698622-10.105798 8.570512-15.136119 2.537738-4.4433 4.994197-8.940786 7.73965-13.24862a87.836452 87.836452 0 0 1 20.365125-22.06297c6.231457-4.849699 13.00478-8.769195 19.913569-12.490008 12.67063-6.82751 26.199213-10.611539 40.612845-10.981814 5.274161-0.135466 10.566384 0.072249 15.858607 0.090311 5.454783 0.027093 10.918597 0.189653 16.373379 0 16.183726-0.568959 31.166317-5.34641 45.18258-13.320869 0.839892-0.478648 1.535287-1.228229 2.366147-1.923624-0.695394-1.336602-1.354665-2.483552-2.275836-4.073024z" fill="#20B78B" p-id="3543"></path></svg>