<?xml version="1.0" standalone="no"?><!DOCTYPE svg PUBLIC "-//W3C//DTD SVG 1.1//EN" "http://www.w3.org/Graphics/SVG/1.1/DTD/svg11.dtd"><svg t="1519452116642" class="icon" style="" viewBox="0 0 1024 1024" version="1.1" xmlns="http://www.w3.org/2000/svg" p-id="5965" xmlns:xlink="http://www.w3.org/1999/xlink" width="200" height="200"><defs><style type="text/css"></style></defs><path d="M472.22952495 777.89315699l121.38200532-63.43643848a265.80113121 265.80113121 0 0 0 120.06296908-199.51189354l17.28550926-195.40140864c-137.80860726 17.22415867-258.73048369-66.02849795-258.73048366-66.02849796s-120.92187644 83.25265667-258.73048371 66.02849796l17.28550921 195.40140864a265.77045593 265.77045593 0 0 0 120.06296912 199.51189354l121.38200538 63.43643848z" fill="#FFFFFF" p-id="5966"></path><path d="M710.03948102 321.2458933l-11.71794946 132.33307332a265.77045593 265.77045593 0 0 1-120.06296915 199.51189349l-121.38200529 63.4364385-121.38200537-63.4364385c-47.82273093-31.02802587-83.43670823-76.36606074-103.29893931-128.48332807a265.52505388 265.52505388 0 0 0 118.63656952 189.83384883l121.38200531 63.43643847 121.38200532-63.43643847a265.80113121 265.80113121 0 0 0 120.06296919-199.51189349l17.28550916-195.40140866a285.74005043 285.74005043 0 0 1-20.90518992 1.71781458z" fill="#DDEBFF" p-id="5967"></path><path d="M472.22952495 795.19400384l-128.48332816-67.14814495c-74.26480535-48.11414592-120.53843566-125.03236131-128.22258834-211.76666007l-18.97264861-214.32804426 18.84994753 2.36199502c130.18580505 16.28856325 246.981859-62.65421933 248.13218125-63.45177608l8.68109865-5.95100052 8.69643635 5.95100052c1.16565987 0.79755675 117.97705143 79.72500173 248.13218122 63.45177608l18.84994751-2.36199502-18.97264856 214.32804426a279.39027155 279.39027155 0 0 1-126.98024037 211.03045378l-129.71033847 67.88435124zM230.41644733 336.55284827l15.65972042 177.02692761a248.92973801 248.92973801 0 0 0 113.11502265 188.00867091l113.02299687 59.00386333 114.28068258-59.72473192c63.81987922-41.48828969 105.04742919-110.01682138 111.8726746-187.27246467l15.65972042-177.02692768c-114.23466961 7.50010115-212.54887918-46.71842155-241.82841522-64.80148754-29.24886075 18.05239071-127.56307031 72.20956291-241.78240232 64.78614996z" fill="#5399FC" p-id="5968"></path><path d="M428.85470673 607.49208556a15.29161729 15.29161729 0 0 1-10.84370453-4.49392562l-86.76497399-86.76497401a15.32229254 15.32229254 0 1 1 21.68740906-21.68740913l75.92126946 75.9212695 162.68624344-162.67090589a15.32229254 15.32229254 0 1 1 21.6874091 21.68740918l-173.52994794 173.51461035a15.29161729 15.29161729 0 0 1-10.8437046 4.49392562zM633.07525274 775.92994029a15.33763018 15.33763018 0 0 1-8.06759347-28.38995344c41.79504226-25.72120586 75.69120499-61.36585838 109.92479555-115.59971876 23.71197626-37.53118109 36.58024802-95.35404691 40.70607055-136.93436234l17.68428758-224.09811473c-53.37495308 12.1474031-103.82041874 6.31910364-138.37609955-1.39572431a15.33763018 15.33763018 0 1 1 6.65653146-29.93905413c35.55262679 7.92955484 89.38770873 13.69650377 144.05102276-3.80373233l21.76409727-6.96328409-21.22728018 268.91467012c-2.20861873 22.17821325-11.90200102 97.65469147-45.32269723 150.58485326-36.87166297 58.39035811-73.82001407 97.0411862-119.78689178 125.33911388a15.09222812 15.09222812 0 0 1-8.00624296 2.28530687z" fill="#5399FC" p-id="5969"></path></svg>