<?xml version="1.0" standalone="no"?><!DOCTYPE svg PUBLIC "-//W3C//DTD SVG 1.1//EN" "http://www.w3.org/Graphics/SVG/1.1/DTD/svg11.dtd"><svg t="1511331627267" class="icon" style="" viewBox="0 0 1024 1024" version="1.1" xmlns="http://www.w3.org/2000/svg" p-id="6257" xmlns:xlink="http://www.w3.org/1999/xlink" width="16" height="16"><defs><style type="text/css"></style></defs><path d="M640.516 888.95C640.516 888.95 640.516 888.95 640.516 888.95c-13.9-0.002-27.404-6.01-36.132-16.066-11.886-13.62-49.55-49.036-80.378-49.036-30.616 0-68.862 35.622-79.844 48.1-8.706 9.886-22.12 15.79-35.882 15.79-6.556 0-12.742-1.314-18.39-3.908l-0.988-0.452-93.706-54.758-0.93-0.68c-17.06-12.484-23.554-36.89-15.102-56.782 0.064-0.152 8.642-20.834 8.642-39.696 0-57.234-44.558-103.804-99.332-103.804l-3.32 0c-0.202 0.008-0.402 0.01-0.604 0.01-15.69 0-28.462-14.56-32.542-37.104-0.328-1.804-7.998-44.562-7.998-78.244 0-33.69 7.668-76.446 7.994-78.248 4.134-22.826 17.186-37.492 33.15-37.096l3.322 0c54.772 0 99.332-46.566 99.332-103.804 0-18.854-8.574-39.534-8.662-39.742-8.442-19.87-1.906-44.274 15.224-56.714l0.968-0.706 98.898-56.764 1.028-0.458c5.57-2.482 11.668-3.738 18.128-3.738 13.73 0 27.174 5.774 35.958 15.448 11.704 12.808 48.704 46.116 78.65 46.116 29.662 0 66.438-32.652 78.1-45.232 8.732-9.478 22.078-15.152 35.678-15.152 6.59 0 12.802 1.302 18.462 3.872l0.998 0.454 95.52 55.458 0.944 0.688c17.088 12.464 23.598 36.874 15.138 56.776-0.062 0.152-8.642 20.836-8.642 39.694 0 57.24 44.562 103.804 99.332 103.804l3.32 0c15.944-0.37 29.016 14.268 33.146 37.096 0.33 1.802 8 44.558 8 78.246 0 33.684-7.67 76.442-8 78.246-4.13 22.826-17.202 37.436-33.148 37.094l-3.318 0c-54.77 0-99.332 46.57-99.332 103.804 0 18.856 8.574 39.53 8.66 39.738 8.44 19.86 1.916 44.264-15.188 56.72l-0.958 0.698-97.126 56.098-1.01 0.458C653.016 887.682 646.936 888.95 640.516 888.95L640.516 888.95zM637.564 841.126c0.436 0.296 1.66 0.804 2.95 0.804 0.056 0 0.104 0 0.15-0.004l90.744-52.418c-2.19-5.314-12.208-31.124-12.208-58.044 0-80.51 60.684-146.488 136.756-150.62 1.098-6.316 7.04-41.854 7.04-68.526 0-26.664-5.94-62.194-7.038-68.528-76.074-4.128-136.758-70.108-136.758-150.62 0-26.958 10.048-52.8 12.22-58.076l-89.276-51.834c-0.102-0.008-0.226-0.012-0.372-0.012-1.522 0-2.946 0.58-3.416 0.91-1.496 1.608-14.44 15.322-33.028 28.988-27.512 20.23-53.536 30.486-77.334 30.486-24.034 0-50.262-10.458-77.954-31.086-18.702-13.93-31.702-27.906-33.204-29.546-0.476-0.336-1.916-0.932-3.45-0.932-0.12 0-0.226 0.002-0.318 0.008l-92.468 53.076c2.216 5.384 12.196 31.146 12.196 58.016 0 80.51-60.682 146.49-136.758 150.62-1.096 6.324-7.04 41.862-7.04 68.528 0 26.664 5.942 62.194 7.042 68.528 76.076 4.128 136.756 70.108 136.756 150.618 0 27.01-10.084 52.898-12.234 58.108l87.518 51.142c0.056 0.004 0.122 0.004 0.194 0.004 1.28 0 2.494-0.492 2.922-0.78 1.636-1.838 14.71-16.296 33.534-30.714 28.066-21.496 54.736-32.392 79.27-32.392 24.77 0 51.636 11.104 79.87 33.012C622.808 824.538 635.932 839.264 637.564 841.126L637.564 841.126zM524.326 650.038c-72.942 0-132.284-62.018-132.284-138.242 0-76.222 59.342-138.238 132.284-138.238 72.944 0 132.286 62.014 132.286 138.238C656.612 588.02 597.27 650.038 524.326 650.038L524.326 650.038zM524.326 420.578c-48.13 0-87.29 40.92-87.29 91.216 0 50.298 39.16 91.218 87.29 91.218 48.134 0 87.292-40.92 87.292-91.218C611.62 461.498 572.462 420.578 524.326 420.578L524.326 420.578z" p-id="6258" fill="#1296db"></path></svg>