<?xml version="1.0" standalone="no"?><!DOCTYPE svg PUBLIC "-//W3C//DTD SVG 1.1//EN" "http://www.w3.org/Graphics/SVG/1.1/DTD/svg11.dtd"><svg t="1511159862694" class="icon" style="" viewBox="0 0 1024 1024" version="1.1" xmlns="http://www.w3.org/2000/svg" p-id="1845" xmlns:xlink="http://www.w3.org/1999/xlink" width="200" height="200"><defs><style type="text/css"></style></defs><path d="M438.180936 815.177987 438.180936 337.782455C438.180936 317.482686 421.760889 301.053154 401.461121 301.053154 381.151867 301.053154 364.73182 317.482686 364.73182 337.782455L364.73182 815.177987C364.73182 835.477757 381.151867 851.897802 401.461121 851.897802 421.760889 851.897802 438.180936 835.477757 438.180936 815.177987L438.180936 815.177987ZM364.73182 80.715294 658.52828 80.715294C678.82805 80.715294 695.248095 64.295248 695.248095 43.995479 695.248095 23.695711 678.82805 7.266179 658.52828 7.266179L364.73182 7.266179C344.432052 7.266179 328.012005 23.695711 328.012005 43.995479 328.012005 64.295248 344.432052 80.715294 364.73182 80.715294L364.73182 80.715294ZM842.136841 264.33334C821.827584 264.33334 805.417026 280.753386 805.417026 301.053154L805.417026 851.897802C805.417026 892.4594 772.529507 925.346918 731.96791 925.346918L291.292191 925.346918C250.730598 925.346918 217.843075 892.4594 217.843075 851.897802L217.843075 301.053154C217.843075 280.753386 201.423029 264.33334 181.123261 264.33334 160.861436 264.33334 144.403446 280.753386 144.403446 301.053154L144.403446 447.951385 144.403446 925.346918C144.403446 965.899029 177.290968 998.786548 217.843075 998.786548L805.417026 998.786548C845.969131 998.786548 878.856656 965.899029 878.856656 925.346918L878.856656 447.951385 878.856656 301.053154C878.856656 280.762872 862.427124 264.33334 842.136841 264.33334L842.136841 264.33334ZM952.305772 117.435109 70.944845 117.435109C50.68302 117.435109 34.22503 133.864641 34.22503 154.16441 34.22503 174.464178 50.68302 190.89371 70.944845 190.89371L952.305772 190.89371C972.596055 190.89371 989.025587 174.464178 989.025587 154.16441 989.025587 133.864641 972.596055 117.435109 952.305772 117.435109L952.305772 117.435109ZM658.518793 815.177987 658.518793 337.782455C658.518793 317.482686 642.098748 301.053154 621.789495 301.053154 601.489727 301.053154 585.069681 317.482686 585.069681 337.782455L585.069681 815.177987C585.069681 835.477757 601.489727 851.897802 621.789495 851.897802 642.098748 851.897802 658.518793 835.477757 658.518793 815.177987L658.518793 815.177987Z" p-id="1846" fill="#666666"></path></svg>