<?xml version="1.0" standalone="no"?><!DOCTYPE svg PUBLIC "-//W3C//DTD SVG 1.1//EN" "http://www.w3.org/Graphics/SVG/1.1/DTD/svg11.dtd"><svg t="1531131936861" class="icon" style="" viewBox="0 0 1024 1024" version="1.1" xmlns="http://www.w3.org/2000/svg" p-id="1108" xmlns:xlink="http://www.w3.org/1999/xlink" width="200" height="200"><defs><style type="text/css"></style></defs><path d="M904.192 749.952L938.666667 853.333333l-116.736-58.368A300.288 300.288 0 0 1 725.333333 810.666667c-141.397333 0-256-95.530667-256-213.333334s114.602667-213.333333 256-213.333333 256 95.530667 256 213.333333c0 59.818667-29.525333 113.92-77.141333 152.618667zM629.333333 576a32 32 0 1 0 0-64 32 32 0 0 0 0 64z m192 0a32 32 0 1 0 0-64 32 32 0 0 0 0 64z" fill="#0CCE15" p-id="1109"></path><path d="M165.333333 656C90.368 601.216 42.666667 518.826667 42.666667 426.666667c0-164.949333 152.832-298.666667 341.333333-298.666667 154.752 0 285.44 90.112 327.253333 213.632C552.917333 347.904 426.666667 459.946667 426.666667 597.333333c0 43.477333 12.629333 84.394667 34.944 120.234667A389.205333 389.205333 0 0 1 384 725.333333a383.274667 383.274667 0 0 1-127.573333-21.546666L128 768l37.333333-112zM256 362.666667a42.666667 42.666667 0 1 0 0-85.333334 42.666667 42.666667 0 0 0 0 85.333334z m256 0a42.666667 42.666667 0 1 0 0-85.333334 42.666667 42.666667 0 0 0 0 85.333334z" fill="#0CCE15" p-id="1110"></path></svg>