<?xml version="1.0" standalone="no"?><!DOCTYPE svg PUBLIC "-//W3C//DTD SVG 1.1//EN" "http://www.w3.org/Graphics/SVG/1.1/DTD/svg11.dtd"><svg t="1514339179140" class="icon" style="" viewBox="0 0 1024 1024" version="1.1" xmlns="http://www.w3.org/2000/svg" p-id="1892" xmlns:xlink="http://www.w3.org/1999/xlink" width="200" height="200"><defs><style type="text/css"></style></defs><path d="M958.086289 624.661919l-167.888731-448.320679-150.037155 0 0 102.102423 94.441952 0.036839L846.206176 624.700805 634.76451 624.700805l-56.806797 102.265128L438.5128 726.965933l-52.15894-102.117772L174.709579 624.848161l111.760386-346.56004 94.420463 0.037862 0-101.983719L230.726384 176.342264 62.601268 624.861464l0 336.390423 895.672286-0.202615L958.086289 624.661919zM510.653841 664.795988l1.684362 1.950422 220.212424-255.225869-3.360538 0 1.544169-1.782599L567.35626 409.737942 567.35626 178.049139l-1.823532 0 0-1.781576L455.51094 176.267563l0 233.471402L290.299177 409.738965l220.216517 255.221776L510.653841 664.795988 510.653841 664.795988z" p-id="1893" fill="#2395ff"></path></svg>