<?xml version="1.0" standalone="no"?><!DOCTYPE svg PUBLIC "-//W3C//DTD SVG 1.1//EN" "http://www.w3.org/Graphics/SVG/1.1/DTD/svg11.dtd"><svg t="1521686055455" class="icon" style="" viewBox="0 0 1026 1024" version="1.1" xmlns="http://www.w3.org/2000/svg" p-id="6192" xmlns:xlink="http://www.w3.org/1999/xlink" width="200.390625" height="200"><defs><style type="text/css"></style></defs><path d="M419.377 552.039c0 14.737-8.056 26.628-18.062 26.628H284.38c-9.974 0-18.061-11.987-18.061-26.628 0-14.705 8.087-26.629 18.061-26.629h116.872c10.037-0.032 18.125 11.924 18.125 26.629z m0-103.062c0 14.705-8.056 26.629-18.062 26.629H284.38c-9.974 0-18.061-11.924-18.061-26.629 0-14.737 8.087-26.629 18.061-26.629h116.872c10.037 0 18.125 11.892 18.125 26.629z m0-103.03c0 14.705-8.056 26.629-18.062 26.629H284.38c-9.974 0-18.061-11.924-18.061-26.629 0-14.705 8.087-26.628 18.061-26.628h116.872c10.037-0.032 18.125 11.955 18.125 26.628z m0-101.048c0 14.77-8.056 26.629-18.062 26.629H284.38c-9.974 0-18.061-11.956-18.061-26.629 0-14.704 8.087-26.628 18.061-26.628h116.872c10.037 0 18.125 11.924 18.125 26.628z m178.312 307.14c0 14.737-8.056 26.628-17.997 26.628H462.756c-10.006 0-18.125-11.955-18.125-26.628 0-14.705 8.12-26.629 18.125-26.629h116.936c9.941-0.032 17.997 11.924 17.997 26.629z m0-103.062c0 14.705-8.056 26.629-17.997 26.629H462.756c-10.006 0-18.125-11.924-18.125-26.629 0-14.737 8.12-26.629 18.125-26.629h116.936c9.941 0 17.997 11.892 17.997 26.629z m0-103.03c0 14.705-8.056 26.629-17.997 26.629H462.756c-10.006 0-18.125-11.924-18.125-26.629 0-14.705 8.12-26.628 18.125-26.628h116.936c9.941-0.032 17.997 11.955 17.997 26.628z m0-103.061c0 14.736-8.056 26.628-17.997 26.628H462.756c-10.006 0-18.125-11.924-18.125-26.628 0-14.705 8.12-26.629 18.125-26.629h116.936c9.941 0.032 17.997 11.988 17.997 26.629z m0-109.935c0 14.737-8.056 26.628-17.997 26.628H462.756c-10.006 0-18.125-11.891-18.125-26.628s8.12-26.629 18.125-26.629h116.936c9.941-0.032 17.997 11.924 17.997 26.629z m185.6 419.088c0 14.737-8.087 26.628-18.06 26.628H648.292c-9.974 0-18.03-11.955-18.03-26.628 0-14.737 8.088-26.629 18.03-26.629h116.903c10.006-0.064 18.094 11.892 18.094 26.629z m0-103.062c0 14.705-8.087 26.597-18.06 26.597H648.292c-9.974 0-18.03-11.892-18.03-26.597 0-14.737 8.088-26.629 18.03-26.629h116.903c10.006 0 18.094 11.892 18.094 26.629z m-7.735-194.232c5.274 8.951 7.863 19.404 7.863 31.36 0 18.349-5.37 33.63-16.143 45.905-10.837 12.243-26.405 19.468-46.8 21.641v31.392H694.55v-31.296c-33.98-3.548-55.015-23.528-63.103-59.97l40.119-10.613c3.74 22.952 16.015 34.397 36.986 34.397 9.782 0 16.974-2.462 21.545-7.353a24.838 24.838 0 0 0 6.905-17.806c0-7.16-2.333-12.627-6.905-16.27-4.57-3.709-14.864-8.408-30.72-14.13-14.225-4.987-25.414-9.91-33.437-14.897a55.143 55.143 0 0 1-19.532-20.523 61.249 61.249 0 0 1-7.513-30.848c0-15.408 4.476-29.25 13.395-41.557 8.982-12.307 23.048-19.82 42.26-22.569v-24.295h25.925v24.295c29.026 3.485 47.823 20.14 56.39 49.9l-35.77 14.897c-7.002-20.426-17.71-30.624-32.352-30.624a23.464 23.464 0 0 0-17.645 6.841 22.697 22.697 0 0 0-6.681 16.59c0 6.618 2.11 11.669 6.425 15.25 4.283 3.516 13.426 7.927 27.492 13.106 15.344 5.722 27.491 11.124 36.218 16.175 8.76 5.05 15.952 12.275 21.003 21.002zM675.24 953.385s50.668 27.78 64.701 42.036c14.002 14.194-30.944 28.42-30.944 28.42H329.613c-36.57 0-22.504-34.142-22.504-34.142l64.637-33.437V850.323l303.495-0.831v103.893z" fill="" p-id="6193"></path><path d="M923.849 0H99.067C44.404 0 0.065 45.905 0.065 102.55v589.504c0 56.678 44.339 102.614 99.034 102.614h824.75c54.663 0 101.655-45.936 101.655-102.614V102.55C1025.472 45.905 978.48 0 923.849 0z m50.348 567.766c0 40.407-30.401 73.11-67.898 73.11H119.302c-37.561 0-67.994-32.671-67.994-73.11V124.352c0-40.375 30.433-73.109 67.994-73.109h786.965c37.497 0 67.898 32.734 67.898 73.109v443.414h0.032z" fill="" p-id="6194"></path></svg>